<svg xmlns="http://www.w3.org/2000/svg" xmlns:xlink="http://www.w3.org/1999/xlink" width="803" zoomAndPan="magnify" viewBox="0 0 602.25 233.249991" height="311" preserveAspectRatio="xMidYMid meet" version="1.0"><defs><g/></defs><g fill="#ffffff" fill-opacity="1"><g transform="translate(0.591357, 201.10335)"><g><path d="M 121.96875 -30.3125 L 57.921875 -30.3125 L 47.65625 0 L 3.90625 0 L 66 -171.578125 L 114.390625 -171.578125 L 176.46875 0 L 132.234375 0 Z M 111.21875 -62.578125 L 89.953125 -125.390625 L 68.921875 -62.578125 Z M 111.21875 -62.578125 "/></g></g></g><g fill="#ffffff" fill-opacity="1"><g transform="translate(180.733428, 201.10335)"><g><path d="M 126.859375 -171.578125 L 126.859375 -138.09375 L 56.953125 -138.09375 L 56.953125 -101.921875 L 109.25 -101.921875 L 109.25 -69.421875 L 56.953125 -69.421875 L 56.953125 0 L 15.15625 0 L 15.15625 -171.578125 Z M 126.859375 -171.578125 "/></g></g></g><g fill="#ffffff" fill-opacity="1"><g transform="translate(314.434516, 201.10335)"><g><path d="M 138.59375 -171.578125 L 138.59375 -138.09375 L 93.125 -138.09375 L 93.125 0 L 51.328125 0 L 51.328125 -138.09375 L 5.859375 -138.09375 L 5.859375 -171.578125 Z M 138.59375 -171.578125 "/></g></g></g><g fill="#ffffff" fill-opacity="1"><g transform="translate(458.890348, 201.10335)"><g><path d="M 138.59375 -171.578125 L 138.59375 -138.09375 L 93.125 -138.09375 L 93.125 0 L 51.328125 0 L 51.328125 -138.09375 L 5.859375 -138.09375 L 5.859375 -171.578125 Z M 138.59375 -171.578125 "/></g></g></g></svg>