<?xml version="1.0" encoding="UTF-8"?>
<svg width="32px" height="32px" viewBox="0 0 32 32" version="1.1" xmlns="http://www.w3.org/2000/svg" xmlns:xlink="http://www.w3.org/1999/xlink">
    <title>d-app-icon</title>
    <defs>
        <linearGradient x1="50%" y1="0%" x2="50%" y2="100%" id="linearGradient-1">
            <stop stop-color="#FFC95B" offset="0%"></stop>
            <stop stop-color="#FFE3A2" offset="100%"></stop>
        </linearGradient>
        <linearGradient x1="50%" y1="0%" x2="50%" y2="100%" id="linearGradient-2">
            <stop stop-color="#646A73" offset="0%"></stop>
            <stop stop-color="#646A73" offset="100%"></stop>
        </linearGradient>
    </defs>
    <g id="页面-1" stroke="none" stroke-width="1" fill="none" fill-rule="evenodd">
        <g id="首页-w4b-补充" transform="translate(-686, -2300)">
            <g id="编组-12备份" transform="translate(670, 2276)">
                <g id="编组" transform="translate(8, 8)">
                    <g transform="translate(8, 16)">
                        <path d="M18.6175796,0.666666667 C22.8416119,0.666666667 24.5594615,1.11982304 26.2287778,2.01258322 C27.849152,2.87916882 29.1208312,4.15084796 29.9874168,5.77122215 C30.880177,7.44053855 31.3333333,9.15838812 31.3333333,13.3824204 L31.3333333,18.6175796 C31.3333333,22.8416119 30.880177,24.5594615 29.9874168,26.2287778 C29.1208312,27.849152 27.849152,29.1208312 26.2287778,29.9874168 C24.5594615,30.880177 22.8416119,31.3333333 18.6175796,31.3333333 L13.3824204,31.3333333 C9.15838812,31.3333333 7.44053855,30.880177 5.77122215,29.9874168 C4.15084796,29.1208312 2.87916882,27.849152 2.01258322,26.2287778 C1.11982304,24.5594615 0.666666667,22.8416119 0.666666667,18.6175796 L0.666666667,13.3824204 C0.666666667,9.15838812 1.11982304,7.44053855 2.01258322,5.77122215 C2.87916882,4.15084796 4.15084796,2.87916882 5.77122215,2.01258322 C7.44053855,1.11982304 9.15838812,0.666666667 13.3824204,0.666666667 Z" id="矩形" stroke="#646A73" stroke-width="1.33333333"></path>
                        <g id="编组-11" transform="translate(4, 8.8)" fill="url(#linearGradient-2)">
                            <path d="M21.9173401,0.255335456 C21.9238393,0.258396331 21.926432,0.259625189 21.9290191,0.260857493 L21.933,0.262 L22.1369031,0.362560835 C22.7104613,0.667716531 23.1656566,1.11571805 23.5024891,1.70656538 C23.8399993,2.31730429 24.12337,2.98033497 23.9448537,4.27673719 C23.67517,6.15322515 21.6717637,7.85526593 19.4990744,7.86134888 C18.6511592,7.86134888 17.9220222,7.67912539 17.2896071,7.3906411 C16.319697,9.21620508 14.8652753,11.9494337 12.9282864,15.5893063 L12.0001814,17.3333333 L11.5524995,16.4927669 C11.3326681,16.0796759 11.1185788,15.6773732 10.9102317,15.2858589 L10.7984341,15.0752327 L10.7037986,14.8979407 C8.94946486,11.6012825 7.61763634,9.09842412 6.70831306,7.3893656 C6.14918703,7.64651778 5.51295512,7.81857197 4.78547694,7.85439819 L4.50092561,7.86134888 C2.32823634,7.85526593 0.324830028,6.15322515 0.0551462535,4.27673719 C-0.123369954,2.98033497 0.160000704,2.31730429 0.497510896,1.70656538 C0.873193933,1.04756918 1.39611864,0.566271079 2.06628501,0.262671088 L2.07859189,0.257123205 L2.082,0.255 L2.18381315,0.210759001 C3.26611423,-0.236497515 5.14673375,-0.0994321846 6.20543882,1.89023205 C6.43366805,2.3192667 6.86244938,3.12742732 7.50864242,4.34566594 C8.17872345,3.6699143 8.82734309,2.7407906 9.45524738,1.55981318 L12,4.22782335 L14.5447526,1.55981318 C15.1726569,2.7407906 15.8212765,3.6699143 16.4906115,4.34718428 C17.1375506,3.12742732 17.5663319,2.3192667 17.7945612,1.89023205 C18.8870618,-0.162945487 20.8547881,-0.24336043 21.9173401,0.255335456 Z M14.1960821,4.64232757 L12.547,6.36782335 L12.0006021,6.94226281 L11.452,6.36782335 L9.8039179,4.64232757 C9.43869037,5.09323545 9.00718615,5.6421837 8.47135622,6.15813043 C9.37618615,7.86652791 10.5455361,10.0708852 11.9994272,12.8104345 C13.4540918,10.0703571 14.6238931,7.86567798 15.5303047,6.15714241 C14.9928776,5.64226483 14.5613366,5.09326877 14.1960821,4.64232757 Z M1.87787661,2.36295941 C1.76781573,2.48565579 1.1948155,3.16982622 1.68374492,4.12706939 C1.88040019,4.42627996 2.14403051,4.71082206 2.48720974,4.97544934 C3.61056856,5.70538086 4.68937251,5.89362173 5.72362159,5.54017193 C5.55215488,5.21611247 5.42625498,4.97936595 5.34605845,4.8284866 C4.60648545,3.44024373 4.31362447,2.7807259 3.71505905,2.31872847 C3.0215776,1.7146472 2.27549859,1.91959035 1.87787661,2.36295941 Z M20.2849409,2.31872847 C19.6863755,2.7807259 19.3935146,3.44024373 18.6539415,4.8284866 C18.5737704,4.97931823 18.4479247,5.21596274 18.2764046,5.53842012 C19.309931,5.89374319 20.3890688,5.70561648 21.5127903,4.97544934 C21.8559695,4.71082206 22.1195998,4.42627996 22.3163216,4.12808057 L22.3009048,4.15655138 C22.816964,3.18389208 22.2333109,2.48691177 22.1221234,2.36295941 C21.7245014,1.91959035 20.9784224,1.7146472 20.2849409,2.31872847 Z" id="形状结合"></path>
                        </g>
                    </g>
                </g>
            </g>
        </g>
    </g>
</svg>