<?xml version="1.0" encoding="UTF-8"?>
<svg width="32px" height="32px" viewBox="0 0 32 32" version="1.1" xmlns="http://www.w3.org/2000/svg" xmlns:xlink="http://www.w3.org/1999/xlink">
    <title>d-mt4-icon</title>
    <g id="页面-1" stroke="none" stroke-width="1" fill="none" fill-rule="evenodd">
        <g id="首页-w4b-补充" transform="translate(-686, -2364)" fill="#646A73" fill-rule="nonzero">
            <g id="编组-12备份" transform="translate(670, 2276)">
                <g id="编组-7" transform="translate(8, 72)">
                    <g id="编组-4" transform="translate(8, 16)">
                        <g id="编组" transform="translate(0, 1)">
                            <path d="M15.8925491,0 C18.0114528,0 19.6867753,2.10928295 19.6867753,4.68715122 C19.6867753,5.09992167 19.6456316,5.50360598 19.5607726,5.89431008 C22.0975426,6.79383813 23.7870083,8.73697449 24.413165,11.4329626 L24.5005955,11.4926715 C28.4092528,14.2159181 29.8698563,17.5479361 28.8142617,21.3835861 C29.0148376,21.4692554 29.2141276,21.5679049 29.4082748,21.6834287 C31.6441811,22.9710649 32.6329171,25.477542 31.574751,27.3116447 C30.5140134,29.1457473 27.8486691,29.5403455 25.6140485,28.2527094 C25.2633165,28.0487388 24.9341681,27.8090888 24.6317412,27.5375002 C22.5514097,29.0535879 20.1817862,29.3975632 17.6925887,28.548658 L17.4405831,28.6732679 C13.2644913,30.6514508 9.6232684,30.4204032 6.84349301,27.9606548 C6.69434687,28.0644964 6.54134351,28.1618479 6.38576866,28.2540074 C4.14986237,29.5416435 1.48451806,29.1470453 0.425066197,27.3129427 C-0.633099922,25.47884 0.356921841,22.9749589 2.59025665,21.6821307 C2.80754714,21.5575208 3.03126635,21.447189 3.26012852,21.3524336 C2.76640338,18.3825632 3.84514138,15.9059405 6.39219737,14.1159705 C6.83835004,9.66505899 8.78753575,6.84186488 12.1986107,5.73984567 L12.1433238,5.39846633 C12.1128913,5.1634697 12.0974306,4.9267434 12.0970371,4.68974726 C12.0996086,2.11187899 13.7775026,0.00259604056 15.8964063,0.00259604056 Z M9.42885923,14.0085227 C9.2416327,14.0970212 9.05231983,14.1923285 8.86097373,14.2942179 C7.51431801,15.0112952 6.49437784,15.8267936 5.80049873,16.7487236 C4.98181555,17.8364758 4.62852356,19.0705116 4.93971593,20.6404034 C5.68157285,20.587604 6.388926,20.6931993 7.00843441,20.9406807 C7.7719942,21.2457078 8.4036207,21.7655642 8.81087113,22.4720784 C9.23697361,23.2131237 9.36354043,24.0626857 9.21671488,24.91316 C9.09612737,25.6116526 8.79010159,26.3113775 8.35206627,27.2258781 C9.26488598,27.9286105 10.2763578,28.3423449 11.7227056,28.4620651 C12.7110541,28.5045699 13.7869905,28.3342797 14.7461959,27.3847089 C13.420835,26.4890442 12.102215,25.2931304 10.8042622,23.8116083 L9.62664965,22.333043 C8.7883864,21.0509542 8.34258334,19.5481932 8.34481864,18.0121908 C8.3448185,16.7930357 8.62146346,15.6168528 9.13493167,14.558018 C9.22553449,14.3711838 9.32357213,14.1878771 9.42885923,14.0085227 Z M24.9801439,14.3071291 C24.9272154,16.1496778 24.4972325,18.1702862 23.6858274,20.2952467 C23.1033989,22.2232578 21.849124,23.7760959 20.2500307,24.754009 C19.1589385,25.4212579 17.9073144,25.8209512 16.5987873,25.8896298 C16.3712486,25.9015722 16.1443733,25.9033805 15.9187382,25.8953295 C16.1064786,26.0201461 16.3032078,26.1424221 16.5085352,26.2621336 C17.6317686,26.9170098 18.695029,27.3101578 19.703783,27.4392838 C20.9774935,27.6023256 22.1578387,27.3365699 23.3220899,26.3828253 C22.9950018,25.8051267 22.7998391,25.1968515 22.74367,24.597949 C22.6736352,23.8512025 22.8186642,23.1180853 23.1929802,22.4704739 C23.9644914,21.1330572 25.5370288,20.4909398 27.4937776,20.1671106 C27.6976504,18.9636089 27.5838467,17.8313362 27.1448485,16.7637187 C26.7702343,15.852679 26.1613076,14.9903241 24.9801439,14.3071291 Z M5.64977469,22.5050319 C4.9423873,22.424116 4.12713727,22.592012 3.37011394,23.0284716 C2.61167655,23.4661734 2.05868,24.0870972 1.77491468,24.7392988 C1.50608485,25.357173 1.47855298,26.0057299 1.77929172,26.5286463 C2.08064136,27.050096 2.65595857,27.3505613 3.32519037,27.4270662 C4.03221682,27.5078917 4.84683899,27.339886 5.60449393,26.9025504 C6.3623255,26.4651128 6.91548881,25.8436813 7.19907417,25.1909064 C7.46733311,24.5734109 7.49473008,23.9251935 7.19311902,23.4027208 C6.89265994,22.8808602 6.31799161,22.5814672 5.64977469,22.5050319 Z M28.632143,23.0309917 C27.8741686,22.5934716 27.0591872,22.4248751 26.35193,22.5052935 C25.6831637,22.5813352 25.1081871,22.8810286 24.8066273,23.4028434 C24.5050008,23.9247738 24.5325332,24.5730403 24.8008511,25.1906714 C25.084466,25.8435144 25.6375764,26.4651617 26.3953232,26.9025504 C27.152076,27.3394509 27.9669897,27.5073609 28.6744617,27.4264844 C29.3435891,27.3499915 29.919234,27.0499956 30.2208389,26.5281026 C30.5212254,26.0063667 30.4937318,25.3582465 30.22531,24.7407865 C29.9419059,24.088862 29.3895406,23.4681788 28.632143,23.0309917 Z M16.1803799,11.4925643 C15.9546715,11.4925643 15.7313208,11.5027541 14.7350768,11.7001706 L13.9397239,11.8970125 C12.6653237,12.3675379 11.6045153,13.2149862 10.8626886,14.2873754 C10.1232697,15.3562837 9.70079195,16.6486735 9.69970312,18.0137659 C9.69970312,19.8148005 10.4249303,21.4452405 11.5971578,22.6255117 C12.7699173,23.8063187 14.3900397,24.5365822 16.1792697,24.5365822 C17.9684997,24.5365822 19.588622,23.8063187 20.7613816,22.6255117 C21.933609,21.4452405 22.6588363,19.8148005 22.6588363,18.0139254 C22.6563759,16.2819798 21.9723878,14.6223326 20.7576649,13.3997765 C19.5422616,12.1765356 17.8952107,11.4910619 16.1803799,11.4925643 Z M18.8947579,14.0108309 L19.0889051,14.2483686 L18.2197431,18.9264337 L18.9629023,18.9264337 L19.1570494,19.1613753 L18.889615,20.5593432 L18.6954678,20.7202977 L17.8867358,20.7202977 L17.630873,22.1416299 L17.4367259,22.3025844 L15.7202596,22.3025844 L15.5261125,22.0715368 L15.7704035,20.7189997 L13.0394864,20.7189997 L12.8427677,20.4931441 L13.0780586,19.0043149 L16.8787136,14.0108309 L18.8947579,14.0108309 Z M16.7398534,16.5056259 L15.0156727,18.9290297 L16.2345566,18.9290297 L16.7398534,16.5056259 Z M12.1342675,7.36148326 C11.037915,7.7758313 10.1568446,8.41797101 9.48626181,9.30804823 C8.90333534,10.0817775 8.47951068,11.0394157 8.48891256,12.4150352 C9.87568625,11.727206 11.5188699,11.1312118 13.4267673,10.6269724 C14.3091295,10.2948146 15.2432899,10.1254295 16.1849121,10.1269973 C17.8468899,10.1264041 19.4193162,10.6549749 20.714556,11.5794246 C21.5040381,12.1429005 22.1905569,12.853471 22.731625,13.6809358 C22.8598579,13.8770445 22.9788,14.0780047 23.0883098,14.283137 C23.0996073,14.0513843 23.1031263,13.8129707 23.0989873,13.5681011 C23.0766875,12.2488164 22.838556,11.1243399 22.3785415,10.1909144 C21.7813146,8.9790684 20.8072209,8.10054991 19.2130243,7.61838164 C18.8724531,8.19320918 18.4382623,8.66703927 17.9423862,9.01381376 C17.3345823,9.43886129 16.6337871,9.67430245 15.8938348,9.67430245 C15.1725609,9.67430245 14.4893145,9.45009234 13.8932693,9.04571744 C13.3777119,8.69594784 12.9267158,8.20933978 12.1342675,7.36148326 Z M15.8925491,1.56427175 C15.2894673,1.56427175 14.7419052,1.91195007 14.3412531,2.45234748 C13.9175732,3.02380447 13.655779,3.81267563 13.655779,4.6858532 C13.655779,5.56107162 13.9172752,6.35031136 14.3406376,6.92177353 C14.7413447,7.46265513 15.2891808,7.81003069 15.8925491,7.81003069 C16.4957128,7.81003069 17.0433324,7.46224397 17.4439899,6.92142929 C17.8676012,6.34963129 18.1293191,5.56017836 18.1293191,4.6858532 C18.1293191,3.81178231 17.867747,3.02312481 17.4443164,2.45200385 C17.0436145,1.91153943 16.4958358,1.56427175 15.8925491,1.56427175 Z" id="形状"></path>
                        </g>
                    </g>
                </g>
            </g>
        </g>
    </g>
</svg>