<?xml version="1.0" standalone="no"?><!DOCTYPE svg PUBLIC "-//W3C//DTD SVG 1.1//EN" "http://www.w3.org/Graphics/SVG/1.1/DTD/svg11.dtd"><svg t="1683363787604" class="icon" viewBox="0 0 1024 1024" version="1.1" xmlns="http://www.w3.org/2000/svg" p-id="7461" xmlns:xlink="http://www.w3.org/1999/xlink" width="200" height="200"><path d="M179.392 704h159.104a950.784 950.784 0 0 1-17.984-160H129.28c4.736 57.92 22.4 112.192 50.048 160z m46.4 64a384.128 384.128 0 0 0 176.768 112.192c-18.752-30.4-35.072-68.48-48.128-112.192h-128.64z m618.88-64a381.632 381.632 0 0 0 49.984-160h-191.168c-1.664 56.96-8 110.912-17.92 160h159.04z m-46.464 64h-128.64c-13.056 43.712-29.44 81.792-48.128 112.192A384.128 384.128 0 0 0 798.208 768z m-394.304-64h216.192c10.88-48.768 17.536-103.04 19.392-160H384.512c1.856 56.96 8.576 111.232 19.392 160z m17.664 64c4.16 12.48 8.704 24.32 13.44 35.584C461.952 866.112 492.16 896 512 896c19.84 0 50.112-29.888 76.928-92.416 4.8-11.264 9.344-23.104 13.504-35.584H421.568z m-292.288-23.04A445.888 445.888 0 0 1 64 512c0-85.376 23.872-165.12 65.28-232.96a32 32 0 0 1 9.6-15.04A447.552 447.552 0 0 1 512 64a447.552 447.552 0 0 1 373.12 200 32 32 0 0 1 9.6 14.976A445.888 445.888 0 0 1 960 512c0 85.376-23.872 165.12-65.28 232.96a32 32 0 0 1-9.6 15.04A447.552 447.552 0 0 1 512 960a447.552 447.552 0 0 1-373.12-200 32 32 0 0 1-9.6-14.976z m0-264.96h191.232c1.664-56.96 8-110.912 17.92-160H179.456a381.632 381.632 0 0 0-50.048 160z m765.44 0a381.632 381.632 0 0 0-50.112-160h-159.104c9.984 49.088 16.32 103.04 17.984 160h191.168z m-510.208 0h254.976A875.52 875.52 0 0 0 620.096 320H403.904a875.52 875.52 0 0 0-19.392 160zM225.792 256h128.64c13.056-43.712 29.44-81.792 48.128-112.192A384.128 384.128 0 0 0 225.792 256z m572.416 0A384.128 384.128 0 0 0 621.44 143.808c18.752 30.4 35.072 68.48 48.128 112.192h128.64zM421.568 256h180.864a476.416 476.416 0 0 0-13.44-35.584C562.048 157.888 531.84 128 512 128c-19.84 0-50.112 29.888-76.928 92.416A476.416 476.416 0 0 0 421.568 256z" fill="#030303" p-id="7462"></path></svg>