<?xml version="1.0" encoding="utf-8"?>
<!-- Generator: Adobe Illustrator 16.0.0, SVG Export Plug-In . SVG Version: 6.00 Build 0)  -->
<!DOCTYPE svg PUBLIC "-//W3C//DTD SVG 1.1//EN" "http://www.w3.org/Graphics/SVG/1.1/DTD/svg11.dtd">
<svg version="1.1" id="图层_1" xmlns="http://www.w3.org/2000/svg" xmlns:xlink="http://www.w3.org/1999/xlink" x="0px" y="0px"
	 width="10px" height="10px" viewBox="0 0 10 10" enable-background="new 0 0 10 10" xml:space="preserve">
<title>08-01-01</title>
<desc>Created with Sketch.</desc>
<g id="控件">
	<g id="导航-新_x2F_关于我们-国家图标_x2F_箭头03">
		<g id="_x32_2041121">
			<rect id="矩形" fill="none" width="10" height="10"/>
			<path id="路径" fill="#979797" d="M8.527,4.97c0.002,0.15-0.057,0.294-0.166,0.397L3.947,9.783
				c-0.1,0.105-0.24,0.168-0.386,0.168S3.274,9.891,3.174,9.783c-0.107-0.1-0.168-0.239-0.168-0.387
				c0-0.146,0.061-0.285,0.168-0.387l4.018-4.04l-4.04-4.019C3.01,0.813,2.953,0.61,3.001,0.418C3.05,0.227,3.197,0.076,3.387,0.021
				C3.578-0.033,3.783,0.02,3.925,0.158l4.416,4.415C8.455,4.674,8.521,4.817,8.527,4.97L8.527,4.97z"/>
		</g>
	</g>
</g>
</svg>
