<?xml version="1.0" encoding="UTF-8"?>
<svg width="10px" height="10px" viewBox="0 0 10 10" version="1.1" xmlns="http://www.w3.org/2000/svg" xmlns:xlink="http://www.w3.org/1999/xlink">
    <!-- Generator: Sketch 64 (93537) - https://sketch.com -->
    <title>08-02-01</title>
    <desc>Created with Sketch.</desc>
    <g id="控件" stroke="none" stroke-width="1" fill="none" fill-rule="evenodd">
        <g id="导航-新/关于我们-国家图标/箭头-黑色" fill-rule="nonzero">
            <g id="22041121">
                <rect id="矩形" x="0" y="0" width="10" height="10"></rect>
                <path d="M5,8.51 C4.86441418,8.51196614 4.73407559,8.4576584 4.64,8.36 L0.64,4.36 C0.543322774,4.26926667 0.488481354,4.14258591 0.488481354,4.01 C0.488481354,3.87741409 0.543322774,3.75073333 0.64,3.66 C0.730733332,3.56332277 0.85741409,3.50848135 0.99,3.50848135 C1.12258591,3.50848135 1.24926667,3.56332277 1.34,3.66 L5,7.3 L8.64,3.64 C8.76504296,3.51138439 8.94920303,3.45924828 9.12310889,3.50323085 C9.29701476,3.54721343 9.43424598,3.68063267 9.48310889,3.85323085 C9.5319718,4.02582904 9.48504296,4.21138439 9.36,4.34 L5.36,8.34 C5.26798684,8.44309848 5.13807557,8.50444547 5,8.51 L5,8.51 Z" id="路径" fill="#030D1C"></path>
            </g>
        </g>
    </g>
</svg>