<?xml version="1.0" encoding="utf-8"?>
<!-- Generator: Adobe Illustrator 16.0.0, SVG Export Plug-In . SVG Version: 6.00 Build 0)  -->
<!DOCTYPE svg PUBLIC "-//W3C//DTD SVG 1.1//EN" "http://www.w3.org/Graphics/SVG/1.1/DTD/svg11.dtd">
<svg version="1.1" id="图层_1" xmlns="http://www.w3.org/2000/svg" xmlns:xlink="http://www.w3.org/1999/xlink" x="0px" y="0px"
	 width="10px" height="10px" viewBox="0 0 10 10" enable-background="new 0 0 10 10" xml:space="preserve">
<title>08-01-01</title>
<desc>Created with Sketch.</desc>
<g id="控件">
	<g id="导航-新_x2F_关于我们-国家图标_x2F_箭头03">
		<g id="_x32_2041121">
			<rect id="矩形" fill="none" width="10" height="10"/>
			<path id="路径" fill="#979797" d="M1.473,4.97c0.006-0.153,0.072-0.296,0.187-0.397l4.416-4.415
				C6.217,0.02,6.422-0.033,6.612,0.021c0.19,0.055,0.338,0.206,0.387,0.397C7.047,0.61,6.99,0.813,6.848,0.951L2.809,4.97
				l4.018,4.04c0.106,0.102,0.168,0.24,0.168,0.387c0,0.147-0.062,0.287-0.168,0.387C6.726,9.891,6.585,9.951,6.438,9.951
				c-0.146,0-0.286-0.063-0.386-0.168L1.639,5.367C1.529,5.264,1.471,5.12,1.473,4.97L1.473,4.97z"/>
		</g>
	</g>
</g>
</svg>
