<svg xmlns="http://www.w3.org/2000/svg" xmlns:xlink="http://www.w3.org/1999/xlink" width="461" zoomAndPan="magnify" viewBox="0 0 345.75 150.749998" height="201" preserveAspectRatio="xMidYMid meet" version="1.0"><defs><g/><clipPath id="61d46fd22f"><path d="M 235 0 L 345.339844 0 L 345.339844 95 L 235 95 Z M 235 0 " clip-rule="nonzero"/></clipPath><clipPath id="ec09a24129"><path d="M 235 0 L 345.339844 0 L 345.339844 121 L 235 121 Z M 235 0 " clip-rule="nonzero"/></clipPath></defs><g fill="#ffffff" fill-opacity="1"><g transform="translate(37.657301, 103.287208)"><g><path d="M 60.859375 0 L 51.734375 0 L 44.6875 -20.21875 L 17 -20.21875 L 9.953125 0 L 0.828125 0 L 26.328125 -70.390625 L 35.453125 -70.390625 Z M 41.984375 -27.984375 L 30.890625 -59.296875 L 19.703125 -27.984375 Z M 41.984375 -27.984375 "/></g></g></g><g fill="#ffffff" fill-opacity="1"><g transform="translate(93.11246, 103.287208)"><g><path d="M 49.765625 -61.265625 L 19.796875 -61.265625 L 19.796875 -37.84375 L 44.578125 -37.84375 L 44.578125 -30.578125 L 19.796875 -30.578125 L 19.796875 0 L 11.296875 0 L 11.296875 -68.421875 L 49.765625 -68.421875 Z M 49.765625 -61.265625 "/></g></g></g><g fill="#ffffff" fill-opacity="1"><g transform="translate(141.000711, 103.287208)"><g><path d="M 54.953125 -61.265625 L 32.140625 -61.265625 L 32.140625 0 L 23.640625 0 L 23.640625 -61.265625 L 0.828125 -61.265625 L 0.828125 -68.421875 L 54.953125 -68.421875 Z M 54.953125 -61.265625 "/></g></g></g><g fill="#ffffff" fill-opacity="1"><g transform="translate(190.651119, 103.287208)"><g><path d="M 54.953125 -61.265625 L 32.140625 -61.265625 L 32.140625 0 L 23.640625 0 L 23.640625 -61.265625 L 0.828125 -61.265625 L 0.828125 -68.421875 L 54.953125 -68.421875 Z M 54.953125 -61.265625 "/></g></g></g><path stroke-linecap="butt" transform="matrix(-0.351753, -0.376678, 0.376678, -0.351753, 288.585672, 47.631058)" fill="none" stroke-linejoin="miter" d="M -0.00139572 8.503018 L 86.346309 8.497785 " stroke="#ff0000" stroke-width="17" stroke-opacity="1" stroke-miterlimit="4"/><path stroke-linecap="butt" transform="matrix(0.353865, -0.374694, 0.374694, 0.353865, 257.860202, 68.165591)" fill="none" stroke-linejoin="miter" d="M 0.0045723 8.500411 L 86.878698 8.501695 " stroke="#ff0000" stroke-width="17" stroke-opacity="1" stroke-miterlimit="4"/><g clip-path="url(#61d46fd22f)"><path stroke-linecap="butt" transform="matrix(-0.351753, -0.376678, 0.376678, -0.351753, 312.194371, 47.631058)" fill="none" stroke-linejoin="miter" d="M 0.00288253 8.498437 L 86.345414 8.498743 " stroke="#ff0000" stroke-width="17" stroke-opacity="1" stroke-miterlimit="4"/></g><g clip-path="url(#ec09a24129)"><path stroke-linecap="butt" transform="matrix(0.353865, -0.374694, 0.374694, 0.353865, 281.468901, 68.165591)" fill="none" stroke-linejoin="miter" d="M 0.00026836 8.495854 L 86.879598 8.502649 " stroke="#ff0000" stroke-width="17" stroke-opacity="1" stroke-miterlimit="4"/></g><g fill="#fefcfa" fill-opacity="1"><g transform="translate(37.900121, 133.81354)"><g><path d="M 7.765625 0 L 6.546875 -3.15625 L 2.515625 -3.15625 L 1.296875 0 L 0 0 L 3.96875 -10.21875 L 5.125 -10.21875 L 9.09375 0 Z M 6.15625 -4.296875 L 5.015625 -7.375 C 4.984375 -7.445312 4.9375 -7.582031 4.875 -7.78125 C 4.8125 -7.976562 4.75 -8.179688 4.6875 -8.390625 C 4.625 -8.609375 4.570312 -8.773438 4.53125 -8.890625 C 4.457031 -8.597656 4.378906 -8.3125 4.296875 -8.03125 C 4.210938 -7.75 4.144531 -7.53125 4.09375 -7.375 L 2.9375 -4.296875 Z M 6.15625 -4.296875 "/></g></g></g><g fill="#fefcfa" fill-opacity="1"><g transform="translate(46.998238, 133.81354)"><g><path d="M 2.46875 0 L 1.21875 0 L 1.21875 -10.828125 L 2.46875 -10.828125 Z M 2.46875 0 "/></g></g></g><g fill="#fefcfa" fill-opacity="1"><g transform="translate(50.67165, 133.81354)"><g><path d="M 3.921875 -7.78125 C 4.421875 -7.78125 4.875 -7.679688 5.28125 -7.484375 C 5.6875 -7.296875 6.03125 -7.007812 6.3125 -6.625 L 6.390625 -6.625 L 6.5625 -7.640625 L 7.546875 -7.640625 L 7.546875 0.125 C 7.546875 1.21875 7.269531 2.039062 6.71875 2.59375 C 6.164062 3.144531 5.300781 3.421875 4.125 3.421875 C 3.007812 3.421875 2.09375 3.257812 1.375 2.9375 L 1.375 1.78125 C 2.132812 2.175781 3.078125 2.375 4.203125 2.375 C 4.859375 2.375 5.375 2.179688 5.75 1.796875 C 6.125 1.410156 6.3125 0.890625 6.3125 0.234375 L 6.3125 -0.078125 C 6.3125 -0.191406 6.316406 -0.351562 6.328125 -0.5625 C 6.335938 -0.78125 6.347656 -0.929688 6.359375 -1.015625 L 6.296875 -1.015625 C 5.785156 -0.242188 5 0.140625 3.9375 0.140625 C 2.945312 0.140625 2.171875 -0.203125 1.609375 -0.890625 C 1.054688 -1.585938 0.78125 -2.5625 0.78125 -3.8125 C 0.78125 -5.019531 1.054688 -5.984375 1.609375 -6.703125 C 2.171875 -7.421875 2.941406 -7.78125 3.921875 -7.78125 Z M 4.09375 -6.71875 C 3.457031 -6.71875 2.960938 -6.460938 2.609375 -5.953125 C 2.253906 -5.453125 2.078125 -4.734375 2.078125 -3.796875 C 2.078125 -2.847656 2.25 -2.125 2.59375 -1.625 C 2.9375 -1.132812 3.445312 -0.890625 4.125 -0.890625 C 4.882812 -0.890625 5.441406 -1.09375 5.796875 -1.5 C 6.148438 -1.914062 6.328125 -2.582031 6.328125 -3.5 L 6.328125 -3.8125 C 6.328125 -4.84375 6.144531 -5.582031 5.78125 -6.03125 C 5.425781 -6.488281 4.863281 -6.71875 4.09375 -6.71875 Z M 4.09375 -6.71875 "/></g></g></g><g fill="#fefcfa" fill-opacity="1"><g transform="translate(59.428052, 133.81354)"><g><path d="M 7.859375 -3.828125 C 7.859375 -2.566406 7.535156 -1.585938 6.890625 -0.890625 C 6.242188 -0.203125 5.378906 0.140625 4.296875 0.140625 C 3.617188 0.140625 3.015625 -0.0078125 2.484375 -0.3125 C 1.960938 -0.625 1.546875 -1.078125 1.234375 -1.671875 C 0.929688 -2.265625 0.78125 -2.984375 0.78125 -3.828125 C 0.78125 -5.097656 1.09375 -6.070312 1.71875 -6.75 C 2.351562 -7.4375 3.222656 -7.78125 4.328125 -7.78125 C 5.015625 -7.78125 5.625 -7.625 6.15625 -7.3125 C 6.6875 -7.007812 7.101562 -6.5625 7.40625 -5.96875 C 7.707031 -5.382812 7.859375 -4.671875 7.859375 -3.828125 Z M 2.078125 -3.828125 C 2.078125 -2.929688 2.253906 -2.21875 2.609375 -1.6875 C 2.972656 -1.15625 3.539062 -0.890625 4.3125 -0.890625 C 5.082031 -0.890625 5.648438 -1.15625 6.015625 -1.6875 C 6.378906 -2.21875 6.5625 -2.929688 6.5625 -3.828125 C 6.5625 -4.734375 6.378906 -5.441406 6.015625 -5.953125 C 5.648438 -6.460938 5.078125 -6.71875 4.296875 -6.71875 C 3.523438 -6.71875 2.960938 -6.460938 2.609375 -5.953125 C 2.253906 -5.441406 2.078125 -4.734375 2.078125 -3.828125 Z M 2.078125 -3.828125 "/></g></g></g><g fill="#fefcfa" fill-opacity="1"><g transform="translate(68.042073, 133.81354)"><g><path d="M 4.78125 -7.78125 C 4.914062 -7.78125 5.0625 -7.769531 5.21875 -7.75 C 5.382812 -7.738281 5.535156 -7.71875 5.671875 -7.6875 L 5.515625 -6.546875 C 5.390625 -6.566406 5.25 -6.585938 5.09375 -6.609375 C 4.945312 -6.628906 4.8125 -6.640625 4.6875 -6.640625 C 4.300781 -6.640625 3.9375 -6.53125 3.59375 -6.3125 C 3.25 -6.101562 2.972656 -5.804688 2.765625 -5.421875 C 2.566406 -5.035156 2.46875 -4.585938 2.46875 -4.078125 L 2.46875 0 L 1.21875 0 L 1.21875 -7.640625 L 2.234375 -7.640625 L 2.375 -6.234375 L 2.4375 -6.234375 C 2.675781 -6.660156 2.988281 -7.023438 3.375 -7.328125 C 3.769531 -7.628906 4.238281 -7.78125 4.78125 -7.78125 Z M 4.78125 -7.78125 "/></g></g></g><g fill="#fefcfa" fill-opacity="1"><g transform="translate(73.922389, 133.81354)"><g><path d="M 1.859375 -10.5 C 2.046875 -10.5 2.210938 -10.4375 2.359375 -10.3125 C 2.503906 -10.1875 2.578125 -9.984375 2.578125 -9.703125 C 2.578125 -9.429688 2.503906 -9.226562 2.359375 -9.09375 C 2.210938 -8.96875 2.046875 -8.90625 1.859375 -8.90625 C 1.640625 -8.90625 1.457031 -8.96875 1.3125 -9.09375 C 1.175781 -9.226562 1.109375 -9.429688 1.109375 -9.703125 C 1.109375 -9.984375 1.175781 -10.1875 1.3125 -10.3125 C 1.457031 -10.4375 1.640625 -10.5 1.859375 -10.5 Z M 2.46875 -7.640625 L 2.46875 0 L 1.21875 0 L 1.21875 -7.640625 Z M 2.46875 -7.640625 "/></g></g></g><g fill="#fefcfa" fill-opacity="1"><g transform="translate(77.595801, 133.81354)"><g><path d="M 3.765625 -0.890625 C 3.953125 -0.890625 4.144531 -0.898438 4.34375 -0.921875 C 4.539062 -0.953125 4.703125 -0.992188 4.828125 -1.046875 L 4.828125 -0.078125 C 4.691406 -0.015625 4.5 0.0351562 4.25 0.078125 C 4.007812 0.117188 3.773438 0.140625 3.546875 0.140625 C 3.148438 0.140625 2.78125 0.0703125 2.4375 -0.0625 C 2.101562 -0.195312 1.832031 -0.4375 1.625 -0.78125 C 1.414062 -1.125 1.3125 -1.601562 1.3125 -2.21875 L 1.3125 -6.671875 L 0.234375 -6.671875 L 0.234375 -7.265625 L 1.328125 -7.765625 L 1.828125 -9.390625 L 2.5625 -9.390625 L 2.5625 -7.640625 L 4.78125 -7.640625 L 4.78125 -6.671875 L 2.5625 -6.671875 L 2.5625 -2.25 C 2.5625 -1.78125 2.671875 -1.4375 2.890625 -1.21875 C 3.117188 -1 3.410156 -0.890625 3.765625 -0.890625 Z M 3.765625 -0.890625 "/></g></g></g><g fill="#fefcfa" fill-opacity="1"><g transform="translate(82.735734, 133.81354)"><g><path d="M 2.46875 -10.828125 L 2.46875 -7.65625 C 2.46875 -7.269531 2.441406 -6.910156 2.390625 -6.578125 L 2.484375 -6.578125 C 2.722656 -6.972656 3.054688 -7.269531 3.484375 -7.46875 C 3.910156 -7.664062 4.367188 -7.765625 4.859375 -7.765625 C 5.773438 -7.765625 6.46875 -7.539062 6.9375 -7.09375 C 7.414062 -6.65625 7.65625 -5.945312 7.65625 -4.96875 L 7.65625 0 L 6.40625 0 L 6.40625 -4.890625 C 6.40625 -6.109375 5.835938 -6.71875 4.703125 -6.71875 C 3.847656 -6.71875 3.257812 -6.476562 2.9375 -6 C 2.625 -5.519531 2.46875 -4.835938 2.46875 -3.953125 L 2.46875 0 L 1.21875 0 L 1.21875 -10.828125 Z M 2.46875 -10.828125 "/></g></g></g><g fill="#fefcfa" fill-opacity="1"><g transform="translate(91.534854, 133.81354)"><g><path d="M 9.59375 -7.78125 C 10.457031 -7.78125 11.101562 -7.554688 11.53125 -7.109375 C 11.957031 -6.660156 12.171875 -5.945312 12.171875 -4.96875 L 12.171875 0 L 10.9375 0 L 10.9375 -4.921875 C 10.9375 -6.117188 10.414062 -6.71875 9.375 -6.71875 C 8.632812 -6.71875 8.101562 -6.503906 7.78125 -6.078125 C 7.46875 -5.648438 7.3125 -5.03125 7.3125 -4.21875 L 7.3125 0 L 6.078125 0 L 6.078125 -4.921875 C 6.078125 -6.117188 5.550781 -6.71875 4.5 -6.71875 C 3.726562 -6.71875 3.195312 -6.476562 2.90625 -6 C 2.613281 -5.53125 2.46875 -4.851562 2.46875 -3.96875 L 2.46875 0 L 1.21875 0 L 1.21875 -7.640625 L 2.21875 -7.640625 L 2.40625 -6.59375 L 2.484375 -6.59375 C 2.710938 -7 3.03125 -7.296875 3.4375 -7.484375 C 3.84375 -7.679688 4.273438 -7.78125 4.734375 -7.78125 C 5.929688 -7.78125 6.707031 -7.351562 7.0625 -6.5 L 7.140625 -6.5 C 7.398438 -6.9375 7.742188 -7.257812 8.171875 -7.46875 C 8.609375 -7.675781 9.082031 -7.78125 9.59375 -7.78125 Z M 9.59375 -7.78125 "/></g></g></g><g fill="#fefcfa" fill-opacity="1"><g transform="translate(104.847432, 133.81354)"><g><path d="M 1.859375 -10.5 C 2.046875 -10.5 2.210938 -10.4375 2.359375 -10.3125 C 2.503906 -10.1875 2.578125 -9.984375 2.578125 -9.703125 C 2.578125 -9.429688 2.503906 -9.226562 2.359375 -9.09375 C 2.210938 -8.96875 2.046875 -8.90625 1.859375 -8.90625 C 1.640625 -8.90625 1.457031 -8.96875 1.3125 -9.09375 C 1.175781 -9.226562 1.109375 -9.429688 1.109375 -9.703125 C 1.109375 -9.984375 1.175781 -10.1875 1.3125 -10.3125 C 1.457031 -10.4375 1.640625 -10.5 1.859375 -10.5 Z M 2.46875 -7.640625 L 2.46875 0 L 1.21875 0 L 1.21875 -7.640625 Z M 2.46875 -7.640625 "/></g></g></g><g fill="#fefcfa" fill-opacity="1"><g transform="translate(108.520844, 133.81354)"><g><path d="M 4.28125 0.140625 C 3.59375 0.140625 2.988281 0.00390625 2.46875 -0.265625 C 1.945312 -0.546875 1.535156 -0.972656 1.234375 -1.546875 C 0.929688 -2.128906 0.78125 -2.875 0.78125 -3.78125 C 0.78125 -4.71875 0.929688 -5.476562 1.234375 -6.0625 C 1.546875 -6.65625 1.972656 -7.085938 2.515625 -7.359375 C 3.054688 -7.640625 3.671875 -7.78125 4.359375 -7.78125 C 4.742188 -7.78125 5.117188 -7.738281 5.484375 -7.65625 C 5.847656 -7.570312 6.144531 -7.476562 6.375 -7.375 L 5.984375 -6.328125 C 5.753906 -6.410156 5.488281 -6.488281 5.1875 -6.5625 C 4.882812 -6.644531 4.597656 -6.6875 4.328125 -6.6875 C 2.828125 -6.6875 2.078125 -5.722656 2.078125 -3.796875 C 2.078125 -2.867188 2.257812 -2.160156 2.625 -1.671875 C 2.988281 -1.179688 3.535156 -0.9375 4.265625 -0.9375 C 4.671875 -0.9375 5.035156 -0.976562 5.359375 -1.0625 C 5.679688 -1.15625 5.972656 -1.257812 6.234375 -1.375 L 6.234375 -0.265625 C 5.984375 -0.140625 5.703125 -0.0390625 5.390625 0.03125 C 5.085938 0.101562 4.71875 0.140625 4.28125 0.140625 Z M 4.28125 0.140625 "/></g></g></g><g fill="#fefcfa" fill-opacity="1"><g transform="translate(115.355114, 133.81354)"><g/></g></g><g fill="#fefcfa" fill-opacity="1"><g transform="translate(119.057009, 133.81354)"><g><path d="M 2.671875 0 L 1.375 0 L 1.375 -10.171875 L 7.0625 -10.171875 L 7.0625 -9.046875 L 2.671875 -9.046875 L 2.671875 -5.4375 L 6.796875 -5.4375 L 6.796875 -4.3125 L 2.671875 -4.3125 Z M 2.671875 0 "/></g></g></g><g fill="#fefcfa" fill-opacity="1"><g transform="translate(126.446552, 133.81354)"><g><path d="M 1.859375 -10.5 C 2.046875 -10.5 2.210938 -10.4375 2.359375 -10.3125 C 2.503906 -10.1875 2.578125 -9.984375 2.578125 -9.703125 C 2.578125 -9.429688 2.503906 -9.226562 2.359375 -9.09375 C 2.210938 -8.96875 2.046875 -8.90625 1.859375 -8.90625 C 1.640625 -8.90625 1.457031 -8.96875 1.3125 -9.09375 C 1.175781 -9.226562 1.109375 -9.429688 1.109375 -9.703125 C 1.109375 -9.984375 1.175781 -10.1875 1.3125 -10.3125 C 1.457031 -10.4375 1.640625 -10.5 1.859375 -10.5 Z M 2.46875 -7.640625 L 2.46875 0 L 1.21875 0 L 1.21875 -7.640625 Z M 2.46875 -7.640625 "/></g></g></g><g fill="#fefcfa" fill-opacity="1"><g transform="translate(130.119964, 133.81354)"><g><path d="M 4.890625 -7.78125 C 5.796875 -7.78125 6.484375 -7.554688 6.953125 -7.109375 C 7.421875 -6.660156 7.65625 -5.945312 7.65625 -4.96875 L 7.65625 0 L 6.40625 0 L 6.40625 -4.890625 C 6.40625 -6.109375 5.835938 -6.71875 4.703125 -6.71875 C 3.859375 -6.71875 3.273438 -6.476562 2.953125 -6 C 2.628906 -5.53125 2.46875 -4.851562 2.46875 -3.96875 L 2.46875 0 L 1.21875 0 L 1.21875 -7.640625 L 2.21875 -7.640625 L 2.40625 -6.59375 L 2.484375 -6.59375 C 2.722656 -7 3.0625 -7.296875 3.5 -7.484375 C 3.9375 -7.679688 4.398438 -7.78125 4.890625 -7.78125 Z M 4.890625 -7.78125 "/></g></g></g><g fill="#fefcfa" fill-opacity="1"><g transform="translate(138.919085, 133.81354)"><g><path d="M 4.109375 -7.765625 C 5.035156 -7.765625 5.722656 -7.5625 6.171875 -7.15625 C 6.617188 -6.75 6.84375 -6.097656 6.84375 -5.203125 L 6.84375 0 L 5.921875 0 L 5.6875 -1.078125 L 5.625 -1.078125 C 5.289062 -0.660156 4.9375 -0.351562 4.5625 -0.15625 C 4.195312 0.0390625 3.695312 0.140625 3.0625 0.140625 C 2.375 0.140625 1.800781 -0.0390625 1.34375 -0.40625 C 0.882812 -0.769531 0.65625 -1.34375 0.65625 -2.125 C 0.65625 -2.882812 0.953125 -3.46875 1.546875 -3.875 C 2.148438 -4.289062 3.070312 -4.519531 4.3125 -4.5625 L 5.609375 -4.609375 L 5.609375 -5.0625 C 5.609375 -5.695312 5.46875 -6.132812 5.1875 -6.375 C 4.914062 -6.625 4.53125 -6.75 4.03125 -6.75 C 3.632812 -6.75 3.253906 -6.6875 2.890625 -6.5625 C 2.523438 -6.445312 2.1875 -6.316406 1.875 -6.171875 L 1.5 -7.109375 C 1.832031 -7.285156 2.222656 -7.4375 2.671875 -7.5625 C 3.128906 -7.695312 3.609375 -7.765625 4.109375 -7.765625 Z M 5.59375 -3.734375 L 4.46875 -3.6875 C 3.519531 -3.65625 2.863281 -3.503906 2.5 -3.234375 C 2.132812 -2.960938 1.953125 -2.585938 1.953125 -2.109375 C 1.953125 -1.679688 2.082031 -1.367188 2.34375 -1.171875 C 2.601562 -0.972656 2.9375 -0.875 3.34375 -0.875 C 3.976562 -0.875 4.507812 -1.050781 4.9375 -1.40625 C 5.375 -1.757812 5.59375 -2.304688 5.59375 -3.046875 Z M 5.59375 -3.734375 "/></g></g></g><g fill="#fefcfa" fill-opacity="1"><g transform="translate(146.906631, 133.81354)"><g><path d="M 4.890625 -7.78125 C 5.796875 -7.78125 6.484375 -7.554688 6.953125 -7.109375 C 7.421875 -6.660156 7.65625 -5.945312 7.65625 -4.96875 L 7.65625 0 L 6.40625 0 L 6.40625 -4.890625 C 6.40625 -6.109375 5.835938 -6.71875 4.703125 -6.71875 C 3.859375 -6.71875 3.273438 -6.476562 2.953125 -6 C 2.628906 -5.53125 2.46875 -4.851562 2.46875 -3.96875 L 2.46875 0 L 1.21875 0 L 1.21875 -7.640625 L 2.21875 -7.640625 L 2.40625 -6.59375 L 2.484375 -6.59375 C 2.722656 -7 3.0625 -7.296875 3.5 -7.484375 C 3.9375 -7.679688 4.398438 -7.78125 4.890625 -7.78125 Z M 4.890625 -7.78125 "/></g></g></g><g fill="#fefcfa" fill-opacity="1"><g transform="translate(155.705752, 133.81354)"><g><path d="M 4.28125 0.140625 C 3.59375 0.140625 2.988281 0.00390625 2.46875 -0.265625 C 1.945312 -0.546875 1.535156 -0.972656 1.234375 -1.546875 C 0.929688 -2.128906 0.78125 -2.875 0.78125 -3.78125 C 0.78125 -4.71875 0.929688 -5.476562 1.234375 -6.0625 C 1.546875 -6.65625 1.972656 -7.085938 2.515625 -7.359375 C 3.054688 -7.640625 3.671875 -7.78125 4.359375 -7.78125 C 4.742188 -7.78125 5.117188 -7.738281 5.484375 -7.65625 C 5.847656 -7.570312 6.144531 -7.476562 6.375 -7.375 L 5.984375 -6.328125 C 5.753906 -6.410156 5.488281 -6.488281 5.1875 -6.5625 C 4.882812 -6.644531 4.597656 -6.6875 4.328125 -6.6875 C 2.828125 -6.6875 2.078125 -5.722656 2.078125 -3.796875 C 2.078125 -2.867188 2.257812 -2.160156 2.625 -1.671875 C 2.988281 -1.179688 3.535156 -0.9375 4.265625 -0.9375 C 4.671875 -0.9375 5.035156 -0.976562 5.359375 -1.0625 C 5.679688 -1.15625 5.972656 -1.257812 6.234375 -1.375 L 6.234375 -0.265625 C 5.984375 -0.140625 5.703125 -0.0390625 5.390625 0.03125 C 5.085938 0.101562 4.71875 0.140625 4.28125 0.140625 Z M 4.28125 0.140625 "/></g></g></g><g fill="#fefcfa" fill-opacity="1"><g transform="translate(162.540021, 133.81354)"><g><path d="M 1.859375 -10.5 C 2.046875 -10.5 2.210938 -10.4375 2.359375 -10.3125 C 2.503906 -10.1875 2.578125 -9.984375 2.578125 -9.703125 C 2.578125 -9.429688 2.503906 -9.226562 2.359375 -9.09375 C 2.210938 -8.96875 2.046875 -8.90625 1.859375 -8.90625 C 1.640625 -8.90625 1.457031 -8.96875 1.3125 -9.09375 C 1.175781 -9.226562 1.109375 -9.429688 1.109375 -9.703125 C 1.109375 -9.984375 1.175781 -10.1875 1.3125 -10.3125 C 1.457031 -10.4375 1.640625 -10.5 1.859375 -10.5 Z M 2.46875 -7.640625 L 2.46875 0 L 1.21875 0 L 1.21875 -7.640625 Z M 2.46875 -7.640625 "/></g></g></g><g fill="#fefcfa" fill-opacity="1"><g transform="translate(166.213434, 133.81354)"><g><path d="M 4.109375 -7.765625 C 5.035156 -7.765625 5.722656 -7.5625 6.171875 -7.15625 C 6.617188 -6.75 6.84375 -6.097656 6.84375 -5.203125 L 6.84375 0 L 5.921875 0 L 5.6875 -1.078125 L 5.625 -1.078125 C 5.289062 -0.660156 4.9375 -0.351562 4.5625 -0.15625 C 4.195312 0.0390625 3.695312 0.140625 3.0625 0.140625 C 2.375 0.140625 1.800781 -0.0390625 1.34375 -0.40625 C 0.882812 -0.769531 0.65625 -1.34375 0.65625 -2.125 C 0.65625 -2.882812 0.953125 -3.46875 1.546875 -3.875 C 2.148438 -4.289062 3.070312 -4.519531 4.3125 -4.5625 L 5.609375 -4.609375 L 5.609375 -5.0625 C 5.609375 -5.695312 5.46875 -6.132812 5.1875 -6.375 C 4.914062 -6.625 4.53125 -6.75 4.03125 -6.75 C 3.632812 -6.75 3.253906 -6.6875 2.890625 -6.5625 C 2.523438 -6.445312 2.1875 -6.316406 1.875 -6.171875 L 1.5 -7.109375 C 1.832031 -7.285156 2.222656 -7.4375 2.671875 -7.5625 C 3.128906 -7.695312 3.609375 -7.765625 4.109375 -7.765625 Z M 5.59375 -3.734375 L 4.46875 -3.6875 C 3.519531 -3.65625 2.863281 -3.503906 2.5 -3.234375 C 2.132812 -2.960938 1.953125 -2.585938 1.953125 -2.109375 C 1.953125 -1.679688 2.082031 -1.367188 2.34375 -1.171875 C 2.601562 -0.972656 2.9375 -0.875 3.34375 -0.875 C 3.976562 -0.875 4.507812 -1.050781 4.9375 -1.40625 C 5.375 -1.757812 5.59375 -2.304688 5.59375 -3.046875 Z M 5.59375 -3.734375 "/></g></g></g><g fill="#fefcfa" fill-opacity="1"><g transform="translate(174.20098, 133.81354)"><g><path d="M 2.46875 0 L 1.21875 0 L 1.21875 -10.828125 L 2.46875 -10.828125 Z M 2.46875 0 "/></g></g></g><g fill="#fefcfa" fill-opacity="1"><g transform="translate(177.874393, 133.81354)"><g/></g></g><g fill="#fefcfa" fill-opacity="1"><g transform="translate(181.576288, 133.81354)"><g><path d="M 4.609375 0 L 3.3125 0 L 3.3125 -9.046875 L 0.140625 -9.046875 L 0.140625 -10.171875 L 7.765625 -10.171875 L 7.765625 -9.046875 L 4.609375 -9.046875 Z M 4.609375 0 "/></g></g></g><g fill="#fefcfa" fill-opacity="1"><g transform="translate(189.492644, 133.81354)"><g><path d="M 4.78125 -7.78125 C 4.914062 -7.78125 5.0625 -7.769531 5.21875 -7.75 C 5.382812 -7.738281 5.535156 -7.71875 5.671875 -7.6875 L 5.515625 -6.546875 C 5.390625 -6.566406 5.25 -6.585938 5.09375 -6.609375 C 4.945312 -6.628906 4.8125 -6.640625 4.6875 -6.640625 C 4.300781 -6.640625 3.9375 -6.53125 3.59375 -6.3125 C 3.25 -6.101562 2.972656 -5.804688 2.765625 -5.421875 C 2.566406 -5.035156 2.46875 -4.585938 2.46875 -4.078125 L 2.46875 0 L 1.21875 0 L 1.21875 -7.640625 L 2.234375 -7.640625 L 2.375 -6.234375 L 2.4375 -6.234375 C 2.675781 -6.660156 2.988281 -7.023438 3.375 -7.328125 C 3.769531 -7.628906 4.238281 -7.78125 4.78125 -7.78125 Z M 4.78125 -7.78125 "/></g></g></g><g fill="#fefcfa" fill-opacity="1"><g transform="translate(195.37296, 133.81354)"><g><path d="M 4.109375 -7.765625 C 5.035156 -7.765625 5.722656 -7.5625 6.171875 -7.15625 C 6.617188 -6.75 6.84375 -6.097656 6.84375 -5.203125 L 6.84375 0 L 5.921875 0 L 5.6875 -1.078125 L 5.625 -1.078125 C 5.289062 -0.660156 4.9375 -0.351562 4.5625 -0.15625 C 4.195312 0.0390625 3.695312 0.140625 3.0625 0.140625 C 2.375 0.140625 1.800781 -0.0390625 1.34375 -0.40625 C 0.882812 -0.769531 0.65625 -1.34375 0.65625 -2.125 C 0.65625 -2.882812 0.953125 -3.46875 1.546875 -3.875 C 2.148438 -4.289062 3.070312 -4.519531 4.3125 -4.5625 L 5.609375 -4.609375 L 5.609375 -5.0625 C 5.609375 -5.695312 5.46875 -6.132812 5.1875 -6.375 C 4.914062 -6.625 4.53125 -6.75 4.03125 -6.75 C 3.632812 -6.75 3.253906 -6.6875 2.890625 -6.5625 C 2.523438 -6.445312 2.1875 -6.316406 1.875 -6.171875 L 1.5 -7.109375 C 1.832031 -7.285156 2.222656 -7.4375 2.671875 -7.5625 C 3.128906 -7.695312 3.609375 -7.765625 4.109375 -7.765625 Z M 5.59375 -3.734375 L 4.46875 -3.6875 C 3.519531 -3.65625 2.863281 -3.503906 2.5 -3.234375 C 2.132812 -2.960938 1.953125 -2.585938 1.953125 -2.109375 C 1.953125 -1.679688 2.082031 -1.367188 2.34375 -1.171875 C 2.601562 -0.972656 2.9375 -0.875 3.34375 -0.875 C 3.976562 -0.875 4.507812 -1.050781 4.9375 -1.40625 C 5.375 -1.757812 5.59375 -2.304688 5.59375 -3.046875 Z M 5.59375 -3.734375 "/></g></g></g><g fill="#fefcfa" fill-opacity="1"><g transform="translate(203.360507, 133.81354)"><g><path d="M 3.921875 0.140625 C 2.972656 0.140625 2.210938 -0.1875 1.640625 -0.84375 C 1.066406 -1.507812 0.78125 -2.5 0.78125 -3.8125 C 0.78125 -5.113281 1.066406 -6.097656 1.640625 -6.765625 C 2.222656 -7.441406 2.988281 -7.78125 3.9375 -7.78125 C 4.519531 -7.78125 5 -7.671875 5.375 -7.453125 C 5.75 -7.234375 6.054688 -6.96875 6.296875 -6.65625 L 6.390625 -6.65625 C 6.367188 -6.78125 6.347656 -6.960938 6.328125 -7.203125 C 6.304688 -7.441406 6.296875 -7.632812 6.296875 -7.78125 L 6.296875 -10.828125 L 7.546875 -10.828125 L 7.546875 0 L 6.546875 0 L 6.359375 -1.03125 L 6.296875 -1.03125 C 6.066406 -0.707031 5.757812 -0.429688 5.375 -0.203125 C 5 0.0234375 4.515625 0.140625 3.921875 0.140625 Z M 4.125 -0.890625 C 4.925781 -0.890625 5.488281 -1.109375 5.8125 -1.546875 C 6.144531 -1.992188 6.3125 -2.664062 6.3125 -3.5625 L 6.3125 -3.796875 C 6.3125 -4.742188 6.15625 -5.46875 5.84375 -5.96875 C 5.53125 -6.476562 4.953125 -6.734375 4.109375 -6.734375 C 3.429688 -6.734375 2.921875 -6.460938 2.578125 -5.921875 C 2.242188 -5.390625 2.078125 -4.675781 2.078125 -3.78125 C 2.078125 -2.863281 2.242188 -2.148438 2.578125 -1.640625 C 2.921875 -1.140625 3.4375 -0.890625 4.125 -0.890625 Z M 4.125 -0.890625 "/></g></g></g><g fill="#fefcfa" fill-opacity="1"><g transform="translate(212.116909, 133.81354)"><g><path d="M 1.859375 -10.5 C 2.046875 -10.5 2.210938 -10.4375 2.359375 -10.3125 C 2.503906 -10.1875 2.578125 -9.984375 2.578125 -9.703125 C 2.578125 -9.429688 2.503906 -9.226562 2.359375 -9.09375 C 2.210938 -8.96875 2.046875 -8.90625 1.859375 -8.90625 C 1.640625 -8.90625 1.457031 -8.96875 1.3125 -9.09375 C 1.175781 -9.226562 1.109375 -9.429688 1.109375 -9.703125 C 1.109375 -9.984375 1.175781 -10.1875 1.3125 -10.3125 C 1.457031 -10.4375 1.640625 -10.5 1.859375 -10.5 Z M 2.46875 -7.640625 L 2.46875 0 L 1.21875 0 L 1.21875 -7.640625 Z M 2.46875 -7.640625 "/></g></g></g><g fill="#fefcfa" fill-opacity="1"><g transform="translate(215.790321, 133.81354)"><g><path d="M 4.890625 -7.78125 C 5.796875 -7.78125 6.484375 -7.554688 6.953125 -7.109375 C 7.421875 -6.660156 7.65625 -5.945312 7.65625 -4.96875 L 7.65625 0 L 6.40625 0 L 6.40625 -4.890625 C 6.40625 -6.109375 5.835938 -6.71875 4.703125 -6.71875 C 3.859375 -6.71875 3.273438 -6.476562 2.953125 -6 C 2.628906 -5.53125 2.46875 -4.851562 2.46875 -3.96875 L 2.46875 0 L 1.21875 0 L 1.21875 -7.640625 L 2.21875 -7.640625 L 2.40625 -6.59375 L 2.484375 -6.59375 C 2.722656 -7 3.0625 -7.296875 3.5 -7.484375 C 3.9375 -7.679688 4.398438 -7.78125 4.890625 -7.78125 Z M 4.890625 -7.78125 "/></g></g></g><g fill="#fefcfa" fill-opacity="1"><g transform="translate(224.589441, 133.81354)"><g><path d="M 3.921875 -7.78125 C 4.421875 -7.78125 4.875 -7.679688 5.28125 -7.484375 C 5.6875 -7.296875 6.03125 -7.007812 6.3125 -6.625 L 6.390625 -6.625 L 6.5625 -7.640625 L 7.546875 -7.640625 L 7.546875 0.125 C 7.546875 1.21875 7.269531 2.039062 6.71875 2.59375 C 6.164062 3.144531 5.300781 3.421875 4.125 3.421875 C 3.007812 3.421875 2.09375 3.257812 1.375 2.9375 L 1.375 1.78125 C 2.132812 2.175781 3.078125 2.375 4.203125 2.375 C 4.859375 2.375 5.375 2.179688 5.75 1.796875 C 6.125 1.410156 6.3125 0.890625 6.3125 0.234375 L 6.3125 -0.078125 C 6.3125 -0.191406 6.316406 -0.351562 6.328125 -0.5625 C 6.335938 -0.78125 6.347656 -0.929688 6.359375 -1.015625 L 6.296875 -1.015625 C 5.785156 -0.242188 5 0.140625 3.9375 0.140625 C 2.945312 0.140625 2.171875 -0.203125 1.609375 -0.890625 C 1.054688 -1.585938 0.78125 -2.5625 0.78125 -3.8125 C 0.78125 -5.019531 1.054688 -5.984375 1.609375 -6.703125 C 2.171875 -7.421875 2.941406 -7.78125 3.921875 -7.78125 Z M 4.09375 -6.71875 C 3.457031 -6.71875 2.960938 -6.460938 2.609375 -5.953125 C 2.253906 -5.453125 2.078125 -4.734375 2.078125 -3.796875 C 2.078125 -2.847656 2.25 -2.125 2.59375 -1.625 C 2.9375 -1.132812 3.445312 -0.890625 4.125 -0.890625 C 4.882812 -0.890625 5.441406 -1.09375 5.796875 -1.5 C 6.148438 -1.914062 6.328125 -2.582031 6.328125 -3.5 L 6.328125 -3.8125 C 6.328125 -4.84375 6.144531 -5.582031 5.78125 -6.03125 C 5.425781 -6.488281 4.863281 -6.71875 4.09375 -6.71875 Z M 4.09375 -6.71875 "/></g></g></g><g fill="#fefcfa" fill-opacity="1"><g transform="translate(233.345855, 133.81354)"><g/></g></g><g fill="#fefcfa" fill-opacity="1"><g transform="translate(237.047738, 133.81354)"><g><path d="M 4.609375 0 L 3.3125 0 L 3.3125 -9.046875 L 0.140625 -9.046875 L 0.140625 -10.171875 L 7.765625 -10.171875 L 7.765625 -9.046875 L 4.609375 -9.046875 Z M 4.609375 0 "/></g></g></g><g fill="#fefcfa" fill-opacity="1"><g transform="translate(244.964083, 133.81354)"><g><path d="M 4.15625 -7.78125 C 4.800781 -7.78125 5.363281 -7.632812 5.84375 -7.34375 C 6.320312 -7.0625 6.6875 -6.660156 6.9375 -6.140625 C 7.1875 -5.628906 7.3125 -5.023438 7.3125 -4.328125 L 7.3125 -3.578125 L 2.078125 -3.578125 C 2.097656 -2.710938 2.316406 -2.050781 2.734375 -1.59375 C 3.160156 -1.144531 3.753906 -0.921875 4.515625 -0.921875 C 5.003906 -0.921875 5.4375 -0.96875 5.8125 -1.0625 C 6.1875 -1.15625 6.570312 -1.285156 6.96875 -1.453125 L 6.96875 -0.359375 C 6.582031 -0.179688 6.195312 -0.0546875 5.8125 0.015625 C 5.4375 0.0976562 4.984375 0.140625 4.453125 0.140625 C 3.722656 0.140625 3.082031 -0.00390625 2.53125 -0.296875 C 1.976562 -0.585938 1.546875 -1.023438 1.234375 -1.609375 C 0.929688 -2.191406 0.78125 -2.910156 0.78125 -3.765625 C 0.78125 -4.597656 0.921875 -5.3125 1.203125 -5.90625 C 1.484375 -6.507812 1.878906 -6.972656 2.390625 -7.296875 C 2.898438 -7.617188 3.488281 -7.78125 4.15625 -7.78125 Z M 4.140625 -6.75 C 3.546875 -6.75 3.070312 -6.554688 2.71875 -6.171875 C 2.375 -5.785156 2.171875 -5.253906 2.109375 -4.578125 L 6 -4.578125 C 5.988281 -5.222656 5.832031 -5.742188 5.53125 -6.140625 C 5.238281 -6.546875 4.773438 -6.75 4.140625 -6.75 Z M 4.140625 -6.75 "/></g></g></g><g fill="#fefcfa" fill-opacity="1"><g transform="translate(252.99436, 133.81354)"><g><path d="M 4.28125 0.140625 C 3.59375 0.140625 2.988281 0.00390625 2.46875 -0.265625 C 1.945312 -0.546875 1.535156 -0.972656 1.234375 -1.546875 C 0.929688 -2.128906 0.78125 -2.875 0.78125 -3.78125 C 0.78125 -4.71875 0.929688 -5.476562 1.234375 -6.0625 C 1.546875 -6.65625 1.972656 -7.085938 2.515625 -7.359375 C 3.054688 -7.640625 3.671875 -7.78125 4.359375 -7.78125 C 4.742188 -7.78125 5.117188 -7.738281 5.484375 -7.65625 C 5.847656 -7.570312 6.144531 -7.476562 6.375 -7.375 L 5.984375 -6.328125 C 5.753906 -6.410156 5.488281 -6.488281 5.1875 -6.5625 C 4.882812 -6.644531 4.597656 -6.6875 4.328125 -6.6875 C 2.828125 -6.6875 2.078125 -5.722656 2.078125 -3.796875 C 2.078125 -2.867188 2.257812 -2.160156 2.625 -1.671875 C 2.988281 -1.179688 3.535156 -0.9375 4.265625 -0.9375 C 4.671875 -0.9375 5.035156 -0.976562 5.359375 -1.0625 C 5.679688 -1.15625 5.972656 -1.257812 6.234375 -1.375 L 6.234375 -0.265625 C 5.984375 -0.140625 5.703125 -0.0390625 5.390625 0.03125 C 5.085938 0.101562 4.71875 0.140625 4.28125 0.140625 Z M 4.28125 0.140625 "/></g></g></g><g fill="#fefcfa" fill-opacity="1"><g transform="translate(259.82863, 133.81354)"><g><path d="M 2.46875 -10.828125 L 2.46875 -7.65625 C 2.46875 -7.269531 2.441406 -6.910156 2.390625 -6.578125 L 2.484375 -6.578125 C 2.722656 -6.972656 3.054688 -7.269531 3.484375 -7.46875 C 3.910156 -7.664062 4.367188 -7.765625 4.859375 -7.765625 C 5.773438 -7.765625 6.46875 -7.539062 6.9375 -7.09375 C 7.414062 -6.65625 7.65625 -5.945312 7.65625 -4.96875 L 7.65625 0 L 6.40625 0 L 6.40625 -4.890625 C 6.40625 -6.109375 5.835938 -6.71875 4.703125 -6.71875 C 3.847656 -6.71875 3.257812 -6.476562 2.9375 -6 C 2.625 -5.519531 2.46875 -4.835938 2.46875 -3.953125 L 2.46875 0 L 1.21875 0 L 1.21875 -10.828125 Z M 2.46875 -10.828125 "/></g></g></g><g fill="#fefcfa" fill-opacity="1"><g transform="translate(268.62775, 133.81354)"><g><path d="M 4.890625 -7.78125 C 5.796875 -7.78125 6.484375 -7.554688 6.953125 -7.109375 C 7.421875 -6.660156 7.65625 -5.945312 7.65625 -4.96875 L 7.65625 0 L 6.40625 0 L 6.40625 -4.890625 C 6.40625 -6.109375 5.835938 -6.71875 4.703125 -6.71875 C 3.859375 -6.71875 3.273438 -6.476562 2.953125 -6 C 2.628906 -5.53125 2.46875 -4.851562 2.46875 -3.96875 L 2.46875 0 L 1.21875 0 L 1.21875 -7.640625 L 2.21875 -7.640625 L 2.40625 -6.59375 L 2.484375 -6.59375 C 2.722656 -7 3.0625 -7.296875 3.5 -7.484375 C 3.9375 -7.679688 4.398438 -7.78125 4.890625 -7.78125 Z M 4.890625 -7.78125 "/></g></g></g><g fill="#fefcfa" fill-opacity="1"><g transform="translate(277.42687, 133.81354)"><g><path d="M 7.859375 -3.828125 C 7.859375 -2.566406 7.535156 -1.585938 6.890625 -0.890625 C 6.242188 -0.203125 5.378906 0.140625 4.296875 0.140625 C 3.617188 0.140625 3.015625 -0.0078125 2.484375 -0.3125 C 1.960938 -0.625 1.546875 -1.078125 1.234375 -1.671875 C 0.929688 -2.265625 0.78125 -2.984375 0.78125 -3.828125 C 0.78125 -5.097656 1.09375 -6.070312 1.71875 -6.75 C 2.351562 -7.4375 3.222656 -7.78125 4.328125 -7.78125 C 5.015625 -7.78125 5.625 -7.625 6.15625 -7.3125 C 6.6875 -7.007812 7.101562 -6.5625 7.40625 -5.96875 C 7.707031 -5.382812 7.859375 -4.671875 7.859375 -3.828125 Z M 2.078125 -3.828125 C 2.078125 -2.929688 2.253906 -2.21875 2.609375 -1.6875 C 2.972656 -1.15625 3.539062 -0.890625 4.3125 -0.890625 C 5.082031 -0.890625 5.648438 -1.15625 6.015625 -1.6875 C 6.378906 -2.21875 6.5625 -2.929688 6.5625 -3.828125 C 6.5625 -4.734375 6.378906 -5.441406 6.015625 -5.953125 C 5.648438 -6.460938 5.078125 -6.71875 4.296875 -6.71875 C 3.523438 -6.71875 2.960938 -6.460938 2.609375 -5.953125 C 2.253906 -5.441406 2.078125 -4.734375 2.078125 -3.828125 Z M 2.078125 -3.828125 "/></g></g></g><g fill="#fefcfa" fill-opacity="1"><g transform="translate(286.040903, 133.81354)"><g><path d="M 2.46875 0 L 1.21875 0 L 1.21875 -10.828125 L 2.46875 -10.828125 Z M 2.46875 0 "/></g></g></g><g fill="#fefcfa" fill-opacity="1"><g transform="translate(289.714316, 133.81354)"><g><path d="M 7.859375 -3.828125 C 7.859375 -2.566406 7.535156 -1.585938 6.890625 -0.890625 C 6.242188 -0.203125 5.378906 0.140625 4.296875 0.140625 C 3.617188 0.140625 3.015625 -0.0078125 2.484375 -0.3125 C 1.960938 -0.625 1.546875 -1.078125 1.234375 -1.671875 C 0.929688 -2.265625 0.78125 -2.984375 0.78125 -3.828125 C 0.78125 -5.097656 1.09375 -6.070312 1.71875 -6.75 C 2.351562 -7.4375 3.222656 -7.78125 4.328125 -7.78125 C 5.015625 -7.78125 5.625 -7.625 6.15625 -7.3125 C 6.6875 -7.007812 7.101562 -6.5625 7.40625 -5.96875 C 7.707031 -5.382812 7.859375 -4.671875 7.859375 -3.828125 Z M 2.078125 -3.828125 C 2.078125 -2.929688 2.253906 -2.21875 2.609375 -1.6875 C 2.972656 -1.15625 3.539062 -0.890625 4.3125 -0.890625 C 5.082031 -0.890625 5.648438 -1.15625 6.015625 -1.6875 C 6.378906 -2.21875 6.5625 -2.929688 6.5625 -3.828125 C 6.5625 -4.734375 6.378906 -5.441406 6.015625 -5.953125 C 5.648438 -6.460938 5.078125 -6.71875 4.296875 -6.71875 C 3.523438 -6.71875 2.960938 -6.460938 2.609375 -5.953125 C 2.253906 -5.441406 2.078125 -4.734375 2.078125 -3.828125 Z M 2.078125 -3.828125 "/></g></g></g><g fill="#fefcfa" fill-opacity="1"><g transform="translate(298.328326, 133.81354)"><g><path d="M 3.921875 -7.78125 C 4.421875 -7.78125 4.875 -7.679688 5.28125 -7.484375 C 5.6875 -7.296875 6.03125 -7.007812 6.3125 -6.625 L 6.390625 -6.625 L 6.5625 -7.640625 L 7.546875 -7.640625 L 7.546875 0.125 C 7.546875 1.21875 7.269531 2.039062 6.71875 2.59375 C 6.164062 3.144531 5.300781 3.421875 4.125 3.421875 C 3.007812 3.421875 2.09375 3.257812 1.375 2.9375 L 1.375 1.78125 C 2.132812 2.175781 3.078125 2.375 4.203125 2.375 C 4.859375 2.375 5.375 2.179688 5.75 1.796875 C 6.125 1.410156 6.3125 0.890625 6.3125 0.234375 L 6.3125 -0.078125 C 6.3125 -0.191406 6.316406 -0.351562 6.328125 -0.5625 C 6.335938 -0.78125 6.347656 -0.929688 6.359375 -1.015625 L 6.296875 -1.015625 C 5.785156 -0.242188 5 0.140625 3.9375 0.140625 C 2.945312 0.140625 2.171875 -0.203125 1.609375 -0.890625 C 1.054688 -1.585938 0.78125 -2.5625 0.78125 -3.8125 C 0.78125 -5.019531 1.054688 -5.984375 1.609375 -6.703125 C 2.171875 -7.421875 2.941406 -7.78125 3.921875 -7.78125 Z M 4.09375 -6.71875 C 3.457031 -6.71875 2.960938 -6.460938 2.609375 -5.953125 C 2.253906 -5.453125 2.078125 -4.734375 2.078125 -3.796875 C 2.078125 -2.847656 2.25 -2.125 2.59375 -1.625 C 2.9375 -1.132812 3.445312 -0.890625 4.125 -0.890625 C 4.882812 -0.890625 5.441406 -1.09375 5.796875 -1.5 C 6.148438 -1.914062 6.328125 -2.582031 6.328125 -3.5 L 6.328125 -3.8125 C 6.328125 -4.84375 6.144531 -5.582031 5.78125 -6.03125 C 5.425781 -6.488281 4.863281 -6.71875 4.09375 -6.71875 Z M 4.09375 -6.71875 "/></g></g></g><g fill="#fefcfa" fill-opacity="1"><g transform="translate(307.084739, 133.81354)"><g><path d="M 0.015625 -7.640625 L 1.359375 -7.640625 L 3 -3.296875 C 3.144531 -2.898438 3.273438 -2.53125 3.390625 -2.1875 C 3.503906 -1.851562 3.585938 -1.53125 3.640625 -1.21875 L 3.703125 -1.21875 C 3.765625 -1.445312 3.851562 -1.753906 3.96875 -2.140625 C 4.09375 -2.523438 4.222656 -2.914062 4.359375 -3.3125 L 5.90625 -7.640625 L 7.265625 -7.640625 L 3.96875 1.046875 C 3.695312 1.773438 3.351562 2.351562 2.9375 2.78125 C 2.519531 3.207031 1.941406 3.421875 1.203125 3.421875 C 0.972656 3.421875 0.769531 3.40625 0.59375 3.375 C 0.425781 3.351562 0.28125 3.332031 0.15625 3.3125 L 0.15625 2.3125 C 0.257812 2.332031 0.382812 2.347656 0.53125 2.359375 C 0.675781 2.378906 0.832031 2.390625 1 2.390625 C 1.4375 2.390625 1.785156 2.265625 2.046875 2.015625 C 2.316406 1.773438 2.53125 1.453125 2.6875 1.046875 L 3.09375 0.03125 Z M 0.015625 -7.640625 "/></g></g></g></svg>