<?xml version="1.0" encoding="UTF-8"?>
<svg width="16px" height="16px" viewBox="0 0 16 16" version="1.1" xmlns="http://www.w3.org/2000/svg" xmlns:xlink="http://www.w3.org/1999/xlink">
    <title>sub-nav-ico</title>
    <g id="页面-1" stroke="none" stroke-width="1" fill="none" fill-rule="evenodd">
        <g id="首页-w4b-补充" transform="translate(-383, -2348)" fill-rule="nonzero" stroke="#6D6F78">
            <g id="编组-12" transform="translate(367, 2276)">
                <g id="编组-7" transform="translate(8, 56)">
                    <g id="编组" transform="translate(8, 16)">
                        <path d="M7.50920383,5 L8.49079617,5 C9.31669727,5 9.65091978,5.09282561 9.9768457,5.2671327 C10.3027716,5.4414398 10.5585602,5.69722837 10.7328673,6.0231543 C10.9071744,6.34908022 11,6.68330273 11,7.50920383 L11,8.49079617 C11,9.31669727 10.9071744,9.65091978 10.7328673,9.9768457 C10.5585602,10.3027716 10.3027716,10.5585602 9.9768457,10.7328673 C9.65091978,10.9071744 9.31669727,11 8.49079617,11 L7.50920383,11 C6.68330273,11 6.34908022,10.9071744 6.0231543,10.7328673 C5.69722837,10.5585602 5.4414398,10.3027716 5.2671327,9.9768457 C5.09282561,9.65091978 5,9.31669727 5,8.49079617 L5,7.50920383 C5,6.68330273 5.09282561,6.34908022 5.2671327,6.0231543 C5.4414398,5.69722837 5.69722837,5.4414398 6.0231543,5.2671327 C6.34908022,5.09282561 6.68330273,5 7.50920383,5 Z" id="矩形" transform="translate(8, 8) rotate(45) translate(-8, -8)"></path>
                    </g>
                </g>
            </g>
        </g>
    </g>
</svg>