<?xml version="1.0" encoding="UTF-8"?>
<svg width="24px" height="24px" viewBox="0 0 24 24" version="1.1" xmlns="http://www.w3.org/2000/svg" xmlns:xlink="http://www.w3.org/1999/xlink">
    <title>top-service</title>
    <g id="页面-1" stroke="none" stroke-width="1" fill="none" fill-rule="evenodd">
        <g id="首页-w4b" transform="translate(-1869, -38)">
            <g id="right" transform="translate(1500, 32)">
                <g id="编组-15备份" transform="translate(369, 3)">
                    <g id="编组" transform="translate(0, 3)">
                        <path d="M8.625,22.5 C7.12202932,21.6558158 5.84458032,20.5380145 4.792653,19.1465959 C3.74072568,17.7551773 3.01466268,15.078015 2.614464,11.1151091 C2.614464,8.78997145 4.792653,0.895035514 12.75,0.895035514 C22.1679517,0.895035514 21.6052845,8.78997145 21.6052845,11.1151091 L21.6052845,13.8680971" id="路径" stroke="#000" stroke-width="1.8" stroke-linecap="round"></path>
                        <path d="M3.69408851,1.24003625 C5.4410706,0.559403875 7.822763,1.21617518 9.01874507,2.49443554 C9.84717619,3.37985908 10.1464616,4.65906967 9.91660137,6.33206733" id="路径备份" stroke="#000" stroke-width="1.8" stroke-linecap="round" transform="translate(6.8428, 3.6496) scale(-1, 1) translate(-6.8428, -3.6496)"></path>
                        <path d="M3.86345414,16.3756312 C3.0295687,19.022227 4.91156157,20.6457519 4.73467168,20.9213395 C4.55778179,21.1969271 2.65160169,21.3455093 2.37734586,19.5486614" id="路径备份-3" stroke="#000" stroke-width="1.8" stroke-linecap="round" transform="translate(3.5619, 18.7315) scale(-1, 1) translate(-3.5619, -18.7315)"></path>
                        <rect id="矩形" fill="#000" x="7.5" y="12" width="2.25" height="3" rx="0.75"></rect>
                        <path d="M1.5,9 L3,9 L3,9 L3,16.5 L1.5,16.5 C0.671572875,16.5 5.07265313e-17,15.8284271 0,15 L0,10.5 C-1.01453063e-16,9.67157288 0.671572875,9 1.5,9 Z" id="矩形" fill="#000"></path>
                        <path d="M22.5,9 L24,9 L24,9 L24,16.5 L22.5,16.5 C21.6715729,16.5 21,15.8284271 21,15 L21,10.5 C21,9.67157288 21.6715729,9 22.5,9 Z" id="矩形备份" fill="#000" transform="translate(22.5, 12.75) scale(-1, 1) translate(-22.5, -12.75)"></path>
                        <rect id="矩形备份-37" fill="#000" x="15" y="12" width="2.25" height="3" rx="0.75"></rect>
                        <path d="M15.4270289,5.25281499 C15.4711105,5.24366493 14.3209082,6.0071577 11.9764221,7.5432933 C8.45969294,9.8474967 4.62065201,10.0049584 3.56599685,12 C2.86289341,13.3300278 2.86289341,15.1498354 3.56599685,17.4594229" id="路径" stroke="#000" stroke-width="1.5" stroke-linecap="round"></path>
                        <path d="M21.6052845,5.25289723 C21.6075898,6.68445376 20.6793354,7.93348802 18.8205215,9 C16.9617075,10.066512 15.830539,12.566512 15.427016,16.5" id="路径备份-2" stroke="#000" stroke-width="1.5" stroke-linecap="round" transform="translate(18.5162, 10.8764) scale(-1, 1) translate(-18.5162, -10.8764)"></path>
                        <path d="M22.0552839,15.1745282 C22.0552839,15.1745282 22.0552839,15.1745282 22.0552839,15.1745282 C21.4386526,19.2027774 18.1075669,22.2626556 14.0415591,22.5357983 L11.9764221,22.6745282 L11.9764221,22.6745282" id="路径-2" stroke="#000" stroke-width="1.8" stroke-linecap="round"></path>
                        <path d="M12,21 L13.5,21 C14.3284271,21 15,21.6715729 15,22.5 C15,23.3284271 14.3284271,24 13.5,24 L12,24 C11.1715729,24 10.5,23.3284271 10.5,22.5 C10.5,21.6715729 11.1715729,21 12,21 Z" id="矩形" fill="#000"></path>
                    </g>
                </g>
            </g>
        </g>
    </g>
</svg>