<?xml version="1.0" encoding="UTF-8"?>
<svg width="24px" height="24px" viewBox="0 0 24 24" version="1.1" xmlns="http://www.w3.org/2000/svg" xmlns:xlink="http://www.w3.org/1999/xlink">
    <title>top-language</title>
    <g id="页面-1" stroke="none" stroke-width="1" fill="none" fill-rule="evenodd">
        <g id="首页-w4b" transform="translate(-1821, -38)" fill-rule="nonzero" stroke="#6D6F78">
            <g id="right" transform="translate(1500, 32)">
                <g id="编组" transform="translate(321, 6)">
                    <path d="M12,0.9 C15.0655078,0.9 17.8405226,2.14222109 19.8491508,4.15084923 C21.8577789,6.15947737 23.1,8.93449219 23.1,12 C23.1,15.0655078 21.8577789,17.8405226 19.8491508,19.8491508 C17.8405226,21.8577789 15.0655078,23.1 12,23.1 C8.93449219,23.1 6.15947737,21.8577789 4.15084923,19.8491508 C2.14222109,17.8405226 0.9,15.0655078 0.9,12 C0.9,8.93449219 2.14222109,6.15947737 4.15084923,4.15084923 C6.15947737,2.14222109 8.93449219,0.9 12,0.9 Z" id="路径备份" stroke-width="1.8"></path>
                    <path d="M9.38056102,15.2253097 C9.72515613,15.2481552 9.96772157,15.4865421 10.1965028,15.6632595 C10.4151648,15.8321605 10.6246745,15.9862758 10.8326304,16.0881243 C11.2160706,16.275918 11.5724231,16.641844 11.9090708,16.9682327 C12.0942029,17.1477231 12.272307,17.3207713 12.5521874,17.5986697 L13.1153775,18.1617477 C13.5136823,18.5620217 14.054972,19.109214 14.8304444,19.8966077 C13.8804079,20.7499624 13.3521648,21.3693572 12.8911635,23.3835743 L12.933168,23.2118628 C12.8505655,23.2186432 12.7677101,23.2245315 12.6846113,23.2295181 L12.6583001,23.0205814 C12.6038261,22.6068019 12.5168199,22.0620647 12.3388023,21.2002692 C12.3388023,21.2002692 9.59762405,19.4747405 9.59520043,18.2743668 C9.59520196,17.7270682 9.66151565,17.3039387 9.70837581,16.9989873 C9.78004641,16.5325773 9.78475438,16.2147386 8.84520196,15.4746696 C8.64317908,15.4746696 8.4448694,15.4983148 8.24212707,15.5246409 C8.07004614,15.5469856 7.89169,15.5770462 7.69368244,15.5636942 C7.6822989,15.5415259 7.67078926,15.5196101 7.6591607,15.4979444 C7.75713971,15.5175096 7.84530576,15.5273996 7.92059558,15.5273996 C8.11057932,15.5273996 8.38255087,15.4644261 8.68827762,15.3753098 C8.90482416,15.3121887 9.15158628,15.2293847 9.38056102,15.2253097 Z M22.3254614,7.66930133 L22.3897942,7.67734855 C22.9440035,9.00814701 23.25,10.4682947 23.25,12 C23.25,13.3554317 23.0103809,14.6548283 22.5711846,15.8581425 L21.6132953,16.7081089 C21.4866493,16.3032465 21.307355,15.9197571 21.064878,15.5744449 C20.74928,15.1205652 20.383921,14.6623329 20.014475,14.3042226 C19.729465,14.0285511 19.4561049,13.6911292 19.3162062,13.2810664 C19.2153986,12.9855854 19.1899277,12.6516204 19.2832361,12.2796262 C19.4767996,11.5079438 20.1255694,10.629807 21.4200874,9.60332552 C21.595255,9.46442724 21.765083,9.33642237 21.92978,9.21887491 C21.8165642,9.10167112 21.7251971,8.94369722 21.6599072,8.76201502 C21.5424082,8.43505091 21.5389225,8.11354885 22.3254614,7.66930133 Z M12,0.75 C12.274742,0.75 12.5471817,0.759845009 12.8169857,0.77920156 C13.0024688,0.947254968 13.1042571,1.14264228 13.0926326,1.42741074 C12.9714101,1.49829576 12.7853627,1.60379141 12.1365953,2.38606684 C12.0975963,2.95864708 12.0456507,3.63069438 11.8904127,4.47419689 C11.7351591,4.61998572 11.5069155,4.65951279 11.305353,4.72040445 L11.2487118,4.73703832 L11.1342298,4.76964777 C10.6177363,4.91925889 10.1038211,5.15118693 10.4212198,7.23086924 C10.7886062,7.51451314 11.3812991,7.73162015 12.0842586,7.73162015 C12.3858222,7.73162015 12.7384595,7.80459168 13.7103707,6.97836427 C13.5284287,7.21220172 13.2894964,7.5201963 13.1081651,7.85078942 C12.8625736,8.29853812 12.587139,8.80074718 12.3061225,9.3321872 L12.2555309,9.44166442 C12.1182775,9.78497239 12.1095077,10.2641367 12.1695598,10.9323404 L12.186,11.107 L12.1634635,11.0634289 L12.1014188,10.949883 C11.9502239,10.6845345 11.7264864,10.403573 10.8511102,9.83909034 C10.7820687,9.84709465 10.5491464,9.86567437 10.0238483,9.77884015 C9.71784821,9.65234498 9.30627825,9.38540138 6.78718915,11.5367461 C6.80263194,11.822376 6.87104116,12.3825159 6.97361401,13.207801 C7.0314993,13.6735369 7.10025161,14.2266825 7.17578435,14.8654691 L7.165,14.78 L7.02817353,14.6291852 C6.34031995,13.913669 5.64063822,13.7501162 5.52158702,13.7334297 L5.50621383,13.7319231 C5.25254538,13.7278862 5.04361846,13.6758093 4.87734873,13.5666431 C4.69296537,13.4455841 4.56672673,13.2614822 4.46790837,13.0469336 C4.08417338,12.2137909 4.08971515,10.9812378 4.08971515,9.80396476 C4.08971515,9.19423359 3.80081627,8.81325665 3.34205184,8.53496786 C3.02554449,8.34390343 2.67008473,8.25 2.3142657,8.25 C2.03746784,8.25 1.75832171,8.30669631 1.33263005,8.42613036 C1.88794439,6.75705865 2.82750313,5.2620633 4.04478321,4.04478321 C6.08055406,2.00901236 8.89306641,0.75 12,0.75 Z" id="形状" stroke-width="1.5"></path>
                </g>
            </g>
        </g>
    </g>
</svg>