<?xml version="1.0" encoding="UTF-8"?>
<svg width="24px" height="24px" viewBox="0 0 24 24" version="1.1" xmlns="http://www.w3.org/2000/svg" xmlns:xlink="http://www.w3.org/1999/xlink">
    <title>top-download</title>
    <g id="页面-1" stroke="none" stroke-width="1" fill="none" fill-rule="evenodd">
        <g id="首页-w4b" transform="translate(-1773, -38)" stroke="#000" stroke-width="1.8">
            <g id="right" transform="translate(1500, 32)">
                <g id="编组" transform="translate(273, 6)">
                    <path d="M18,0.9 C18.9941125,0.9 19.8941125,1.30294373 20.5455844,1.95441559 C21.1970563,2.60588745 21.6,3.50588745 21.6,4.5 L21.6,19.5 C21.6,20.4941125 21.1970563,21.3941125 20.5455844,22.0455844 C19.8941125,22.6970563 18.9941125,23.1 18,23.1 L6,23.1 C5.00588745,23.1 4.10588745,22.6970563 3.45441559,22.0455844 C2.80294373,21.3941125 2.4,20.4941125 2.4,19.5 L2.4,4.5 C2.4,3.50588745 2.80294373,2.60588745 3.45441559,1.95441559 C4.10588745,1.30294373 5.00588745,0.9 6,0.9 L18,0.9 Z" id="矩形" fill-rule="nonzero"></path>
                    <line x1="7.5" y1="18" x2="16.5" y2="18" id="路径-32" stroke-linecap="round"></line>
                    <polyline id="路径-32备份-2" stroke-linecap="round" stroke-linejoin="round" points="9 12 12 15 15 12"></polyline>
                    <line x1="12" y1="5.09380638" x2="12" y2="13.5" id="路径-32备份" stroke-linecap="round"></line>
                </g>
            </g>
        </g>
    </g>
</svg>