<svg xmlns="http://www.w3.org/2000/svg" id="flag-icons-tw" viewBox="0 0 640 480">
   <path fill="#de2810" style="fill: var(--color12, #de2810)" d="M0 0.486h45.091v30.061h-45.091v-30.061z"></path>
         <path fill="#f5f5f5" style="fill: var(--color2, #f5f5f5)" d="M19.399 16.673c-0.996 0.010-2.114-0.309-3.093-1.388-0.068-0.074-0.058-0.192 0.019-0.257l0-0c0.074-0.063 0.184-0.053 0.25 0.019 1.493 1.64 3.344 1.352 4.45 0.956-0.408 0.018-0.922-0.012-1.252-0.23-1.379-0.907-0.754-1.871-1.671-3.037-0.91-1.158-1.729-1.13-3.019-0.935-1.277 0.193-1.683-0.743-1.81-1.263-0.023-0.093-0.153-0.099-0.186-0.009-1.591 4.299 3.193 9.619 8.106 5.794-0.485 0.178-1.109 0.342-1.795 0.349zM15.814 15.214c-0.028 0.077-0.137 0.074-0.161-0.005l-0.183-0.604-0.631-0.022c-0.082-0.003-0.113-0.108-0.046-0.155l0.518-0.361-0.174-0.607c-0.023-0.078 0.068-0.14 0.133-0.091l0.503 0.381 0.523-0.353c0.068-0.046 0.155 0.021 0.128 0.098l-0.207 0.596 0.497 0.389c0.064 0.050 0.028 0.154-0.054 0.152l-0.631-0.012-0.216 0.593z"></path>
         <path fill="#f5f5f5" style="fill: var(--color2, #f5f5f5)" d="M22.923 13.817c0.79-0.605 1.876-1.021 3.308-0.744 0.099 0.019 0.161 0.119 0.139 0.217l-0 0c-0.022 0.095-0.116 0.153-0.212 0.135-2.178-0.417-3.487 0.923-4.134 1.903 0.316-0.26 0.745-0.543 1.139-0.567 1.647-0.102 1.726 1.045 3.158 1.428 1.423 0.381 2.061-0.133 2.976-1.063 0.906-0.92 1.793-0.415 2.206-0.075 0.074 0.061 0.181-0.012 0.154-0.104-1.305-4.395-8.324-5.782-9.961 0.225 0.281-0.433 0.682-0.939 1.227-1.355zM26.666 12.834c-0.024-0.078 0.066-0.142 0.132-0.093l0.509 0.373 0.518-0.361c0.067-0.047 0.155 0.019 0.129 0.096l-0.198 0.599 0.503 0.381c0.065 0.049 0.030 0.153-0.052 0.153l-0.631-0.003-0.207 0.596c-0.027 0.077-0.136 0.076-0.161-0.002l-0.192-0.601-0.631-0.013c-0.082-0.002-0.114-0.106-0.048-0.154l0.512-0.368-0.183-0.604z"></path>
         <path fill="#f5f5f5" style="fill: var(--color2, #f5f5f5)" d="M20.286 14.231c-0.388-0.917-0.519-2.072 0.107-3.389 0.043-0.091 0.155-0.127 0.244-0.080l0 0c0.087 0.045 0.119 0.15 0.078 0.239-0.948 2.005 0.022 3.607 0.809 4.479-0.172-0.371-0.339-0.857-0.264-1.245 0.314-1.62 1.443-1.41 2.173-2.7 0.725-1.283 0.387-2.029-0.284-3.147-0.665-1.107 0.047-1.84 0.479-2.154 0.077-0.056 0.033-0.179-0.062-0.175-4.581 0.164-7.68 6.613-2.274 9.701-0.349-0.38-0.738-0.895-1.006-1.527zM20.272 10.361c-0.082 0.003-0.121-0.099-0.057-0.151l0.489-0.399-0.22-0.592c-0.028-0.077 0.057-0.145 0.126-0.101l0.531 0.341 0.495-0.392c0.064-0.051 0.156 0.009 0.135 0.088l-0.161 0.61 0.525 0.35c0.068 0.045 0.039 0.151-0.042 0.156l-0.63 0.036-0.17 0.608c-0.022 0.079-0.132 0.084-0.161 0.008l-0.229-0.588-0.63 0.026z"></path>
         <path fill="#f5f5f5" style="fill: var(--color2, #f5f5f5)" d="M23.856 16.311c0.823 0.56 1.558 1.461 1.745 2.907 0.013 0.1-0.062 0.191-0.162 0.2h-0.001c-0.097 0.009-0.182-0.062-0.194-0.158-0.289-2.199-1.972-3.021-3.105-3.327 0.346 0.218 0.749 0.537 0.896 0.904 0.614 1.532-0.45 1.967-0.364 3.447 0.085 1.471 0.774 1.915 1.944 2.492 1.158 0.571 0.957 1.572 0.764 2.071-0.035 0.089 0.069 0.168 0.147 0.114 3.762-2.619 2.875-9.719-3.342-9.386 0.5 0.13 1.106 0.353 1.673 0.739zM25.964 19.557c0.067-0.047 0.155 0.018 0.13 0.096l-0.195 0.6 0.505 0.379c0.065 0.049 0.031 0.153-0.051 0.153l-0.631 0-0.204 0.597c-0.026 0.077-0.136 0.076-0.161-0.001l-0.195-0.6-0.631-0.009c-0.082-0.001-0.115-0.106-0.049-0.154l0.51-0.371-0.186-0.603c-0.024-0.078 0.065-0.142 0.131-0.094l0.511 0.37 0.516-0.363z"></path>
         <path fill="#f5f5f5" style="fill: var(--color2, #f5f5f5)" d="M21.797 18.095c-0.284 0.954-0.917 1.929-2.238 2.547-0.091 0.043-0.2-0.001-0.24-0.093l-0-0c-0.038-0.090 0.003-0.192 0.092-0.234 2.007-0.944 2.278-2.797 2.225-3.97-0.103 0.396-0.284 0.877-0.588 1.129-1.272 1.051-2.010 0.17-3.394 0.702-1.375 0.528-1.589 1.32-1.782 2.61-0.191 1.277-1.206 1.39-1.74 1.358-0.096-0.006-0.139 0.117-0.064 0.175 3.64 2.787 10.133-0.219 7.924-6.040 0.028 0.515 0 1.16-0.195 1.817zM19.347 21.091c0.065 0.049 0.030 0.153-0.052 0.153l-0.631-0.003-0.207 0.596c-0.027 0.077-0.136 0.076-0.161-0.002l-0.192-0.601-0.631-0.013c-0.082-0.002-0.114-0.106-0.048-0.154l0.512-0.369-0.183-0.604c-0.024-0.078 0.066-0.142 0.132-0.093l0.509 0.373 0.518-0.361c0.067-0.047 0.155 0.019 0.129 0.096l-0.198 0.599 0.503 0.381z"></path>
      
</svg>
