<svg width="44" height="55" viewBox="0 0 44 55" fill="none" xmlns="http://www.w3.org/2000/svg">
<path fill-rule="evenodd" clip-rule="evenodd" d="M0 8.02083C0 3.59072 3.59072 0 8.02083 0H36.6667C37.2995 0 37.8125 0.513007 37.8125 1.14583C37.8125 1.77866 37.2995 2.29167 36.6667 2.29167H8.02083C4.85637 2.29167 2.29167 4.85637 2.29167 8.02083V52.7083H8.02083C8.65366 52.7083 9.16667 53.2213 9.16667 53.8542C9.16667 54.487 8.65366 55 8.02083 55H2.29167C1.02634 55 0 53.9737 0 52.7083V8.02083Z" fill="black"/>
<path fill-rule="evenodd" clip-rule="evenodd" d="M6.875 10.3125C6.875 9.67967 7.38801 9.16667 8.02083 9.16667H24.0625C24.6953 9.16667 25.2083 9.67967 25.2083 10.3125C25.2083 10.9453 24.6953 11.4583 24.0625 11.4583H8.02083C7.38801 11.4583 6.875 10.9453 6.875 10.3125Z" fill="black"/>
<path fill-rule="evenodd" clip-rule="evenodd" d="M6.875 17.1875C6.875 16.5547 7.38801 16.0417 8.02083 16.0417H24.0625C24.6953 16.0417 25.2083 16.5547 25.2083 17.1875C25.2083 17.8203 24.6953 18.3333 24.0625 18.3333H8.02083C7.38801 18.3333 6.875 17.8203 6.875 17.1875Z" fill="black"/>
<path fill-rule="evenodd" clip-rule="evenodd" d="M6.875 24.0625C6.875 23.4297 7.38801 22.9167 8.02083 22.9167H16.0417C16.6745 22.9167 17.1875 23.4297 17.1875 24.0625C17.1875 24.6953 16.6745 25.2083 16.0417 25.2083H8.02083C7.38801 25.2083 6.875 24.6953 6.875 24.0625Z" fill="black"/>
<path fill-rule="evenodd" clip-rule="evenodd" d="M36.6667 2.29167C34.1347 2.29167 32.0833 4.34303 32.0833 6.875H41.1778C40.9997 5.51387 40.5062 4.46257 39.8565 3.72326C39.0402 2.79442 37.9231 2.29167 36.6667 2.29167ZM32.0833 9.16667H42.3958C43.0287 9.16667 43.5417 8.65366 43.5417 8.02083C43.5417 5.63881 42.8301 3.6353 41.5779 2.21044C40.3202 0.779436 38.5727 0 36.6667 0C32.869 0 29.7917 3.07738 29.7917 6.875V29.7917C29.7917 30.4245 30.3047 30.9375 30.9375 30.9375C31.5703 30.9375 32.0833 30.4245 32.0833 29.7917V9.16667Z" fill="black"/>
<path fill-rule="evenodd" clip-rule="evenodd" d="M16.041 41.9687L41.8223 41.9687C42.3746 41.9687 42.8223 42.4165 42.8223 42.9687C42.8223 43.521 42.3746 43.9687 41.8223 43.9687L16.041 43.9687L16.041 41.9687Z" fill="black"/>
<path fill-rule="evenodd" clip-rule="evenodd" d="M23.2174 49.6667C22.8405 50.0704 22.2078 50.0923 21.804 49.7154L15.3587 43.6998C15.1561 43.5107 15.041 43.2459 15.041 42.9687C15.041 42.6916 15.1561 42.4268 15.3587 42.2377L21.804 36.2221C22.2078 35.8452 22.8405 35.8671 23.2174 36.2708C23.5942 36.6746 23.5724 37.3073 23.1686 37.6842L17.5066 42.9687L23.1686 48.2533C23.5724 48.6301 23.5942 49.2629 23.2174 49.6667Z" fill="black"/>
</svg>
