<svg width="44" height="56" viewBox="0 0 44 56" fill="none" xmlns="http://www.w3.org/2000/svg">
<path fill-rule="evenodd" clip-rule="evenodd" d="M0 8.02083C0 3.59072 3.62851 0 8.10526 0H37.0526C37.6921 0 38.2105 0.513007 38.2105 1.14583C38.2105 1.77866 37.6921 2.29167 37.0526 2.29167H8.10526C4.90749 2.29167 2.31579 4.85637 2.31579 8.02083V52.7083H8.10526C8.74475 52.7083 9.26316 53.2213 9.26316 53.8542C9.26316 54.487 8.74475 55 8.10526 55H2.31579C1.03714 55 0 53.9737 0 52.7083V8.02083Z" fill="black"/>
<path fill-rule="evenodd" clip-rule="evenodd" d="M6.94737 10.3125C6.94737 9.67967 7.46578 9.16667 8.10526 9.16667H24.3158C24.9553 9.16667 25.4737 9.67967 25.4737 10.3125C25.4737 10.9453 24.9553 11.4583 24.3158 11.4583H8.10526C7.46578 11.4583 6.94737 10.9453 6.94737 10.3125Z" fill="black"/>
<path fill-rule="evenodd" clip-rule="evenodd" d="M6.94737 17.1875C6.94737 16.5547 7.46578 16.0417 8.10526 16.0417H24.3158C24.9553 16.0417 25.4737 16.5547 25.4737 17.1875C25.4737 17.8203 24.9553 18.3333 24.3158 18.3333H8.10526C7.46578 18.3333 6.94737 17.8203 6.94737 17.1875Z" fill="black"/>
<path fill-rule="evenodd" clip-rule="evenodd" d="M6.94737 24.0625C6.94737 23.4297 7.46578 22.9167 8.10526 22.9167H16.2105C16.85 22.9167 17.3684 23.4297 17.3684 24.0625C17.3684 24.6953 16.85 25.2083 16.2105 25.2083H8.10526C7.46578 25.2083 6.94737 24.6953 6.94737 24.0625Z" fill="black"/>
<path fill-rule="evenodd" clip-rule="evenodd" d="M37.0526 2.29167C34.494 2.29167 32.4211 4.34303 32.4211 6.875H41.6113C41.4313 5.51387 40.9326 4.46257 40.276 3.72326C39.4511 2.79442 38.3223 2.29167 37.0526 2.29167ZM32.4211 9.16667H42.8421C43.4816 9.16667 44 8.65366 44 8.02083C44 5.63881 43.281 3.6353 42.0155 2.21044C40.7447 0.779436 38.9787 0 37.0526 0C33.215 0 30.1053 3.07738 30.1053 6.875V29.7917C30.1053 30.4245 30.6237 30.9375 31.2632 30.9375C31.9026 30.9375 32.4211 30.4245 32.4211 29.7917V9.16667Z" fill="black"/>
<path fill-rule="evenodd" clip-rule="evenodd" d="M42.1094 49.9843L16.3281 49.9843C15.7758 49.9843 15.3281 49.5365 15.3281 48.9843C15.3281 48.432 15.7758 47.9843 16.3281 47.9843L42.1094 47.9843L42.1094 49.9843Z" fill="black"/>
<path fill-rule="evenodd" clip-rule="evenodd" d="M34.933 42.2864C35.3098 41.8827 35.9426 41.8609 36.3464 42.2377L42.7917 48.2533C42.9943 48.4425 43.1094 48.7072 43.1094 48.9844C43.1094 49.2616 42.9943 49.5263 42.7917 49.7154L36.3464 55.7311C35.9426 56.1079 35.3098 56.0861 34.933 55.6823C34.5562 55.2786 34.578 54.6458 34.9817 54.269L40.6438 48.9844L34.9817 43.6998C34.578 43.323 34.5562 42.6902 34.933 42.2864Z" fill="black"/>
<path fill-rule="evenodd" clip-rule="evenodd" d="M16.3281 35.9532L42.1094 35.9532C42.6617 35.9532 43.1094 36.401 43.1094 36.9532C43.1094 37.5055 42.6617 37.9532 42.1094 37.9532L16.3281 37.9532L16.3281 35.9532Z" fill="black"/>
<path fill-rule="evenodd" clip-rule="evenodd" d="M23.5045 43.6511C23.1277 44.0548 22.4949 44.0766 22.0911 43.6998L15.6458 37.6842C15.4432 37.495 15.3281 37.2303 15.3281 36.9531C15.3281 36.6759 15.4432 36.4112 15.6458 36.2221L22.0911 30.2064C22.4949 29.8296 23.1277 29.8514 23.5045 30.2552C23.8813 30.6589 23.8595 31.2917 23.4558 31.6685L17.7937 36.9531L23.4558 42.2377C23.8595 42.6145 23.8813 43.2473 23.5045 43.6511Z" fill="black"/>
</svg>
