<svg width="50" height="50" viewBox="0 0 50 50" fill="none" xmlns="http://www.w3.org/2000/svg">
<path fill-rule="evenodd" clip-rule="evenodd" d="M5.60417 4.35084C3.91192 4.35084 2.54167 5.72109 2.54167 7.41334V42.1217C2.54167 43.8139 3.91192 45.1842 5.60417 45.1842H44.3958C46.0881 45.1842 47.4583 43.8139 47.4583 42.1217V7.41334C47.4583 5.72109 46.0881 4.35084 44.3958 4.35084H5.60417ZM0.5 7.41334C0.5 4.59351 2.78433 2.30917 5.60417 2.30917H44.3958C47.2157 2.30917 49.5 4.59351 49.5 7.41334V42.1217C49.5 44.9415 47.2157 47.2258 44.3958 47.2258H5.60417C2.78433 47.2258 0.5 44.9415 0.5 42.1217V7.41334Z" fill="#1B73EE"/>
<path fill-rule="evenodd" clip-rule="evenodd" d="M0.5 13.5383C0.5 12.9745 0.957043 12.5175 1.52083 12.5175H48.4792C49.043 12.5175 49.5 12.9745 49.5 13.5383C49.5 14.1021 49.043 14.5592 48.4792 14.5592H1.52083C0.957043 14.5592 0.5 14.1021 0.5 13.5383Z" fill="#1B73EE"/>
<path fill-rule="evenodd" clip-rule="evenodd" d="M8.66667 8.94459C8.94287 8.94459 9.17288 8.72118 9.17698 8.44091L8.15631 8.42601C8.15627 8.42873 8.15625 8.43145 8.15625 8.43417C8.15625 8.71621 8.38462 8.94459 8.66667 8.94459ZM8.15631 8.42601C8.16067 8.14774 8.38735 7.92376 8.66667 7.92376C8.94598 7.92376 9.17266 8.14774 9.17702 8.42601L8.15631 8.42601ZM7.13553 8.41111C7.14778 7.57141 7.83105 6.90292 8.66667 6.90292C9.51221 6.90292 10.1979 7.58863 10.1979 8.43417C10.1979 9.27971 9.51221 9.96542 8.66667 9.96542C7.82113 9.96542 7.13542 9.27971 7.13542 8.43417L7.13553 8.41111Z" fill="#1B73EE"/>
<path fill-rule="evenodd" clip-rule="evenodd" d="M14.7917 8.94459C15.0679 8.94459 15.2979 8.72118 15.302 8.44091L14.2813 8.42601C14.2813 8.42873 14.2812 8.43145 14.2812 8.43417C14.2812 8.71621 14.5096 8.94459 14.7917 8.94459ZM14.2813 8.42601C14.2857 8.14774 14.5124 7.92376 14.7917 7.92376C15.071 7.92376 15.2977 8.14774 15.302 8.42601L14.2813 8.42601ZM13.2605 8.41111C13.2728 7.57141 13.956 6.90292 14.7917 6.90292C15.6372 6.90292 16.3229 7.58863 16.3229 8.43417C16.3229 9.27971 15.6372 9.96542 14.7917 9.96542C13.9461 9.96542 13.2604 9.27971 13.2604 8.43417L13.2605 8.41111Z" fill="#1B73EE"/>
<path fill-rule="evenodd" clip-rule="evenodd" d="M21.1379 6.9188C21.0667 6.90306 20.9926 6.89476 20.9167 6.89476C20.0711 6.89476 19.3854 7.58047 19.3854 8.42601V8.43216C19.3854 9.2777 20.0711 9.96542 20.9167 9.96542C21.7622 9.96542 22.4479 9.27971 22.4479 8.43417C22.4479 7.66377 21.8787 7.02605 21.1379 6.9188Z" fill="#1B73EE"/>
<path fill-rule="evenodd" clip-rule="evenodd" d="M16.8333 20.6842C11.7601 20.6842 7.64583 24.7984 7.64583 29.8717C7.64583 34.9449 11.7601 39.0592 16.8333 39.0592C21.9066 39.0592 26.0208 34.9449 26.0208 29.8717C26.0208 24.7984 21.9066 20.6842 16.8333 20.6842ZM5.60417 29.8717C5.60417 23.6708 10.6325 18.6425 16.8333 18.6425C23.0342 18.6425 28.0625 23.6708 28.0625 29.8717C28.0625 36.0725 23.0342 41.1008 16.8333 41.1008C10.6325 41.1008 5.60417 36.0725 5.60417 29.8717Z" fill="#1B73EE"/>
<path fill-rule="evenodd" clip-rule="evenodd" d="M23.1688 20.6008C23.6343 20.919 23.7538 21.5542 23.4357 22.0196L18.1119 29.81L24.1603 37.0511C24.5218 37.4838 24.464 38.1276 24.0313 38.489C23.5986 38.8504 22.9548 38.7927 22.5934 38.36L16.0499 30.5261C15.757 30.1755 15.7327 29.6729 15.9905 29.2957L21.75 20.8677C22.0682 20.4022 22.7034 20.2827 23.1688 20.6008Z" fill="#1B73EE"/>
<path fill-rule="evenodd" clip-rule="evenodd" d="M5.60417 29.8717C5.60417 29.3079 6.06121 28.8508 6.625 28.8508H16.8333C17.3971 28.8508 17.8542 29.3079 17.8542 29.8717C17.8542 30.4355 17.3971 30.8925 16.8333 30.8925H6.625C6.06121 30.8925 5.60417 30.4355 5.60417 29.8717Z" fill="#1B73EE"/>
<path fill-rule="evenodd" clip-rule="evenodd" d="M30.1042 21.705C30.1042 21.1412 30.5612 20.6842 31.125 20.6842H43.375C43.9388 20.6842 44.3958 21.1412 44.3958 21.705C44.3958 22.2688 43.9388 22.7258 43.375 22.7258H31.125C30.5612 22.7258 30.1042 22.2688 30.1042 21.705Z" fill="#1B73EE"/>
<path fill-rule="evenodd" clip-rule="evenodd" d="M30.1042 27.83C30.1042 27.2662 30.5612 26.8092 31.125 26.8092H43.375C43.9388 26.8092 44.3958 27.2662 44.3958 27.83C44.3958 28.3938 43.9388 28.8508 43.375 28.8508H31.125C30.5612 28.8508 30.1042 28.3938 30.1042 27.83Z" fill="#1B73EE"/>
<path fill-rule="evenodd" clip-rule="evenodd" d="M30.1042 33.955C30.1042 33.3912 30.5612 32.9342 31.125 32.9342H43.375C43.9388 32.9342 44.3958 33.3912 44.3958 33.955C44.3958 34.5188 43.9388 34.9758 43.375 34.9758H31.125C30.5612 34.9758 30.1042 34.5188 30.1042 33.955Z" fill="#1B73EE"/>
</svg>
