<svg width="50" height="50" viewBox="0 0 50 50" fill="none" xmlns="http://www.w3.org/2000/svg">
<g clip-path="url(#clip0_3811_65511)">
<path fill-rule="evenodd" clip-rule="evenodd" d="M11.8964 21.5987C13.1408 20.3543 14.8285 19.6552 16.5883 19.6552C18.3482 19.6552 20.0359 20.3543 21.2803 21.5987C22.5247 22.8431 23.2238 24.5308 23.2238 26.2906C23.2238 28.0505 22.5247 29.7382 21.2803 30.9826C20.0359 32.227 18.3482 32.9261 16.5883 32.9261C14.8285 32.9261 13.1408 32.227 11.8964 30.9826C10.652 29.7382 9.95292 28.0505 9.95292 26.2906C9.95292 24.5308 10.652 22.8431 11.8964 21.5987ZM16.5883 21.6969C15.37 21.6969 14.2016 22.1809 13.3401 23.0424C12.4786 23.9039 11.9946 25.0723 11.9946 26.2906C11.9946 27.509 12.4786 28.6774 13.3401 29.5389C14.2016 30.4004 15.37 30.8844 16.5883 30.8844C17.8067 30.8844 18.9751 30.4004 19.8366 29.5389C20.6981 28.6774 21.1821 27.509 21.1821 26.2906C21.1821 25.0723 20.6981 23.9039 19.8366 23.0424C18.9751 22.1809 17.8067 21.6969 16.5883 21.6969Z" fill="#1B73EE"/>
<path fill-rule="evenodd" clip-rule="evenodd" d="M9.78394 35.522C11.6534 33.8455 14.0762 32.9182 16.5873 32.9182C19.0985 32.9182 21.5212 33.8455 23.3907 35.522C25.2602 37.1986 26.4447 39.5065 26.7171 42.0028C26.7783 42.5633 26.3735 43.0672 25.8131 43.1284C25.2526 43.1895 24.7487 42.7848 24.6875 42.2243C24.4697 40.2281 23.5225 38.3827 22.0276 37.042C20.5326 35.7013 18.5953 34.9599 16.5873 34.9599C14.5793 34.9599 12.642 35.7013 11.1471 37.042C9.65215 38.3827 8.70492 40.2281 8.4871 42.2243C8.42595 42.7848 7.92202 43.1895 7.36156 43.1284C6.80109 43.0672 6.39633 42.5633 6.45748 42.0028C6.72988 39.5065 7.91445 37.1986 9.78394 35.522Z" fill="#1B73EE"/>
<path fill-rule="evenodd" clip-rule="evenodd" d="M0.5 15.5719C0.5 15.0081 0.957043 14.5511 1.52083 14.5511H48.4792C49.043 14.5511 49.5 15.0081 49.5 15.5719C49.5 16.1357 49.043 16.5927 48.4792 16.5927H1.52083C0.957043 16.5927 0.5 16.1357 0.5 15.5719Z" fill="#1B73EE"/>
<path fill-rule="evenodd" clip-rule="evenodd" d="M3.5625 8.42607C3.29176 8.42607 3.03211 8.53362 2.84066 8.72506C2.64922 8.91651 2.54167 9.17616 2.54167 9.4469V40.0719C2.54167 40.3426 2.64922 40.6023 2.84066 40.7937C3.0321 40.9852 3.29176 41.0927 3.5625 41.0927H46.4375C46.7082 41.0927 46.9679 40.9852 47.1593 40.7937C47.3508 40.6023 47.4583 40.3426 47.4583 40.0719V9.4469C47.4583 9.17615 47.3508 8.9165 47.1593 8.72506C46.9679 8.53362 46.7082 8.42607 46.4375 8.42607H3.5625ZM1.39699 7.28139C1.97132 6.70706 2.75027 6.3844 3.5625 6.3844H46.4375C47.2497 6.3844 48.0287 6.70705 48.603 7.28139C49.1773 7.85572 49.5 8.63468 49.5 9.4469V40.0719C49.5 40.8841 49.1773 41.6631 48.603 42.2374C48.0287 42.8117 47.2497 43.1344 46.4375 43.1344H3.5625C2.75028 43.1344 1.97132 42.8117 1.39699 42.2374C0.822655 41.6631 0.5 40.8841 0.5 40.0719V9.4469C0.5 8.63467 0.822656 7.85572 1.39699 7.28139Z" fill="#1B73EE"/>
<path fill-rule="evenodd" clip-rule="evenodd" d="M30.1042 25.7802C30.1042 25.2164 30.5612 24.7594 31.125 24.7594H43.375C43.9388 24.7594 44.3958 25.2164 44.3958 25.7802C44.3958 26.344 43.9388 26.8011 43.375 26.8011H31.125C30.5612 26.8011 30.1042 26.344 30.1042 25.7802Z" fill="#1B73EE"/>
<path fill-rule="evenodd" clip-rule="evenodd" d="M30.1042 31.9052C30.1042 31.3414 30.5612 30.8844 31.125 30.8844H38.2708C38.8346 30.8844 39.2917 31.3414 39.2917 31.9052C39.2917 32.469 38.8346 32.9261 38.2708 32.9261H31.125C30.5612 32.9261 30.1042 32.469 30.1042 31.9052Z" fill="#1B73EE"/>
</g>
<defs>
<clipPath id="clip0_3811_65511">
<rect width="49" height="49" fill="white" transform="translate(0.5 0.259277)"/>
</clipPath>
</defs>
</svg>