<svg width="40" height="40" viewBox="0 0 40 40" fill="none" xmlns="http://www.w3.org/2000/svg">
<rect width="40" height="40" rx="6" fill="white"/>
<path d="M26.2917 22.1333C26.2794 22.235 26.2301 22.3285 26.1533 22.3961C26.0764 22.4638 25.9774 22.5007 25.875 22.5H24.1667C24.0562 22.5 23.9502 22.5439 23.872 22.622C23.7939 22.7002 23.75 22.8062 23.75 22.9167V29.5833C23.75 29.6938 23.7939 29.7998 23.872 29.878C23.9502 29.9561 24.0562 30 24.1667 30H29.1667C29.3877 30 29.5996 29.9122 29.7559 29.7559C29.9122 29.5996 30 29.3877 30 29.1667V10.8333C30 10.6123 29.9122 10.4004 29.7559 10.2441C29.5996 10.0878 29.3877 10 29.1667 10H10.8333C10.6123 10 10.4004 10.0878 10.2441 10.2441C10.0878 10.4004 10 10.6123 10 10.8333V29.1667C10 29.3877 10.0878 29.5996 10.2441 29.7559C10.4004 29.9122 10.6123 30 10.8333 30H20C20.1105 30 20.2165 29.9561 20.2946 29.878C20.3728 29.7998 20.4167 29.6938 20.4167 29.5833V22.9167C20.4167 22.8062 20.3728 22.7002 20.2946 22.622C20.2165 22.5439 20.1105 22.5 20 22.5H18.3333C18.2228 22.5 18.1168 22.4561 18.0387 22.378C17.9606 22.2998 17.9167 22.1938 17.9167 22.0833V19.5833C17.9167 19.4728 17.9606 19.3668 18.0387 19.2887C18.1168 19.2106 18.2228 19.1667 18.3333 19.1667H20C20.1105 19.1667 20.2165 19.1228 20.2946 19.0446C20.3728 18.9665 20.4167 18.8605 20.4167 18.75V17.6583C20.4167 16.4008 20.9162 15.1947 21.8055 14.3055C22.6947 13.4162 23.9008 12.9167 25.1583 12.9167H26.25C26.3605 12.9167 26.4665 12.9606 26.5446 13.0387C26.6228 13.1168 26.6667 13.2228 26.6667 13.3333V15.8333C26.6667 15.9438 26.6228 16.0498 26.5446 16.128C26.4665 16.2061 26.3605 16.25 26.25 16.25H25.1583C24.7848 16.25 24.4266 16.3984 24.1625 16.6625C23.8984 16.9266 23.75 17.2848 23.75 17.6583V18.75C23.75 18.8605 23.7939 18.9665 23.872 19.0446C23.9502 19.1228 24.0562 19.1667 24.1667 19.1667H26.1917C26.2509 19.1662 26.3095 19.1784 26.3636 19.2024C26.4177 19.2264 26.4661 19.2617 26.5055 19.3058C26.5449 19.35 26.5745 19.402 26.5922 19.4585C26.6099 19.515 26.6154 19.5746 26.6083 19.6333L26.2917 22.1333Z" fill="#313131"/>
</svg>
