<svg width="31" height="22" viewBox="0 0 31 22" fill="none" xmlns="http://www.w3.org/2000/svg">
<rect y="0.334473" width="31" height="20.6667" fill="#DE2810"/>
<path d="M13.3366 11.4626C12.6521 11.4696 11.8835 11.2504 11.2101 10.5081C11.1636 10.4569 11.1701 10.3763 11.2229 10.3316L11.2231 10.3314C11.2743 10.288 11.3499 10.2947 11.3951 10.3444C12.4217 11.4716 13.6941 11.2742 14.4542 11.0019C14.1734 11.0144 13.8205 10.9933 13.5936 10.8441C12.6454 10.2208 13.0749 9.55779 12.4451 8.75628C11.8194 7.95987 11.2564 7.97937 10.3698 8.11377C9.49208 8.24675 9.21247 7.60294 9.12544 7.24564C9.10987 7.18161 9.02056 7.17762 8.99768 7.23931C7.9037 10.195 11.1931 13.8523 14.5704 11.2226C14.2371 11.3453 13.8079 11.4578 13.3366 11.4626ZM10.8721 10.4596C10.8529 10.5123 10.7776 10.5102 10.7613 10.4565L10.6353 10.0414L10.2018 10.0262C10.1456 10.0242 10.1243 9.95193 10.1704 9.91983L10.5263 9.67176L10.4068 9.25468C10.3913 9.20074 10.4535 9.15811 10.4982 9.19194L10.8442 9.45372L11.2039 9.21113C11.2504 9.1797 11.3102 9.22565 11.2917 9.27873L11.1497 9.68862L11.4915 9.95575C11.5357 9.99038 11.5105 10.0614 11.4544 10.0602L11.0206 10.0518L10.8721 10.4596Z" fill="#F5F5F5"/>
<path d="M15.7594 9.49892C16.3028 9.08282 17.0493 8.7973 18.0334 8.98736C18.1013 9.00046 18.1444 9.06885 18.1291 9.13627L18.129 9.13651C18.1141 9.20196 18.0495 9.24194 17.9835 9.22927C16.4861 8.94282 15.5862 9.86384 15.1413 10.5377C15.3586 10.3592 15.6536 10.1645 15.9247 10.1478C17.0572 10.0779 17.1111 10.8661 18.0958 11.1298C19.0741 11.3918 19.5129 11.0386 20.1419 10.3993C20.7645 9.76648 21.3744 10.114 21.6583 10.3477C21.7091 10.3896 21.7829 10.3393 21.7643 10.2762C20.8671 7.25492 16.0414 6.30112 14.916 10.4308C15.109 10.1329 15.3851 9.78548 15.7594 9.49892ZM18.333 8.82362C18.3167 8.76986 18.3782 8.72632 18.4235 8.75953L18.7732 9.01614L19.1293 8.76826C19.1754 8.73616 19.2358 8.78124 19.2183 8.83457L19.0823 9.24655L19.428 9.50857C19.4728 9.54253 19.4485 9.61394 19.3924 9.61363L18.9586 9.6116L18.8163 10.0214C18.7978 10.0745 18.7225 10.0735 18.7054 10.0201L18.5733 9.60686L18.1395 9.59813C18.0834 9.59696 18.061 9.52506 18.1066 9.49227L18.4588 9.23892L18.333 8.82362Z" fill="#F5F5F5"/>
<path d="M13.9468 9.78371C13.6799 9.15338 13.5901 8.35925 14.0203 7.45398C14.05 7.39155 14.1271 7.36688 14.1884 7.39868L14.1887 7.39881C14.2483 7.42962 14.2708 7.5022 14.2422 7.56285C13.5903 8.94112 14.257 10.0427 14.7981 10.642C14.6796 10.387 14.565 10.0527 14.6165 9.78599C14.8321 8.67202 15.6087 8.81687 16.1103 7.92943C16.6087 7.04772 16.3765 6.5345 15.9148 5.76571C15.4578 5.00461 15.9469 4.50105 16.2442 4.28467C16.2974 4.24592 16.2672 4.16183 16.2015 4.16417C13.0518 4.27716 10.9213 8.71083 14.6382 10.8333C14.398 10.5719 14.1307 10.2178 13.9468 9.78371ZM13.9367 7.12301C13.8805 7.12534 13.8538 7.05486 13.8973 7.01937L14.2333 6.74492L14.0823 6.33817C14.0628 6.28551 14.1216 6.23828 14.1688 6.26866L14.5336 6.50338L14.8738 6.23416C14.9178 6.19928 14.9809 6.24055 14.9665 6.29493L14.8561 6.71441L15.2172 6.95472C15.2639 6.98584 15.2442 7.05855 15.1881 7.06174L14.755 7.08629L14.6381 7.50405C14.6229 7.55811 14.5476 7.5618 14.5273 7.50946L14.3701 7.10517L13.9367 7.12301Z" fill="#F5F5F5"/>
<path d="M16.4008 11.214C16.9665 11.5993 17.4721 12.2183 17.6007 13.2123C17.6096 13.2809 17.5581 13.3433 17.4893 13.3499H17.4889C17.4221 13.3563 17.3639 13.3075 17.3552 13.241C17.1568 11.7293 15.9997 11.1643 15.2202 10.9535C15.4578 11.1037 15.7353 11.3227 15.8364 11.5748C16.2585 12.628 15.5271 12.9269 15.586 13.9445C15.6445 14.9556 16.1178 15.2613 16.9222 15.6576C17.7185 16.05 17.5802 16.7381 17.4474 17.0811C17.4236 17.1426 17.4945 17.1968 17.5485 17.1592C20.1351 15.3585 19.525 10.4776 15.2509 10.7061C15.5948 10.7957 16.0113 10.9487 16.4008 11.214ZM17.8504 13.4453C17.8963 13.4129 17.9569 13.4577 17.9396 13.5111L17.8058 13.9237L18.153 14.184C18.1979 14.2176 18.1741 14.2891 18.118 14.2892L17.6842 14.2895L17.544 14.7C17.5258 14.7532 17.4504 14.7526 17.4331 14.6992L17.2988 14.2867L16.865 14.2802C16.8088 14.2794 16.7861 14.2075 16.8315 14.1745L17.1823 13.9192L17.0544 13.5047C17.0378 13.451 17.0991 13.4071 17.1446 13.4402L17.4957 13.6949L17.8504 13.4453Z" fill="#F5F5F5"/>
<path d="M14.9857 12.4406C14.7908 13.0968 14.355 13.7667 13.4472 14.1917C13.3846 14.221 13.3095 14.191 13.2823 14.1275L13.2822 14.1272C13.2558 14.0655 13.2846 13.9952 13.3452 13.9666C14.7248 13.3177 14.911 12.0436 14.8746 11.2369C14.8038 11.509 14.6797 11.8399 14.4703 12.013C13.5955 12.7355 13.0882 12.1298 12.1368 12.4956C11.1914 12.8589 11.0442 13.4028 10.9114 14.2897C10.78 15.1676 10.0823 15.2452 9.71524 15.2231C9.64955 15.2192 9.61935 15.3033 9.67157 15.3433C12.174 17.2593 16.6378 15.193 15.1196 11.1911C15.1389 11.5455 15.1199 11.9887 14.9857 12.4406ZM13.3012 14.5003C13.346 14.5342 13.3218 14.6055 13.2657 14.6053L12.8319 14.6034L12.6897 15.0133C12.6713 15.0664 12.5959 15.0654 12.5788 15.012L12.4465 14.5988L12.0128 14.5901C11.9566 14.589 11.9341 14.5171 11.9798 14.4843L12.3319 14.2308L12.206 13.8156C12.1897 13.7619 12.2512 13.7183 12.2965 13.7516L12.6463 14.008L13.0024 13.76C13.0484 13.7279 13.1088 13.773 13.0913 13.8263L12.9555 14.2383L13.3012 14.5003Z" fill="#F5F5F5"/>
</svg>
