<svg width="49" height="37" viewBox="0 0 49 37" fill="none" xmlns="http://www.w3.org/2000/svg">
<path fill-rule="evenodd" clip-rule="evenodd" d="M1.79435 1.66935C2.6031 0.860601 3.7 0.40625 4.84375 0.40625H41.5938C42.7375 0.40625 43.8344 0.860601 44.6431 1.66935C45.4519 2.4781 45.9062 3.575 45.9062 4.71875V7.78125C45.9062 8.47161 45.3466 9.03125 44.6562 9.03125C43.9659 9.03125 43.4062 8.47161 43.4062 7.78125V4.71875C43.4062 4.23805 43.2153 3.77703 42.8754 3.43712C42.5355 3.09721 42.0745 2.90625 41.5938 2.90625H4.84375C4.36304 2.90625 3.90203 3.09721 3.56212 3.43712C3.22221 3.77703 3.03125 4.23804 3.03125 4.71875V16.9688C3.03125 17.4495 3.22221 17.9105 3.56212 18.2504C3.90203 18.5903 4.36304 18.7812 4.84375 18.7812H15.5625C16.2529 18.7812 16.8125 19.3409 16.8125 20.0312C16.8125 20.7216 16.2529 21.2812 15.5625 21.2812H4.84375C3.7 21.2812 2.6031 20.8269 1.79435 20.0181C0.985601 19.2094 0.53125 18.1125 0.53125 16.9688V4.71875C0.53125 3.575 0.985601 2.4781 1.79435 1.66935Z" fill="#1B73EE"/>
<path fill-rule="evenodd" clip-rule="evenodd" d="M23.9431 11.5681C26.1876 9.32349 29.2319 8.0625 32.4062 8.0625C35.5806 8.0625 38.6249 9.32349 40.8694 11.5681C43.114 13.8126 44.375 16.8569 44.375 20.0312C44.375 23.2056 43.114 26.2499 40.8694 28.4944C38.6249 30.739 35.5806 32 32.4062 32C29.2319 32 26.1876 30.739 23.9431 28.4944C21.6985 26.2499 20.4375 23.2056 20.4375 20.0312C20.4375 16.8569 21.6985 13.8126 23.9431 11.5681ZM32.4062 10.5625C29.895 10.5625 27.4866 11.5601 25.7108 13.3358C23.9351 15.1116 22.9375 17.52 22.9375 20.0312C22.9375 22.5425 23.9351 24.9509 25.7108 26.7267C27.4866 28.5024 29.895 29.5 32.4062 29.5C34.9175 29.5 37.3259 28.5024 39.1017 26.7267C40.8774 24.9509 41.875 22.5425 41.875 20.0312C41.875 17.52 40.8774 15.1116 39.1017 13.3358C37.3259 11.5601 34.9175 10.5625 32.4062 10.5625Z" fill="#1B73EE"/>
<path fill-rule="evenodd" clip-rule="evenodd" d="M39.1017 26.7267C39.5898 26.2385 40.3807 26.2379 40.8689 26.7261L48.6027 34.4599C49.0908 34.9481 49.0908 35.7395 48.6027 36.2277C48.1145 36.7158 47.3231 36.7158 46.8349 36.2277L39.1011 28.4939C38.6129 28.0057 38.6135 27.2148 39.1017 26.7267Z" fill="#1B73EE"/>
<path d="M18.3672 12.3606C18.3672 13.4818 17.4583 14.3906 16.3372 14.3906C15.216 14.3906 14.3072 13.4818 14.3072 12.3606C14.3072 11.2394 15.216 10.3306 16.3372 10.3306C17.4583 10.3306 18.3672 11.2394 18.3672 12.3606Z" fill="#1B73EE"/>
<path d="M10.7019 12.3606C10.7019 13.4818 9.79303 14.3906 8.67188 14.3906C7.55072 14.3906 6.64185 13.4818 6.64185 12.3606C6.64185 11.2394 7.55072 10.3306 8.67188 10.3306C9.79303 10.3306 10.7019 11.2394 10.7019 12.3606Z" fill="#1B73EE"/>
</svg>
