<svg width="50" height="50" viewBox="0 0 50 50" fill="none" xmlns="http://www.w3.org/2000/svg">
<path fill-rule="evenodd" clip-rule="evenodd" d="M24.75 0.999965C31.5857 0.936704 38.365 2.26197 44.6737 4.89462L44.6797 4.89712C46.209 5.54676 47.2029 7.04402 47.2084 8.70397L47.2084 8.7073L47.2084 24.3114C47.0809 35.2908 40.1091 45.0215 29.7537 48.6735L27.472 49.5162C25.7157 50.1611 23.7862 50.1617 22.0299 49.5169L19.7464 48.6735C9.39097 45.0215 2.41921 35.2908 2.29176 24.3114L2.29163 24.2995L2.29169 8.70397C2.29711 7.04402 3.29102 5.54676 4.82033 4.89714L4.8263 4.8946C11.1351 2.26195 17.9143 0.936704 24.75 0.999965ZM5.61584 6.77745C4.84007 7.10825 4.3367 7.86758 4.33336 8.70913V24.2935C4.4533 34.4158 10.8832 43.386 20.4322 46.7505L20.4467 46.7556L22.7335 47.6003C24.0349 48.0778 25.464 48.0782 26.7654 47.6007L29.0678 46.7504C38.6168 43.3859 45.0467 34.4159 45.1667 24.2936L45.1667 8.71063C45.1635 7.86892 44.6601 7.10829 43.8842 6.77744C37.8284 4.25091 31.321 2.97966 24.7597 3.04163L24.7404 3.04181C18.179 2.97984 11.6716 4.25091 5.61584 6.77745Z" fill="#1B73EE"/>
<path fill-rule="evenodd" clip-rule="evenodd" d="M17.6042 20.892C17.041 20.892 16.5834 21.3496 16.5834 21.9128V34.1608C16.5834 34.724 17.041 35.1816 17.6042 35.1816H31.8959C32.4591 35.1816 32.9167 34.724 32.9167 34.1608V21.9128C32.9167 21.3496 32.4591 20.892 31.8959 20.892H17.6042ZM14.5417 21.9128C14.5417 20.222 15.9134 18.8503 17.6042 18.8503H31.8959C33.5867 18.8503 34.9584 20.222 34.9584 21.9128V34.1608C34.9584 35.8516 33.5867 37.2233 31.8959 37.2233H17.6042C15.9134 37.2233 14.5417 35.8516 14.5417 34.1608V21.9128Z" fill="#1B73EE"/>
<path fill-rule="evenodd" clip-rule="evenodd" d="M24.75 26.6352C23.9051 26.6352 23.2188 27.3215 23.2188 28.1664C23.2188 29.0114 23.9051 29.6977 24.75 29.6977C25.595 29.6977 26.2813 29.0114 26.2813 28.1664C26.2813 27.3215 25.595 26.6352 24.75 26.6352ZM21.1771 28.1664C21.1771 26.1939 22.7775 24.5935 24.75 24.5935C26.7226 24.5935 28.3229 26.1939 28.3229 28.1664C28.3229 30.139 26.7226 31.7393 24.75 31.7393C22.7775 31.7393 21.1771 30.139 21.1771 28.1664Z" fill="#1B73EE"/>
<path fill-rule="evenodd" clip-rule="evenodd" d="M18.625 16.8086C18.625 13.4253 21.3667 10.6836 24.75 10.6836C28.1334 10.6836 30.875 13.4253 30.875 16.8086V19.8711C30.875 20.4349 30.418 20.892 29.8542 20.892H19.6459C19.0821 20.892 18.625 20.4349 18.625 19.8711V16.8086ZM24.75 12.7253C22.4943 12.7253 20.6667 14.5529 20.6667 16.8086V18.8503H28.8334V16.8086C28.8334 14.5529 27.0058 12.7253 24.75 12.7253Z" fill="#1B73EE"/>
</svg>
