<svg width="18" height="18" viewBox="0 0 18 18" fill="none" xmlns="http://www.w3.org/2000/svg">
<mask id="mask0" mask-type="alpha" maskUnits="userSpaceOnUse" x="0" y="0" width="18" height="18">
<path d="M0 2.25C0 1.00736 1.00736 0 2.25 0H15.75C16.9926 0 18 1.00736 18 2.25V15.75C18 16.9926 16.9926 18 15.75 18H2.25C1.00736 18 0 16.9926 0 15.75V2.25Z" fill="#00780F"/>
</mask>
<g mask="url(#mask0)">
<rect x="-0.750977" y="17.2632" width="25.1777" height="13.3579" transform="rotate(-45 -0.750977 17.2632)" fill="#FF6905"/>
<rect x="-9.5625" y="8.80334" width="25.1777" height="13.3579" transform="rotate(-45 -9.5625 8.80334)" fill="#00780F"/>
<path d="M3.86169 7.875H2.85645V3.0564H5.61841V3.89355H3.86169V5.13611H5.49646V5.96997H3.86169V7.875Z" fill="white"/>
<path d="M10.4568 7.875H9.29004L8.16943 6.05237L7.04883 7.875H5.95459L7.5531 5.38989L6.05676 3.0564H7.18396L8.22217 4.79004L9.2406 3.0564H10.3414L8.82861 5.44592L10.4568 7.875Z" fill="white"/>
<path d="M15.3574 12.2091C15.3574 13.0067 15.1597 13.6198 14.7642 14.0482C14.3687 14.4767 13.8018 14.6909 13.0635 14.6909C12.3252 14.6909 11.7583 14.4767 11.3628 14.0482C10.9673 13.6198 10.7695 13.0045 10.7695 12.2025C10.7695 11.4005 10.9673 10.7886 11.3628 10.3667C11.7605 9.94263 12.3296 9.73059 13.0701 9.73059C13.8105 9.73059 14.3763 9.94373 14.7675 10.37C15.1608 10.7963 15.3574 11.4093 15.3574 12.2091ZM11.8407 12.2091C11.8407 12.7474 11.9429 13.1528 12.1472 13.4253C12.3516 13.6978 12.657 13.834 13.0635 13.834C13.8787 13.834 14.2863 13.2924 14.2863 12.2091C14.2863 11.1237 13.8809 10.5809 13.0701 10.5809C12.6636 10.5809 12.3571 10.7183 12.1505 10.9929C11.944 11.2654 11.8407 11.6708 11.8407 12.2091Z" fill="white"/>
</g>
</svg>
