<svg width="18" height="18" viewBox="0 0 18 18" fill="none" xmlns="http://www.w3.org/2000/svg">
<mask id="mask0" mask-type="alpha" maskUnits="userSpaceOnUse" x="0" y="0" width="18" height="18">
<path d="M0 2.25C0 1.00736 1.00736 0 2.25 0H15.75C16.9926 0 18 1.00736 18 2.25V15.75C18 16.9926 16.9926 18 15.75 18H2.25C1.00736 18 0 16.9926 0 15.75V2.25Z" fill="#00780F"/>
</mask>
<g mask="url(#mask0)">
<rect x="-0.750977" y="17.2632" width="25.1777" height="13.3579" transform="rotate(-45 -0.750977 17.2632)" fill="#0A5FB4"/>
<rect x="-9.5625" y="8.80334" width="25.1777" height="13.3579" transform="rotate(-45 -9.5625 8.80334)" fill="#00780F"/>
<path d="M3.86169 7.875H2.85645V3.0564H5.61841V3.89355H3.86169V5.13611H5.49646V5.96997H3.86169V7.875Z" fill="white"/>
<path d="M10.4568 7.875H9.29004L8.16943 6.05237L7.04883 7.875H5.95459L7.5531 5.38989L6.05676 3.0564H7.18396L8.22217 4.79004L9.2406 3.0564H10.3414L8.82861 5.44592L10.4568 7.875Z" fill="white"/>
<path d="M15.4828 13.2869C15.4828 13.7219 15.3257 14.0647 15.0115 14.3152C14.6995 14.5657 14.2644 14.6909 13.7063 14.6909C13.1921 14.6909 12.7373 14.5942 12.3418 14.4009V13.4517C12.667 13.5967 12.9417 13.6989 13.1658 13.7582C13.3921 13.8175 13.5986 13.8472 13.7854 13.8472C14.0095 13.8472 14.1809 13.8043 14.2996 13.7186C14.4204 13.6329 14.4808 13.5055 14.4808 13.3363C14.4808 13.2418 14.4545 13.1583 14.4017 13.0858C14.349 13.0111 14.271 12.9397 14.1677 12.8716C14.0667 12.8035 13.859 12.6947 13.5448 12.5453C13.2504 12.4069 13.0295 12.2739 12.8823 12.1465C12.7351 12.019 12.6176 11.8707 12.5297 11.7015C12.4418 11.5323 12.3978 11.3346 12.3978 11.1083C12.3978 10.682 12.5417 10.3469 12.8296 10.103C13.1196 9.85913 13.5195 9.73718 14.0293 9.73718C14.2798 9.73718 14.5182 9.76685 14.7445 9.82617C14.973 9.8855 15.2114 9.96899 15.4597 10.0767L15.1301 10.871C14.873 10.7655 14.6599 10.6919 14.4907 10.6501C14.3237 10.6084 14.1589 10.5875 13.9963 10.5875C13.803 10.5875 13.6547 10.6326 13.5514 10.7227C13.4481 10.8127 13.3965 10.9303 13.3965 11.0753C13.3965 11.1654 13.4174 11.2445 13.4591 11.3126C13.5009 11.3785 13.5668 11.4434 13.6569 11.5071C13.7491 11.5686 13.9656 11.6807 14.3062 11.8433C14.7566 12.0586 15.0653 12.275 15.2323 12.4926C15.3993 12.7079 15.4828 12.9727 15.4828 13.2869Z" fill="white"/>
</g>
</svg>
