<svg width="50" height="37" viewBox="0 0 50 37" fill="none" xmlns="http://www.w3.org/2000/svg">
<path fill-rule="evenodd" clip-rule="evenodd" d="M3.82031 2.16667C3.2571 2.16667 2.79948 2.62429 2.79948 3.1875V33.8125C2.79948 34.3757 3.2571 34.8333 3.82031 34.8333H46.6953C47.2585 34.8333 47.7161 34.3757 47.7161 33.8125V3.1875C47.7161 2.62429 47.2585 2.16667 46.6953 2.16667H3.82031ZM0.757812 3.1875C0.757812 1.49671 2.12952 0.125 3.82031 0.125H46.6953C48.3861 0.125 49.7578 1.49671 49.7578 3.1875V33.8125C49.7578 35.5033 48.3861 36.875 46.6953 36.875H3.82031C2.12952 36.875 0.757812 35.5033 0.757812 33.8125V3.1875Z" fill="#1B73EE"/>
<path fill-rule="evenodd" clip-rule="evenodd" d="M41.0681 10.4675C41.5578 10.747 41.7282 11.3704 41.4488 11.8601L34.0192 24.8798L34.0168 24.884C33.8993 25.0877 33.7451 25.2769 33.552 25.4369C32.6845 26.1593 31.3994 26.0382 30.6788 25.1751L27.3074 21.1294C27.304 21.1256 27.3013 21.1226 27.2991 21.1203L23.9007 25.2026L23.8988 25.2048C23.7539 25.3779 23.5803 25.5276 23.3847 25.6457L23.3815 25.6477C22.4141 26.2273 21.1609 25.9131 20.5811 24.9464L16.0629 17.4229L10.8125 26.171C10.5224 26.6545 9.89538 26.8113 9.41193 26.5212C8.92849 26.2311 8.77172 25.6041 9.06179 25.1206L14.3106 16.3726C14.8898 15.4065 16.1419 15.0913 17.1091 15.669C17.3997 15.8415 17.642 16.0836 17.8146 16.3741L22.3314 23.8953L22.3334 23.8941L25.7309 19.813C26.4521 18.9493 27.7396 18.8276 28.6071 19.5518C28.7126 19.6395 28.7954 19.7291 28.8538 19.7963L28.8679 19.8125L32.2461 23.8666L32.2483 23.8637L39.6755 10.8482C39.9549 10.3585 40.5784 10.1881 41.0681 10.4675Z" fill="#1B73EE"/>
</svg>
