<svg width="49" height="45" viewBox="0 0 49 45" fill="none" xmlns="http://www.w3.org/2000/svg">
<path fill-rule="evenodd" clip-rule="evenodd" d="M37.5779 22.1706C38.1814 21.8354 38.9424 22.0528 39.2777 22.6563L41.4746 26.6112H45.7964C46.3188 26.6054 46.8313 26.7548 47.2688 27.0406C47.7094 27.3285 48.0538 27.7416 48.2578 28.2267C48.4618 28.7119 48.5161 29.247 48.4135 29.7632C48.3133 30.268 48.0677 30.7322 47.7073 31.0988L43.6221 35.557L45.8747 40.7333L45.8828 40.7524C46.0957 41.2648 46.1427 41.8309 46.0172 42.3713C45.8918 42.9118 45.6001 43.3993 45.1833 43.7654C44.7665 44.1316 44.2455 44.3579 43.6934 44.4127C43.1438 44.4672 42.591 44.349 42.1119 44.0745L36.5005 40.9167L30.8923 44.072C30.4135 44.3473 29.8606 44.4664 29.3107 44.4126C28.7578 44.3585 28.2358 44.1323 27.8182 43.7658C27.4006 43.3994 27.1085 42.9112 26.9831 42.37C26.8576 41.8287 26.9051 41.2618 27.1189 40.749L27.1267 40.7307L29.6176 35.014C29.8933 34.3812 30.6299 34.0916 31.2628 34.3674C31.8957 34.6432 32.1852 35.3798 31.9094 36.0127L29.4246 41.7156C29.4137 41.7442 29.4116 41.7755 29.4185 41.8054C29.4258 41.837 29.4428 41.8654 29.4672 41.8868C29.4915 41.9081 29.5219 41.9213 29.5541 41.9245C29.5863 41.9276 29.6187 41.9206 29.6467 41.9043L29.6606 41.8964L35.8877 38.3929C36.2683 38.1788 36.733 38.1788 37.1136 38.393L43.3541 41.9049C43.3821 41.9211 43.4144 41.9281 43.4466 41.9249C43.4788 41.9217 43.5091 41.9085 43.5334 41.8872C43.5577 41.8659 43.5747 41.8375 43.582 41.806C43.5889 41.7762 43.5868 41.745 43.5761 41.7165L41.0057 35.81C40.8087 35.3572 40.8967 34.8308 41.2303 34.4667L45.8812 29.3912C45.8948 29.3763 45.9088 29.3618 45.9231 29.3476C45.9427 29.3282 45.956 29.3034 45.9614 29.2763C45.9668 29.2492 45.964 29.2212 45.9533 29.1957C45.9426 29.1703 45.9245 29.1486 45.9014 29.1335C45.8783 29.1185 45.8512 29.1106 45.8236 29.111L45.8045 29.1112H40.7391C40.2851 29.1112 39.8668 28.865 39.6464 28.4682L37.0922 23.8704C36.757 23.2669 36.9745 22.5059 37.5779 22.1706Z" fill="#1B73EE"/>
<path fill-rule="evenodd" clip-rule="evenodd" d="M10.9232 22.1706C11.5267 22.5059 11.7442 23.2669 11.4089 23.8704L8.85482 28.4682C8.63437 28.865 8.21608 29.1112 7.7621 29.1112H2.69673L2.67756 29.111C2.64997 29.1106 2.62288 29.1185 2.59978 29.1335C2.57668 29.1486 2.55862 29.1703 2.54792 29.1957C2.53723 29.2212 2.53438 29.2492 2.53976 29.2763C2.54513 29.3034 2.55848 29.3282 2.57809 29.3476C2.59239 29.3618 2.60635 29.3763 2.61995 29.3912L7.27087 34.4667C7.60449 34.8308 7.69249 35.3572 7.49544 35.81L4.9251 41.7165C4.91435 41.745 4.91227 41.7762 4.91918 41.806C4.9265 41.8375 4.94349 41.8659 4.96777 41.8872C4.99206 41.9085 5.02241 41.9217 5.05458 41.9249C5.08674 41.9281 5.11909 41.9211 5.1471 41.905L5.1584 41.8985L11.3876 38.393C11.7681 38.1788 12.2329 38.1788 12.6135 38.3929L18.8406 41.8964L18.8545 41.9043C18.8825 41.9206 18.9148 41.9276 18.9471 41.9245C18.9793 41.9213 19.0097 41.9081 19.034 41.8868C19.0584 41.8654 19.0754 41.837 19.0827 41.8054C19.0896 41.7755 19.0875 41.7442 19.0766 41.7156L16.5917 36.0127C16.316 35.3798 16.6055 34.6432 17.2384 34.3674C17.8713 34.0916 18.6079 34.3812 18.8836 35.014L21.3745 40.7307L21.3823 40.749C21.5961 41.2618 21.6436 41.8287 21.5181 42.37C21.3927 42.9112 21.1006 43.3994 20.683 43.7658C20.2654 44.1323 19.7434 44.3585 19.1905 44.4126C18.6406 44.4664 18.0877 44.3472 17.6088 44.0719L12.0007 40.9167L6.38934 44.0745C5.91022 44.349 5.35738 44.4672 4.80779 44.4127C4.2557 44.3579 3.73465 44.1316 3.31784 43.7654C2.90103 43.3993 2.60941 42.9118 2.48395 42.3713C2.35849 41.8309 2.40549 41.2648 2.61836 40.7524L2.62651 40.7333L4.87908 35.557L0.793917 31.0989C0.433506 30.7322 0.187881 30.268 0.0876413 29.7632C-0.0148722 29.247 0.0393547 28.7119 0.243351 28.2267C0.447348 27.7416 0.79179 27.3285 1.2324 27.0406C1.6699 26.7548 2.18237 26.6054 2.70477 26.6112H7.02657L9.22351 22.6563C9.55875 22.0528 10.3197 21.8354 10.9232 22.1706Z" fill="#1B73EE"/>
<path fill-rule="evenodd" clip-rule="evenodd" d="M24.116 3.39395L27.9449 11.0498C28.1367 11.4333 28.5117 11.6918 28.9384 11.7345L36.2042 12.4616L30.1573 18.5085C29.8401 18.8256 29.7172 19.2885 29.8352 19.7212L32.0659 27.9009L24.6768 24.2073C24.325 24.0315 23.9109 24.0315 23.559 24.2073L16.1723 27.8997L18.4026 19.7212C18.5206 19.2885 18.3977 18.8256 18.0806 18.5085L12.0318 12.4598L19.2975 11.7324C19.7243 11.6897 20.0994 11.4311 20.2911 11.0474L24.116 3.39395ZM22.9344 0.907491C23.289 0.687046 23.6983 0.570219 24.1159 0.570219C24.5335 0.570219 24.9427 0.687046 25.2974 0.907491C25.651 1.12728 25.9363 1.44132 26.1212 1.81429C26.1217 1.81542 26.1223 1.81654 26.1228 1.81766L29.8727 9.31549L37.0035 10.0291C37.4247 10.0722 37.8251 10.2338 38.1582 10.4951C38.4913 10.7565 38.7436 11.1069 38.8857 11.5057C39.0278 11.9045 39.054 12.3355 38.9613 12.7486C38.8685 13.1617 38.6605 13.54 38.3615 13.8398L38.3604 13.8409L32.438 19.7633L34.6318 27.8078C34.6318 27.8078 34.6318 27.8077 34.6318 27.8078C34.7456 28.2248 34.7361 28.6661 34.6046 29.078C34.473 29.4898 34.225 29.8548 33.8904 30.1287C33.5558 30.4026 33.1491 30.5738 32.7193 30.6215C32.2898 30.6691 31.8557 30.5914 31.4694 30.3977C31.4692 30.3976 31.4697 30.3978 31.4694 30.3977L24.1179 26.7229L16.7641 30.3989C16.3778 30.5914 15.944 30.6682 15.5151 30.6198C15.0862 30.5715 14.6803 30.4002 14.3466 30.1265C14.0128 29.8528 13.7652 29.4885 13.6338 29.0773C13.5023 28.6662 13.4926 28.2258 13.6057 27.8093L15.7999 19.7633L9.87869 13.8421C9.87854 13.842 9.87884 13.8423 9.87869 13.8421C9.57852 13.5426 9.36906 13.1636 9.27551 12.75C9.18192 12.3362 9.20776 11.9043 9.35003 11.5047C9.49229 11.105 9.74513 10.7539 10.0791 10.4923C10.4131 10.2306 10.8145 10.0693 11.2367 10.0269L18.3629 9.31349L22.1106 1.81423C22.2955 1.44128 22.5808 1.12726 22.9344 0.907491Z" fill="#1B73EE"/>
</svg>
