<svg width="40" height="40" viewBox="0 0 40 40" fill="none" xmlns="http://www.w3.org/2000/svg">
<rect width="40" height="40" rx="6" fill="white"/>
<path d="M11.6667 17.0833H15.8334V28.75H11.6667V17.0833Z" fill="#313131"/>
<path d="M11.6667 13.3333C11.6667 13.8859 11.8845 14.4158 12.2721 14.8065C12.6596 15.1972 13.1853 15.4167 13.7334 15.4167C14.2815 15.4167 14.8072 15.1972 15.1948 14.8065C15.5823 14.4158 15.8001 13.8859 15.8001 13.3333C15.8001 12.7808 15.5823 12.2509 15.1948 11.8602C14.8072 11.4695 14.2815 11.25 13.7334 11.25C13.1853 11.25 12.6596 11.4695 12.2721 11.8602C11.8845 12.2509 11.6667 12.7808 11.6667 13.3333Z" fill="black"/>
<path d="M25.4167 28.75H27.9167C28.0272 28.75 28.1332 28.7061 28.2113 28.6279C28.2894 28.5498 28.3333 28.4438 28.3333 28.3333V21.3333C28.3333 18.1917 26.5583 16.6667 24.075 16.6667C23.5852 16.6487 23.097 16.7337 22.642 16.9159C22.187 17.0982 21.7753 17.3738 21.4333 17.725C21.3877 17.7778 21.3269 17.8153 21.2593 17.8325C21.1917 17.8497 21.1204 17.8458 21.055 17.8213C20.9897 17.7968 20.9334 17.7529 20.8938 17.6954C20.8541 17.638 20.833 17.5698 20.8333 17.5C20.8333 17.3895 20.7894 17.2835 20.7113 17.2054C20.6332 17.1272 20.5272 17.0833 20.4167 17.0833H17.9167C17.8062 17.0833 17.7002 17.1272 17.622 17.2054C17.5439 17.2835 17.5 17.3895 17.5 17.5V28.3333C17.5 28.4438 17.5439 28.5498 17.622 28.6279C17.7002 28.7061 17.8062 28.75 17.9167 28.75H20.4167C20.5272 28.75 20.6332 28.7061 20.7113 28.6279C20.7894 28.5498 20.8333 28.4438 20.8333 28.3333V22.0833C20.8333 21.5308 21.0528 21.0009 21.4435 20.6102C21.8342 20.2195 22.3641 20 22.9167 20C23.4692 20 23.9991 20.2195 24.3898 20.6102C24.7805 21.0009 25 21.5308 25 22.0833V28.3333C25 28.4438 25.0439 28.5498 25.122 28.6279C25.2002 28.7061 25.3062 28.75 25.4167 28.75Z" fill="black"/>
</svg>
