<?xml version="1.0" encoding="utf-8"?>
<!-- Generator: Adobe Illustrator 17.0.1, SVG Export Plug-In . SVG Version: 6.00 Build 0)  -->
<!DOCTYPE svg PUBLIC "-//W3C//DTD SVG 1.1//EN" "http://www.w3.org/Graphics/SVG/1.1/DTD/svg11.dtd">
<svg version="1.1" id="Layer_1" xmlns="http://www.w3.org/2000/svg" xmlns:xlink="http://www.w3.org/1999/xlink" x="0px" y="0px"
	 width="58px" height="45px" viewBox="0 0 58 45" enable-background="new 0 0 58 45" xml:space="preserve">
<path fill="none" stroke="#000000" stroke-width="2" stroke-linecap="round" stroke-linejoin="round" stroke-miterlimit="10" d="
	M43.3,13.874l4.794-4.794 M1,28.587h7.357H1z M28.587,1v7.357V1z M48.817,28.587h7.356H48.817z"/>
<path fill="none" stroke="#000000" stroke-width="2" stroke-linecap="round" stroke-linejoin="round" stroke-miterlimit="10" d="
	M13.123,14.375c-0.105-0.146-0.164-0.32-0.168-0.5c0-0.161,0.042-0.318,0.122-0.458c0.08-0.139,0.194-0.255,0.333-0.336
	c0.138-0.081,0.296-0.125,0.456-0.126c0.161-0.002,0.319,0.039,0.458,0.117l17.238,10.87c0.687,0.44,1.268,1.026,1.701,1.717
	c0.433,0.691,0.708,1.47,0.804,2.279c0.096,0.81,0.011,1.631-0.248,2.404c-0.259,0.773-0.687,1.479-1.252,2.067
	c-0.565,0.588-1.253,1.044-2.016,1.334c-0.762,0.29-1.579,0.408-2.392,0.344c-0.813-0.064-1.602-0.307-2.31-0.712
	c-0.708-0.405-1.317-0.962-1.784-1.631L13.123,14.375z"/>
<path fill="none" stroke="#000000" stroke-width="2" stroke-linecap="round" stroke-linejoin="round" stroke-miterlimit="10" d="
	M51.918,43.3c2.633-4.172,4.098-8.975,4.244-13.906c0.145-4.931-1.035-9.811-3.418-14.132c-2.383-4.32-5.881-7.922-10.13-10.431
	C38.365,2.323,33.521,1,28.587,1c-4.934,0-9.778,1.323-14.027,3.832C10.311,7.34,6.813,10.942,4.43,15.262
	c-2.383,4.32-3.563,9.2-3.418,14.132c0.145,4.931,1.611,9.734,4.244,13.906H51.918z"/>
</svg>
