<?xml version="1.0" encoding="UTF-8"?>
<!-- Generator: Adobe Illustrator 27.0.0, SVG Export Plug-In . SVG Version: 6.00 Build 0)  -->
<svg version="1.1" id="Layer_1" xmlns="http://www.w3.org/2000/svg" xmlns:xlink="http://www.w3.org/1999/xlink" x="0px" y="0px" viewBox="0 0 1080 49" style="enable-background:new 0 0 1080 49;" xml:space="preserve">
<style type="text/css">
	.st0{fill:#313131;}
</style>
<g>
	<path class="st0" d="M909.8,42.8c-1.9,1.1-3.5,1.1-5.5,0.2c-5.6-2.6-10.2-6.2-12.2-12.2c-0.6-1.8-1-3.7-0.9-5.5   c0.1-5.1,0.5-10.3,0.8-15.4c0.1-0.9,0.6-1.4,1.5-1.6c6.1-1.3,12.3-1.8,18.5-1.2c2.6,0.2,5.1,0.7,7.7,1c1.6,0.2,2.2,0.8,2.3,2.3   c0.3,4.9,0.8,9.8,0.8,14.7c-0.1,7.3-3.8,12.6-10.2,16.4c-2.8-5.4-5.6-10.8-8.4-16.2c1.2-0.8,2.5-1.1,3.9-0.8c1,0.2,2,0.5,2.9,0.9   c2,0.8,4,0.7,6-0.2c3.5-1.8,2.9-1.2,2.8-4.8c0-0.9-0.2-1.8-0.2-2.7c-0.1-0.9-0.1-1.7-0.2-2.6c-1.2,0.4-2.4,0.8-3.6,1.2   c-2.3,0.6-4.5,0.4-6.7-0.6c-1.8-0.8-3.6-1.7-5.6-1.4c-1.4,0.2-2.8,0.5-4.3,0.8c0.3-2.6-2.3-2.9-3.7-4.3c-0.4-0.3-0.8-0.1-0.8,0.5   c0,1.3-0.1,2.6,0,3.9c0,0.4,0.6,0.8,0.9,1.1c0.4,0.4,0.9,0.8,1.1,1.2c4.3,8.3,8.7,16.6,13,24.9C909.6,42.4,909.7,42.6,909.8,42.8z    M905,40.1c0.1-0.1,0.2-0.2,0.2-0.2c-3.6-7-7.2-14.1-10.8-21.1c-0.1,0-0.2,0-0.3,0.1c0,0.7,0,1.5,0,2.3c0,2.1-0.2,4.1,0.1,6.2   c0.6,4.9,3.5,8.5,7.6,11.1C902.8,39,903.9,39.6,905,40.1z M913.5,37.3c3.5-2.8,5.7-6.3,6.2-11c-3.7,3.2-7.5,2.8-11.5,1   C910,30.6,911.7,33.9,913.5,37.3z M898.5,10.3c1.2,1.3,2.5,1.8,3.6,1.7c1.3-0.1,2.7,0,4,0.2c1.2,0.2,2.4,0.8,3.5,1.1   c3,1,6,0.7,8.8-0.7c0.3-0.1,0.5-0.6,0.6-1c0.1-0.5-0.1-0.8-0.7-1c-5.2-1-10.4-1.3-15.7-1C901.2,9.9,899.9,10.1,898.5,10.3z"/>
	<path class="st0" d="M1030,29c0-5.6,0-11,0-16.6c2.8,0.1,5.5,0.1,8.1,0.4c2,0.2,3,1.6,3.1,3.5c0.2,1.9-0.7,3.3-2.6,4   c-0.1,0.1-0.3,0.1-0.6,0.3c0.3,0.1,0.4,0.2,0.6,0.3c2.2,0.4,3,1.9,3,4c-0.1,2.1-1.4,3.7-3.5,4c-2,0.2-4,0.2-6,0.2   C1031.5,29,1030.8,29,1030,29z M1033,27c1.3-0.1,2.5-0.1,3.7-0.3c1.1-0.2,1.8-1.2,1.8-2.4c0-1.3-0.5-2.3-1.5-2.5   c-1.3-0.2-2.6-0.2-4-0.4C1033,23.4,1033,25.1,1033,27z M1032.9,14.6c0,1.5,0,3,0,4.4c0,0.2,0.4,0.5,0.6,0.5c1,0,2,0,3-0.2   c1.2-0.3,1.8-1.2,1.7-2.7c-0.1-1.2-0.8-2-2-2.1C1035.2,14.5,1034.2,14.6,1032.9,14.6z"/>
	<path class="st0" d="M1021.2,28.9c-0.8,0-1.6,0-2.4,0c-0.1-0.4-0.2-0.8-0.3-1.1c-0.8,0.4-1.6,1-2.5,1.2c-2.5,0.6-4.6-0.8-5.3-3.5   c-0.4-1.7-0.4-3.5,0.1-5.2c1-3.4,3.9-4.4,6.9-2.4c0.2,0.1,0.3,0.2,0.7,0.4c0-0.9,0-1.6,0-2.4c0-1.1,0-2.3,0-3.4   c0-0.3,0.3-0.7,0.5-0.8c0.7-0.2,1.5-0.2,2.3-0.3C1021.2,17.4,1021.2,23.1,1021.2,28.9z M1018.4,23c0-0.7,0-1.4,0-2.1   c0-0.2,0-0.6-0.2-0.7c-1.3-1.4-3.9-1-4.3,0.8c-0.3,1.4-0.2,3,0,4.4c0.2,1.2,1.2,1.6,2.5,1.4c1.4-0.2,2-0.9,2-2.1   C1018.4,24.1,1018.4,23.6,1018.4,23z"/>
	<path class="st0" d="M987.8,28.9c-0.8,0-1.6,0-2.4,0c-0.1-0.4-0.2-0.8-0.3-1.1c-0.8,0.4-1.6,1-2.5,1.3c-2.3,0.6-4.3-0.6-5.1-2.9   c-0.7-2.1-0.7-4.2,0.1-6.2c1.1-3,4-3.8,6.6-2c0.2,0.1,0.4,0.3,0.8,0.5c0-1.2,0-2.2,0-3.3c0-1,0-2.1,0-3.2c0.9-0.1,1.8-0.3,2.8-0.4   C987.8,17.4,987.8,23.1,987.8,28.9z M985,23c0-0.7,0-1.4,0-2.1c0-0.2,0-0.5-0.1-0.7c-1-1.3-3.7-1.1-4.3,0.4c-0.7,1.6-0.6,3.3,0,5   c0.4,1.1,1.3,1.5,2.7,1.2c1.2-0.3,1.8-0.9,1.8-2.1C985,24.1,985,23.5,985,23z"/>
	<path class="st0" d="M930.4,28c0.4-0.7,0.7-1.3,0.9-1.7c1.5,0.2,2.8,0.5,4.2,0.6c0.5,0.1,1.1-0.1,1.6-0.3c0.9-0.4,1.5-1.1,1.5-2   c0.1-1-0.5-1.6-1.4-2c-1.1-0.5-2.3-0.8-3.4-1.3c-2.7-1.1-3.7-2.9-3.1-5.6c0.3-1.4,1.2-2.3,2.4-2.9c2.6-1.1,5.3-0.7,7.9,0.3   c-0.2,0.7-0.5,1.3-0.6,1.8c-1.5-0.1-3-0.3-4.4-0.4c-1.4,0-2.3,0.8-2.4,1.9c-0.2,1,0.4,1.8,1.7,2.3c0.9,0.4,1.9,0.6,2.9,1   c2.6,1,3.7,2.4,3.5,4.6c-0.2,2.6-1.6,4.2-4.3,4.7C935,29.4,932.7,29.2,930.4,28z"/>
	<path class="st0" d="M1069.3,12c0.9-0.1,1.9-0.3,2.9-0.4c0,3.6,0,7.2,0,10.7c0.1,0.1,0.3,0.2,0.4,0.3c0.1-0.3,0.1-0.6,0.3-0.8   c0.9-1.2,1.9-2.3,2.8-3.4c0.6-0.9,1.3-1.3,2.4-1.1c0.4,0.1,0.9,0,1.6,0c-1.6,2-3.2,3.8-4.7,5.6c1.6,2,3.2,4,5,6.1   c-1.2,0-2.1,0-3.1,0c-0.2,0-0.5-0.3-0.7-0.5c-1.1-1.4-2.2-2.8-3.4-4.2c-0.2-0.2-0.3-0.4-0.7-0.7c0,1.9,0,3.6,0,5.4c-1,0-1.9,0-3,0   C1069.3,23.3,1069.3,17.7,1069.3,12z"/>
	<path class="st0" d="M1056,17.3c0.8,0,1.6,0,2.4,0c0.1,0.5,0.1,0.9,0.2,1.5c0.6-0.4,1.1-0.7,1.6-1c1.2-0.7,2.4-1,3.8-0.7   c1.4,0.3,2.1,1.1,2.2,2.8c0.1,3,0,6,0,9c-1,0-1.9,0-2.9,0c0-1.9,0-3.7,0-5.5c0-0.8,0-1.7,0-2.5c0-1.1-0.7-1.7-1.8-1.5   c-0.8,0.1-1.5,0.5-2.2,0.9c-0.2,0.1-0.3,0.6-0.3,0.9c0,2.2,0,4.5,0,6.7c0,0.3,0,0.6,0,1c-1,0-1.9,0-2.8,0   C1056,25,1056,21.2,1056,17.3z"/>
	<path class="st0" d="M964.3,28.9c0-3.9,0-7.7,0-11.6c0.8,0,1.6,0,2.4,0c0.1,0.4,0.2,0.9,0.3,1.5c0.5-0.3,1-0.6,1.5-0.9   c1.3-0.7,2.6-1.1,4.1-0.7c1.1,0.3,1.8,1,1.9,2.1c0.1,3.2,0,6.4,0,9.6c-0.8,0-1.7,0-2.8,0c0-0.8,0-1.7,0-2.6c0-1.8,0-3.5,0-5.3   c0-1.3-0.7-1.9-1.9-1.7c-0.8,0.1-1.5,0.5-2.2,0.9c-0.2,0.1-0.4,0.7-0.4,1c0,2.5,0,5,0,7.5C966.1,28.9,965.2,28.9,964.3,28.9z"/>
	<path class="st0" d="M958.5,21.8c0.1-2.8-0.8-2.8-3.5-2.6c-0.5,0-1,0.2-1.7,0.4c-0.2-0.5-0.3-1-0.5-1.6c2.1-0.8,4.2-1.3,6.4-0.8   c1.1,0.3,1.9,1,1.9,2.2c0.1,3.1,0,6.3,0,9.5c-0.7,0-1.4,0-2.2,0c-0.1-0.3-0.2-0.7-0.3-1c-0.9,0.4-1.7,1-2.6,1.2   c-2.6,0.6-4.5-1-4.3-3.7c0.1-2.1,1.6-3.3,4.1-3.4C956.7,22,957.6,21.9,958.5,21.8z M958.5,23.1c-1.2,0.3-2.2,0.3-3.1,0.7   c-0.8,0.3-1.2,1.7-0.8,2.5c0.4,0.9,1.2,0.9,2.1,0.8c1.1-0.1,1.7-0.8,1.7-1.7C958.6,24.8,958.5,24.1,958.5,23.1z"/>
	<path class="st0" d="M1045.1,19.5c-0.1-0.5-0.3-0.9-0.4-1.5c2-0.8,4.1-1.3,6.2-0.8c1.2,0.3,2,1,2,2.2c0.1,3.1,0,6.3,0,9.5   c-1.7,0.4-2.2,0.2-2.5-1c-0.7,0.4-1.4,0.9-2.2,1.1c-2,0.7-3.8,0-4.4-1.8c-0.7-2.3-0.1-4.1,2.1-4.8c0.7-0.2,1.4-0.3,2.2-0.4   c0.7-0.1,1.4-0.1,2.1-0.2c0.5-1.9-0.1-2.7-2-2.6C1047.1,19.2,1046.1,19.4,1045.1,19.5z M1050.3,23.1c-1.1,0.2-2.1,0.3-3,0.7   c-0.9,0.3-1.2,1.5-0.9,2.4c0.3,0.8,1.1,1.2,2.2,1c1-0.2,1.7-0.8,1.7-1.8C1050.3,24.8,1050.3,24.1,1050.3,23.1z"/>
	<path class="st0" d="M999.6,28.9c-0.9,0-1.6,0-2.4,0c-0.1-0.4-0.2-0.7-0.3-1c-1,0.4-2,1-3,1.2c-1.7,0.4-3.1-0.5-3.6-1.9   c-0.7-2-0.1-3.9,1.5-4.5c1.3-0.5,2.7-0.6,4.1-0.8c0.2,0,0.5,0,0.7-0.1c0.4-1.9-0.1-2.7-2.1-2.6c-1,0-1.9,0.2-3,0.3   c-0.1-0.5-0.3-0.9-0.4-1.5c1.8-0.8,3.6-1.2,5.5-1c1.9,0.2,2.8,1.1,2.9,3.2C999.7,23.1,999.6,26,999.6,28.9z M996.8,23.3   c-1.1,0-2.2-0.1-3.1,0.6c-0.8,0.6-0.9,1.4-0.6,2.2c0.2,0.7,0.7,1.1,1.5,1.1c0.9,0,1.9-0.3,2.2-1.1C997,25.3,996.8,24.3,996.8,23.3z   "/>
	<path class="st0" d="M943.9,19.1c-0.7,0-1.3,0-1.9,0c-0.2-1.5-0.2-1.5,1.1-1.7c0.7-0.1,0.9-0.5,1-1c0.1-0.8,0.2-1.6,0.3-2.5   c0.8-0.1,1.6-0.3,2.5-0.4c0,1.3,0,2.5,0,3.7c1.2,0,2.4,0,3.5,0c0.1,0.1,0.1,0.2,0.1,0.2c-0.3,1.7-0.3,1.7-2.2,1.7   c-0.4,0-0.9,0-1.4,0c0,2.4-0.1,4.7,0.1,7c0,0.4,0.7,0.9,1.1,1c0.7,0.1,1.4-0.1,2.2-0.2c0.1,0.4,0.3,0.9,0.5,1.5   c-1.6,0.7-3.1,1.1-4.8,0.7c-1.2-0.3-1.9-0.9-1.9-2.1c-0.1-2-0.1-4-0.2-6.1C943.9,20.4,943.9,19.9,943.9,19.1z"/>
	<path class="st0" d="M1005.7,28.9c-1,0-1.9,0-2.9,0c0-3.9,0-7.7,0-11.6c0.8,0,1.6,0,2.4,0c0.1,0.6,0.2,1.2,0.3,1.9   c1.3-1.3,2.5-2.2,4.3-2.2c0,0.8,0,1.7,0,2.2c-1.2,0.5-2.4,0.8-3.4,1.4c-0.4,0.2-0.7,0.9-0.7,1.4   C1005.6,24.3,1005.7,26.5,1005.7,28.9z"/>
</g>
<g>
	<path class="st0" d="M13.7,14.1c0.1,0,0.2,0,0.2,0c1.6,0.1,3.1,0.5,4.5,1.1c3.7,1.7,6.4,5.1,7.3,9.1c0.3,1.3,0.4,2.6,0.4,4   c-0.3,5.7-3.9,10.3-8.8,12c-0.8,0.3-1.7,0.5-2.6,0.6c-0.3,0-0.5,0.1-0.8,0.1c-0.1,0-0.2,0-0.2,0.1c-0.4,0-0.8,0-1.2,0   c-0.1,0-0.2,0-0.2-0.1c-0.3,0-0.5-0.1-0.8-0.1c-0.8-0.1-1.7-0.3-2.5-0.6c-3.5-1.2-6-3.5-7.6-6.9c-0.6-1.3-1-2.6-1.2-4.1   c0-0.3-0.1-0.6-0.1-1c0-0.1,0-0.2-0.1-0.3c0-0.4,0-0.8,0-1.2c0.1-0.1,0.1-0.2,0.1-0.3c0-0.8,0.2-1.5,0.3-2.3c1-4.1,3.8-7.6,7.7-9.2   c1.3-0.6,2.7-0.9,4.2-1c0.1,0,0.2,0,0.2,0C12.9,14.1,13.3,14.1,13.7,14.1z M22.9,34.2C22.9,34.2,22.9,34.2,22.9,34.2   c0.1-0.1,0.2-0.2,0.2-0.3c1-1.6,1.5-3.4,1.7-5.3c0.1-1.3,0-2.5-0.3-3.8c-0.7-3-2.3-5.5-4.8-7.3c-1.6-1.2-3.5-1.9-5.5-2.1   c-0.6-0.1-1.2-0.1-1.9,0c-0.7,0.1-1.5,0.2-2.2,0.4c-2.4,0.7-4.4,2-6,4c-1.6,2-2.5,4.4-2.7,7c0,0.7,0,1.3,0,2   c0.1,1.1,0.3,2.1,0.7,3.2c0.3,0.8,0.6,1.5,1,2.2c0,0,0,0.1,0.1,0.1c0-0.1,0-0.2,0-0.3c0.1-0.4,0.2-0.8,0.3-1.3   c0.3-0.9,0.7-1.7,1.2-2.5c0.4-0.7,0.9-1.3,1.4-1.9c0.5-0.6,1-1.1,1.5-1.6C7.9,26.6,8,26.5,8,26.4c0-0.1-0.1-0.1-0.1-0.2   c-0.3-0.3-0.5-0.7-0.7-1c-0.3-0.5-0.6-1.1-0.8-1.7c-0.3-0.8-0.4-1.7-0.2-2.6c0.2-0.7,0.5-1.3,1-1.8c0.5-0.5,1.1-0.8,1.8-0.8   c0.7,0,1.3,0.1,1.8,0.5c0.5,0.4,0.9,0.9,1.1,1.5c0.3,0.9,0.3,1.8,0.1,2.8c-0.2,0.7-0.5,1.4-1,2c-0.3,0.4-0.6,0.8-0.9,1.2   c0,0-0.1,0.1-0.1,0.2c0.1,0.1,0.2,0.2,0.3,0.2c0.9,0.8,1.9,1.6,2.8,2.5c0,0,0.1,0.1,0.1,0.1c1-0.9,2.1-1.8,3.1-2.8   c0-0.1-0.1-0.1-0.1-0.2c-0.2-0.2-0.4-0.4-0.5-0.7c-0.4-0.6-0.8-1.2-1.1-1.9c-0.4-0.9-0.5-1.8-0.3-2.8c0.1-0.6,0.4-1.2,0.8-1.7   c0.9-1,2.3-1.3,3.5-0.5c0.6,0.4,1,0.9,1.3,1.5c0.3,0.8,0.4,1.5,0.3,2.4c-0.1,0.6-0.3,1.2-0.5,1.8c-0.3,0.7-0.7,1.3-1.2,1.9   c-0.1,0.1-0.1,0.2-0.2,0.2c0.1,0.1,0.2,0.2,0.3,0.4c0.7,0.7,1.4,1.5,2,2.2c0.6,0.7,1.1,1.5,1.5,2.3c0.3,0.7,0.6,1.4,0.7,2.2   C22.8,33.8,22.8,34,22.9,34.2z M9,27.3c0,0-0.1,0.1-0.1,0.1c-0.5,0.5-0.9,1-1.4,1.5c-0.7,0.8-1.3,1.6-1.9,2.6   C5,32.7,4.5,34,4.4,35.4c0,0.2,0,0.3,0.1,0.4c2.1,2.4,4.7,3.7,7.9,3.9c1,0.1,2,0,2.9-0.2c1.7-0.3,3.2-1,4.6-2.1   c0.6-0.5,1.2-1,1.8-1.6c0.1-0.1,0.1-0.2,0.1-0.3c0-0.2,0-0.4-0.1-0.5c-0.1-0.9-0.4-1.8-0.8-2.7c-0.4-0.9-0.9-1.7-1.5-2.5   c-0.7-0.9-1.4-1.6-2.1-2.4c0,0-0.1-0.1-0.1-0.1c0,0-0.1,0.1-0.1,0.1c-0.4,0.4-0.9,0.8-1.3,1.1c-0.5,0.5-1.1,1-1.6,1.5   C14.1,30,14,30.1,14,30.2c0.1,0.1,0.1,0.1,0.2,0.2c0.2,0.3,0.5,0.6,0.7,0.9c0.3,0.5,0.6,1,0.9,1.5c0.4,0.9,0.5,1.8,0.3,2.8   c-0.1,0.7-0.5,1.3-1,1.8c-1,0.9-2.5,1-3.6,0.1c-0.5-0.4-0.9-1-1.1-1.6c-0.2-0.9-0.2-1.7,0-2.6c0.2-0.7,0.5-1.2,0.9-1.8   c0.3-0.4,0.6-0.8,0.9-1.2c0-0.1,0.1-0.1,0.1-0.2C12,29.9,9.7,27.8,9,27.3z M9,25.5C9,25.5,9,25.5,9,25.5c0.4-0.5,0.8-0.9,1.1-1.4   c0.5-0.9,0.7-1.9,0.5-2.9c-0.1-0.4-0.2-0.7-0.4-1c-0.5-0.8-1.5-0.8-2-0.2c-0.2,0.2-0.3,0.3-0.4,0.5c-0.2,0.4-0.3,0.8-0.3,1.2   c0,0.7,0.1,1.3,0.3,2C8.1,24.3,8.5,24.9,9,25.5C8.9,25.5,9,25.5,9,25.5z M17.2,25.5C17.3,25.5,17.3,25.4,17.2,25.5   c0.4-0.5,0.7-1,1-1.5c0.3-0.6,0.5-1.3,0.5-2c0-0.4-0.1-0.9-0.2-1.3c-0.1-0.3-0.3-0.5-0.5-0.8c-0.6-0.5-1.5-0.5-2,0.2   c-0.1,0.2-0.2,0.4-0.3,0.7c-0.2,0.6-0.2,1.2-0.1,1.8c0.1,0.6,0.3,1.1,0.7,1.7C16.5,24.7,16.8,25.1,17.2,25.5   C17.2,25.5,17.2,25.5,17.2,25.5z M13.1,31.2C13.1,31.2,13.1,31.2,13.1,31.2c-0.4,0.5-0.8,1.1-1.1,1.6c-0.3,0.5-0.4,1.1-0.5,1.7   c0,0.4,0,0.9,0.2,1.3c0.2,0.3,0.4,0.6,0.7,0.8c0.4,0.3,0.9,0.3,1.3,0c0.1-0.1,0.2-0.2,0.3-0.3c0.2-0.2,0.4-0.5,0.4-0.8   c0.2-0.5,0.2-1.1,0.1-1.6c-0.1-0.5-0.3-1-0.5-1.4C13.8,32.1,13.5,31.7,13.1,31.2C13.2,31.3,13.1,31.2,13.1,31.2z"/>
	<path class="st0" d="M245.8,29.9c0,0.1,0,0.2,0,0.3c0,1-0.1,2-0.1,3c0,0.3,0,0.6-0.1,0.9c-0.1,1-0.1,2-0.2,3c0,0.1,0,0.1,0,0.2   c-0.1,0-0.1,0-0.1,0c-0.1,0-0.1,0-0.2,0c-4.8,0-9.6,0-14.5,0c-0.1,0-0.2,0-0.3,0c0-0.2,0-0.5,0-0.8c0,0,0.1,0,0.1,0   c0.2,0,0.5,0,0.7,0c0.2,0,0.4,0,0.6-0.1c0.4-0.1,0.7-0.4,0.8-0.8c0.1-0.2,0.1-0.5,0.1-0.7c0-0.1,0-0.1,0-0.2c0-4.7,0-9.4,0-14.1   c0-0.3,0-0.6-0.1-0.8c0-0.1,0-0.1-0.1-0.2c-0.1-0.3-0.3-0.6-0.7-0.7c-0.2-0.1-0.4-0.1-0.6-0.1c-0.2,0-0.5,0-0.7,0   c-0.1,0-0.2,0-0.2,0c0-0.1,0-0.1,0-0.1c0-0.2,0-0.4,0-0.6c0,0,0,0,0-0.1c0,0,0.1,0,0.1,0c0.1,0,0.1,0,0.2,0c4.7,0,9.4,0,14.1,0   c0.1,0,0.2,0,0.3,0c0.1,0.1,0,0.1,0,0.2c0,0.4,0,0.8,0,1.3c0,0.7,0,1.4,0.1,2.1c0,1.1,0.1,2.1,0.1,3.2c0,0.2,0,0.3,0,0.5   c-0.1,0.1-0.3,0-0.4,0c-0.1,0-0.3,0-0.4,0c0-0.2-0.1-0.5-0.1-0.7c-0.1-0.9-0.3-1.7-0.7-2.6c-0.2-0.6-0.5-1.1-0.8-1.6   c-0.5-0.6-1-1.1-1.7-1.3c-0.4-0.1-0.8-0.2-1.2-0.2c-0.7,0-1.3,0-2,0c-0.2,0-0.4,0-0.6,0.1c-0.4,0.1-0.6,0.3-0.7,0.7   c0,0.1-0.1,0.3-0.1,0.4c0,0.2,0,0.3,0,0.5c0,2,0,4,0,6c0,0.1,0,0.2,0,0.3c0,0,0.1,0,0.1,0c0.3,0,0.7,0,1,0c0.3,0,0.6-0.1,0.9-0.2   c0.6-0.2,1.1-0.6,1.5-1.2c0.2-0.4,0.3-0.8,0.4-1.2c0.1-0.4,0.1-0.8,0.1-1.2c0-0.1,0-0.1,0-0.2c0.1-0.1,0.3,0,0.4-0.1   c0.1,0,0.3,0,0.4,0c0,0.1,0,0.1,0,0.2c0,0.1,0,0.1,0,0.2c0,2.8,0,5.7,0,8.5c0,0.1,0,0.2,0,0.3c-0.2,0.1-0.6,0.1-0.8,0   c0-0.1,0-0.2,0-0.2c0-0.5-0.1-1-0.2-1.5c-0.1-0.3-0.2-0.7-0.3-1c-0.4-0.8-1.1-1.3-2-1.5c-0.1,0-0.3,0-0.4,0c-0.3,0-0.7,0-1,0   c0,0-0.1,0-0.2,0c0,0.1,0,0.2,0,0.2c0,0.3,0,0.6,0,0.9c0,1.9,0,3.9,0,5.8c0,0.3,0,0.5,0.1,0.8c0,0.1,0,0.2,0.1,0.2   c0.1,0.3,0.3,0.5,0.6,0.6c0.2,0.1,0.4,0.1,0.7,0.1c0,0,0.1,0,0.1,0c0.8,0,1.5,0,2.3,0c0.4,0,0.9-0.1,1.3-0.3   c0.6-0.2,1.1-0.6,1.5-1.1c0.4-0.5,0.7-1.1,1-1.7c0.3-0.7,0.5-1.5,0.7-2.2c0.1-0.5,0.2-1,0.3-1.5c0,0,0-0.1,0-0.1c0.3,0,0.5,0,0.8,0   C245.8,29.6,245.8,29.8,245.8,29.9z"/>
	<path class="st0" d="M61,17.5c0.6,0,1.2,0,1.8,0c0,0.1,0.1,0.2,0.1,0.3c0.8,2.1,1.5,4.3,2.3,6.4c1.2,3.5,2.4,6.9,3.7,10.4   c0.1,0.2,0.2,0.5,0.3,0.7c0.1,0.2,0.2,0.4,0.4,0.6c0.4,0.4,0.9,0.7,1.5,0.7c0.3,0,0.7,0,1,0c0.1,0,0.2,0,0.3-0.1   c0.5-0.1,0.8-0.4,1-0.9c0.2-0.3,0.2-0.7,0.3-1c0.1-0.6,0.1-1.1,0.1-1.7c0-4.1,0-8.2,0-12.4c0,0,0-0.1,0-0.1c0,0,0-0.1-0.1-0.1   c-0.5-0.6-1.1-1-1.9-1.2c-0.2-0.1-0.5-0.1-0.7-0.1c0,0-0.1,0-0.1,0c-0.1-0.2-0.1-0.5-0.1-0.9c0,0,0.1,0,0.1,0c0.1,0,0.1,0,0.2,0   c1.9,0,3.8,0,5.7,0c0.1,0,0.2,0,0.3,0c0,0.1,0.1,0.1,0.1,0.2c1.3,1.9,2.5,3.9,3.8,5.8c1.5,2.3,3,4.6,4.5,7c0,0.1,0.1,0.1,0.1,0.2   c0,0,0-0.1,0-0.1c0-0.1,0-0.2,0-0.2c0-2.7,0-5.4,0-8c0-0.4,0-0.9,0-1.3c0-0.4-0.1-0.8-0.2-1.2c0-0.1-0.1-0.3-0.1-0.4   c-0.2-0.4-0.5-0.7-1-0.9c-0.3-0.1-0.6-0.1-0.9-0.2c-0.1,0-0.3,0-0.5,0c-0.1-0.1,0-0.3,0-0.4c0-0.1,0-0.3,0-0.4c0,0,0.1,0,0.1,0   c0.1,0,0.1,0,0.2,0c1.9,0,3.9,0,5.8,0c0.1,0,0.2,0,0.3,0c0.1,0.2,0.1,0.6,0,0.9c-0.1,0-0.2,0-0.3,0c-0.3,0-0.6,0-0.9,0.1   c-0.5,0.1-0.9,0.5-1.1,1c-0.1,0.3-0.2,0.6-0.3,1c-0.1,0.6-0.1,1.2-0.1,1.8c0,3.8,0,7.6,0,11.5c0,1.1,0,2.2,0,3.3c0,0.1,0,0.2,0,0.3   c-0.3,0-0.5,0-0.8,0c-0.3,0-0.5,0-0.8,0c-1.2-1.8-2.3-3.5-3.4-5.3c-1.1-1.8-2.3-3.5-3.4-5.3c-1.1-1.8-2.3-3.5-3.5-5.3   c0,0.1,0,0.1,0,0.1c0,0.1,0,0.2,0,0.2c0,3.5,0,7,0,10.5c0,0.4,0,0.7,0,1.1c0,0.4,0.1,0.9,0.2,1.3c0,0.1,0.1,0.2,0.1,0.4   c0.2,0.5,0.5,0.8,1,1c0.3,0.1,0.6,0.1,0.9,0.1c0.1,0,0.2,0,0.3,0c0,0.2,0.1,0.5,0,0.8c0,0-0.1,0-0.1,0c-0.1,0-0.1,0-0.2,0   c-4.8,0-9.6,0-14.3,0c-0.1,0-0.2,0-0.3,0c0-0.2,0-0.6,0-0.8c0.1,0,0.1,0,0.2,0c0.2,0,0.4,0,0.6,0c0.2,0,0.4,0,0.6-0.1   c0.1,0,0.2-0.1,0.3-0.1c0.3-0.2,0.5-0.4,0.5-0.8c0-0.4,0-0.8-0.1-1.2c0-0.2-0.1-0.4-0.2-0.6c-0.3-0.8-0.5-1.6-0.8-2.4   c0-0.1-0.1-0.1-0.1-0.2c-0.2,0-5.9,0-6.2,0c0,0,0,0,0,0.1c-0.2,0.6-0.4,1.2-0.6,1.9c-0.2,0.7-0.3,1.3-0.4,2c0,0.2,0,0.3,0,0.5   c0.1,0.4,0.3,0.7,0.7,0.8c0.2,0.1,0.5,0.1,0.8,0.1c0.1,0,0.3,0,0.4,0c0,0,0.1,0,0.1,0c0,0.2,0.1,0.5,0,0.8c0,0-0.1,0-0.1,0   c-0.1,0-0.1,0-0.2,0c-4.6,0-9.2,0-13.9,0c-0.1,0-0.2,0-0.3,0c-0.1-0.2-0.1-0.6,0-0.9c0.1,0,0.1,0,0.2,0c0.3,0,0.6,0,0.9,0   c0.2,0,0.4,0,0.6-0.1c0.4-0.1,0.6-0.3,0.7-0.7c0-0.2,0.1-0.3,0.1-0.5c0-0.2,0-0.3,0-0.5c0-4.8,0-9.6,0-14.4c0-0.1,0-0.2,0-0.3   c-0.1,0-0.1,0-0.2,0c-0.2,0.7-0.5,1.5-0.7,2.2c-0.2,0.7-0.4,1.5-0.7,2.2c-0.2,0.7-0.5,1.5-0.7,2.2c-0.2,0.7-0.5,1.5-0.7,2.2   c-0.2,0.7-0.4,1.5-0.7,2.2c-0.2,0.7-0.5,1.5-0.7,2.2c-0.2,0.7-0.4,1.5-0.7,2.2c-0.2,0.7-0.4,1.5-0.7,2.2c-0.4,0-0.9,0-1.3,0   c0,0,0,0,0,0c0,0,0,0,0,0c0,0,0,0,0,0c0,0,0,0,0,0c-1.8-5.9-3.6-11.7-5.4-17.6c0,0,0,0,0,0c-0.1-0.1-0.1,0-0.2,0c0,0.1,0,0.1,0,0.1   c0,0.1,0,0.2,0,0.2c0,4.2,0,8.4,0,12.6c0,0.4,0,0.9,0,1.3c0,0.3,0.1,0.6,0.1,0.9c0,0.1,0,0.2,0.1,0.2c0.2,0.6,0.6,1,1.3,1.1   c0.3,0.1,0.6,0.1,0.8,0.1c0.1,0,0.3,0,0.4,0c0.1,0.2,0,0.3,0,0.4c0,0.1,0,0.3,0,0.4c-0.1,0-0.1,0-0.1,0c-0.1,0-0.2,0-0.3,0   c-1.9,0-3.8,0-5.7,0c-0.1,0-0.2,0-0.3,0c0-0.2-0.1-0.5,0-0.9c0,0,0.1,0,0.2,0c0.2,0,0.5,0,0.7-0.1c0.1,0,0.2,0,0.3-0.1   c0.5-0.1,0.8-0.4,1-0.9c0.1-0.3,0.2-0.6,0.2-0.9c0.1-0.5,0.1-0.9,0.1-1.4c0-1.5,0-3.1,0-4.6c0-2.6,0-5.3,0-7.9c0-0.3,0-0.5,0-0.8   c0,0,0-0.1,0-0.1c-0.1-0.5-0.4-0.8-0.9-0.9c-0.3-0.1-0.5-0.1-0.8-0.1c-0.2,0-0.4,0-0.6,0c-0.1-0.1,0-0.3,0-0.4c0-0.1,0-0.3,0-0.4   c0.1,0,0.1,0,0.1,0c0.1,0,0.1,0,0.2,0c2.1,0,4.2,0,6.3,0c0.1,0,0.2,0,0.3,0c0,0.1,0.1,0.2,0.1,0.3c0.6,1.9,1.1,3.7,1.7,5.6   c0.8,2.5,1.5,5.1,2.3,7.6c0,0.1,0.1,0.2,0.1,0.3c0-0.1,0.1-0.2,0.1-0.3c0.4-1.3,0.8-2.7,1.2-4c0.9-3.1,1.8-6.1,2.8-9.2   c0-0.1,0.1-0.2,0.1-0.3c0.2,0,6.8,0,7,0c0.1,0.1,0,0.3,0,0.4c0,0.1,0,0.3,0,0.4c-0.1,0-0.1,0-0.2,0c-0.3,0-0.5,0-0.8,0   c-0.2,0-0.4,0-0.6,0.1c-0.4,0.1-0.6,0.4-0.7,0.7c-0.1,0.2-0.1,0.4-0.1,0.7c0,0.1,0,0.2,0,0.4c0,4.6,0,9.3,0,13.9c0,0.3,0,0.5,0,0.8   c0,0.1,0.1,0.3,0.1,0.4c0.1,0.3,0.3,0.5,0.6,0.6c0.2,0.1,0.4,0.1,0.6,0.1c0.4,0,0.8,0,1.2,0c0.7,0,1.2-0.3,1.6-0.9   c0.2-0.3,0.4-0.6,0.5-0.9c0.2-0.5,0.4-1,0.6-1.5c1.8-5.1,3.6-10.3,5.4-15.4C60.9,17.6,61,17.6,61,17.5z M57.9,29.9   C57.9,29.9,57.9,29.9,57.9,29.9c1.8,0,3.5,0,5.2,0c0,0,0,0,0.1,0c0,0,0-0.1,0-0.1c-0.9-2.5-1.7-5.1-2.6-7.6c0,0,0,0,0-0.1   c0,0,0,0,0,0.1C59.6,24.8,58.8,27.3,57.9,29.9C57.9,29.9,57.9,29.9,57.9,29.9z"/>
	<path class="st0" d="M140.3,18.8c0-0.3,0-0.6,0-0.9c0.1,0,0.1,0,0.1,0c0.1,0,0.1,0,0.2,0c2.7,0,5.4,0,8.1,0c0.1,0,0.2,0,0.3,0   c0.1,0.2,0.1,0.6,0,0.9c-0.1,0-0.1,0-0.2,0c-0.3,0-0.6,0-0.9,0c-0.2,0-0.4,0-0.6,0.1c-0.4,0.1-0.6,0.4-0.7,0.7   c0,0.2-0.1,0.3-0.1,0.5c0,0.1,0,0.3,0,0.4c0,3.5,0,6.9,0,10.4c0,0.6,0,1.2,0.2,1.8c0.1,0.4,0.2,0.7,0.3,1.1c0.4,1,1.1,1.6,2.2,1.9   c0.7,0.2,1.4,0.2,2.1,0.2c0.3,0,0.7-0.1,1-0.2c1-0.3,1.7-1,2.1-1.9c0.3-0.6,0.4-1.1,0.5-1.8c0.1-0.4,0.1-0.9,0.1-1.3   c0-2.8,0-5.5,0-8.3c0-0.5,0-1-0.1-1.6c0-0.3-0.1-0.6-0.2-0.9c-0.2-0.6-0.6-1-1.2-1.1c-0.3-0.1-0.6-0.1-1-0.1c-0.1,0-0.2,0-0.3,0   c0-0.2,0-0.6,0-0.8c0,0,0.1,0,0.1,0c0.1,0,0.1,0,0.2,0c4.3,0,8.6,0,12.9,0c0.1,0,0.2,0,0.3,0c0.3,0.9,0.6,1.8,0.8,2.7   c0.3,0.9,0.5,1.8,0.8,2.7c0.3,0.9,0.6,1.8,0.8,2.7c0.3,0.9,0.6,1.8,0.8,2.7c0.3,0.9,0.6,1.8,0.8,2.8c0.1,0,0.1-0.1,0.1-0.2   c0.3-0.9,0.5-1.8,0.8-2.7c1.1-3.5,2.1-7.1,3.2-10.6c0-0.1,0.1-0.2,0.1-0.2c0.1-0.1,0.2,0,0.3,0c0.8,0,1.6,0,2.4,0   c1.4,0,2.7,0,4.1,0c0.1,0,0.2,0,0.3,0c0,0.2,0,0.6,0,0.8c0,0-0.1,0-0.2,0c-0.3,0-0.5,0-0.8,0c-0.2,0-0.4,0-0.6,0.1   c-0.4,0.1-0.7,0.4-0.8,0.8c-0.1,0.2-0.1,0.5-0.1,0.7c0,0.1,0,0.2,0,0.2c0,4.7,0,9.4,0,14.1c0,0.2,0,0.4,0,0.6c0,0.1,0,0.3,0.1,0.4   c0.1,0.4,0.4,0.6,0.7,0.7c0.2,0.1,0.4,0.1,0.7,0.1c0.2,0,0.4,0,0.7,0c0.1,0,0.1,0,0.2,0c0,0.2,0,0.6,0,0.8c0,0-0.1,0-0.1,0   c-0.1,0-0.1,0-0.2,0c-2.7,0-5.4,0-8.2,0c-0.1,0-0.2,0-0.3,0c0-0.3,0-0.6,0-0.8c0.1,0,0.1,0,0.2,0c0.3,0,0.6,0,0.9,0   c0.2,0,0.4,0,0.6-0.1c0.4-0.1,0.6-0.4,0.7-0.7c0-0.2,0.1-0.3,0.1-0.5c0-0.2,0-0.3,0-0.5c0-4.8,0-9.7,0-14.5c0-0.1,0-0.2,0-0.3   c-0.1,0-0.1,0-0.2,0c0,0,0,0,0,0.1c-0.1,0.3-0.2,0.6-0.3,0.9c-1.7,5.5-3.4,11.1-5.1,16.6c0,0.1-0.1,0.2-0.1,0.2c-0.1,0-0.3,0-0.4,0   c-0.2,0-0.3,0-0.5,0c-0.1,0-0.3,0-0.4,0c-0.4-1.2-0.7-2.4-1.1-3.6c-0.4-1.2-0.7-2.4-1.1-3.6c-0.4-1.2-0.7-2.4-1.1-3.6   c-0.4-1.2-0.7-2.4-1.1-3.6c-0.4-1.2-0.7-2.4-1.1-3.5c-0.1,0-0.2,0-0.2,0c0,0.1,0,0.2,0,0.3c0,2,0,3.9,0,5.9c0,2.3,0,4.7,0,7   c0,0.5,0,1,0.1,1.5c0,0.3,0.1,0.5,0.2,0.8c0.2,0.5,0.6,0.9,1.1,1c0.3,0.1,0.6,0.1,0.9,0.1c0.1,0,0.3,0,0.4,0c0.1,0.2,0.1,0.6,0,0.9   c-0.1,0-0.2,0-0.2,0c-0.6,0-1.1,0-1.7,0c-1.4,0-2.8,0-4.2,0c-0.1,0-0.2,0-0.3,0c0-0.2-0.1-0.6,0-0.9c0.1,0,0.2,0,0.3,0   c0.3,0,0.6,0,0.8-0.1c0.5-0.1,0.9-0.4,1.1-1c0.1-0.3,0.2-0.5,0.2-0.8c0-0.4,0.1-0.8,0.1-1.2c0-0.2,0-0.3,0-0.5c0-4.1,0-8.2,0-12.4   c0-0.3,0-0.5,0-0.8c0,0,0,0,0-0.1c-0.1-0.5-0.4-0.8-0.9-0.9c-0.1,0-0.3,0-0.4,0c-0.5,0-0.9,0-1.4,0c-0.2,0-0.5,0-0.7,0.1   c-0.5,0.1-0.9,0.4-1.1,0.9c-0.2,0.4-0.2,0.8-0.3,1.2c0,0.4-0.1,0.8-0.1,1.3c0,2.8,0,5.5,0,8.3c0,0.7,0,1.4-0.2,2.1   c-0.1,0.6-0.3,1.2-0.6,1.7c-0.7,1.5-1.9,2.5-3.5,3c-0.6,0.2-1.3,0.3-1.9,0.3c-0.8,0-1.6,0-2.3-0.2c-0.5-0.1-1-0.3-1.5-0.5   c-1.6-0.7-2.7-2-3.2-3.6c-0.2-0.6-0.3-1.1-0.3-1.7c0-0.4,0-0.8,0-1.1c0-3.3,0-6.6,0-9.9c0-0.3,0-0.6-0.1-0.8   c-0.1-0.4-0.4-0.7-0.8-0.8c-0.2,0-0.3-0.1-0.5-0.1c-0.2,0-0.5,0-0.7,0C140.5,18.8,140.4,18.8,140.3,18.8z"/>
	<path class="st0" d="M90.5,18.8c0-0.3,0-0.6,0-0.8c0,0,0.1,0,0.1,0c0.1,0,0.1,0,0.2,0c2.7,0,5.4,0,8.1,0c1.1,0,2.1,0.2,3.1,0.5   c1.9,0.7,3.4,2,4.4,3.9c0.5,0.9,0.8,1.8,1,2.8c0.2,1.1,0.3,2.3,0.2,3.5c-0.1,1.4-0.4,2.8-1,4.1c-0.7,1.5-1.8,2.8-3.3,3.6   c-0.8,0.4-1.6,0.7-2.5,0.9c-0.6,0.1-1.2,0.2-1.8,0.2c-2.7,0-5.3,0-8,0c-0.1,0-0.2,0-0.3,0c0-0.2-0.1-0.5,0-0.9c0,0,0.1,0,0.1,0   c0.2,0,0.5,0,0.7,0c0.2,0,0.4,0,0.6-0.1c0.4-0.1,0.6-0.4,0.7-0.7c0-0.1,0.1-0.3,0.1-0.5c0-0.2,0-0.3,0-0.5c0-4.7,0-9.5,0-14.2   c0-0.3,0-0.5-0.1-0.8c0-0.1,0-0.2-0.1-0.3c-0.1-0.3-0.3-0.5-0.6-0.6c-0.2-0.1-0.4-0.1-0.7-0.1c-0.2,0-0.5,0-0.7,0   C90.7,18.8,90.6,18.8,90.5,18.8z M96.8,27.6c0,2.3,0,4.7,0,7c0,0.1,0,0.2,0,0.2c0,0.3,0,0.6,0.1,0.8c0.1,0.4,0.3,0.6,0.7,0.7   c0.2,0.1,0.4,0.1,0.6,0.1c0.3,0,0.6,0,0.9,0c0.4,0,0.8-0.1,1.2-0.3c0.5-0.2,0.9-0.6,1.3-1.1c0.3-0.4,0.5-0.8,0.7-1.2   c0.3-0.6,0.5-1.3,0.6-2c0.2-1.2,0.3-2.4,0.4-3.6c0-0.8,0-1.6,0-2.3c0-0.9-0.1-1.8-0.3-2.7c-0.1-0.7-0.3-1.4-0.6-2   c-0.2-0.5-0.5-1-0.9-1.5c-0.6-0.7-1.4-1.1-2.4-1.2c-0.3,0-0.6,0-1,0c-0.2,0-0.4,0-0.6,0.1c-0.3,0.1-0.5,0.3-0.7,0.7   c0,0.1,0,0.1,0,0.2c-0.1,0.3-0.1,0.5-0.1,0.8C96.8,22.9,96.8,25.3,96.8,27.6z"/>
	<path class="st0" d="M214.3,37.4c0-0.3,0-0.6,0-0.8c0.1,0,0.1,0,0.2,0c0.2,0,0.5,0,0.7,0c0.2,0,0.4,0,0.6-0.1   c0.4-0.1,0.6-0.3,0.7-0.7c0-0.2,0.1-0.3,0.1-0.5c0-0.1,0-0.3,0-0.4c0-4.7,0-9.5,0-14.2c0-0.3,0-0.5-0.1-0.8c0-0.1,0-0.1,0-0.2   c-0.1-0.4-0.3-0.6-0.7-0.7c-0.2,0-0.4-0.1-0.6-0.1c-0.2,0-0.5,0-0.7,0c-0.1,0-0.2,0-0.2,0c-0.1-0.2-0.1-0.6,0-0.9c0,0,0,0,0.1,0   c4.9,0,9.7,0,14.6,0c0,0,0.1,0,0.1,0c0,0.1,0,0.1,0,0.2c0,1.2,0.1,2.3,0.1,3.5c0,1.2,0.1,2.4,0.1,3.6c0,0.1,0,0.1,0,0.2   c-0.3,0-0.5,0-0.8,0c-0.1-0.1-0.1-0.2-0.1-0.3c-0.1-0.9-0.3-1.8-0.5-2.7c-0.1-0.5-0.3-1-0.5-1.4c-0.3-0.5-0.6-1-1.1-1.3   c-0.4-0.3-0.9-0.6-1.5-0.7c-0.4-0.1-0.8-0.1-1.2-0.2c-0.5,0-1.1,0-1.6,0c-0.2,0-0.4,0-0.6,0.1c-0.4,0.1-0.6,0.4-0.7,0.8   c0,0.2-0.1,0.4-0.1,0.6c0,0.1,0,0.2,0,0.3c0,2,0,4.1,0,6.1c0,0.1,0,0.2,0,0.3c0.1,0,0.1,0,0.2,0c0.4,0,0.9,0,1.3,0   c0.3,0,0.6-0.1,0.9-0.2c0.6-0.2,1-0.6,1.3-1.2c0.2-0.4,0.3-0.8,0.3-1.2c0-0.4,0.1-0.8,0.1-1.2c0,0,0-0.1,0-0.2   c0.1-0.1,0.3-0.1,0.4-0.1c0.1,0,0.3,0,0.4,0c0,0,0,0.1,0,0.1c0,3,0,6.1,0,9.1c0,0,0,0,0,0.1c-0.2,0-0.5,0-0.8,0c-0.1,0,0-0.1,0-0.2   c0-0.4,0-0.8-0.1-1.2c-0.1-0.4-0.1-0.8-0.3-1.2c-0.1-0.2-0.2-0.4-0.3-0.5c-0.3-0.5-0.7-0.8-1.3-1c-0.3-0.1-0.7-0.2-1.1-0.2   c-0.3,0-0.7,0-1,0c0,0-0.1,0-0.1,0c0,0,0,0.1,0,0.1c0,0.1,0,0.1,0,0.2c0,2.2,0,4.3,0,6.5c0,0.2,0,0.5,0,0.7c0,0.1,0.1,0.3,0.1,0.4   c0.1,0.3,0.3,0.5,0.6,0.6c0.2,0.1,0.5,0.1,0.7,0.1c0.4,0,0.7,0,1.1,0c0.1,0,0.2,0,0.2,0c0,0.3,0,0.6,0,0.8c-0.1,0-0.1,0-0.1,0   c-0.1,0-0.1,0-0.2,0c-2.8,0-5.6,0-8.4,0C214.5,37.4,214.4,37.4,214.3,37.4z"/>
	<path class="st0" d="M129.4,18.8C129.3,18.8,129.3,18.8,129.4,18.8c-0.8-0.1-1.5,0-2.2,0.2c-0.7,0.2-1.3,0.7-1.7,1.3   c-0.2,0.4-0.4,0.8-0.6,1.2c-0.2,0.6-0.4,1.3-0.5,1.9c-0.1,0.7-0.2,1.4-0.3,2.1c0,0.1,0,0.2-0.1,0.3c0,0-0.1,0-0.1,0   c-0.2,0-0.4,0-0.7,0c0-0.1,0-0.1,0-0.1c0-0.3,0-0.5,0-0.8c0-1.2,0.1-2.5,0.1-3.7c0-0.8,0-1.5,0.1-2.3c0-0.3,0-0.7,0-1   c0.1,0,0.1,0,0.1,0c0.1,0,0.1,0,0.2,0c5,0,9.9,0,14.9,0c0.1,0,0.2,0,0.3,0c0,0.1,0,0.1,0,0.2c0,0.8,0.1,1.6,0.1,2.4   c0,1.2,0.1,2.4,0.1,3.6c0,0.6,0,1.1,0.1,1.7c0,0.1,0,0.1,0,0.2c-0.1,0.1-0.3,0-0.4,0c-0.1,0-0.3,0-0.4,0c0-0.1,0-0.1,0-0.1   c-0.1-0.6-0.2-1.2-0.3-1.8c-0.1-0.8-0.3-1.6-0.6-2.4c-0.1-0.3-0.3-0.6-0.4-1c-0.5-0.9-1.2-1.4-2.1-1.6c-0.6-0.2-1.2-0.2-1.8-0.2   c0,0,0,0-0.1,0c0,0,0,0.1,0,0.1c0,0.1,0,0.1,0,0.2c0,5.2,0,10.4,0,15.6c0,0.3,0,0.5,0.1,0.8c0,0.1,0,0.2,0.1,0.3   c0.1,0.3,0.3,0.5,0.6,0.6c0.2,0.1,0.5,0.1,0.7,0.1c0.4,0,0.8,0,1.2,0c0.1,0,0.2,0,0.2,0c0,0.2,0,0.6,0,0.9c0,0-0.1,0-0.1,0   c-0.1,0-0.1,0-0.2,0c-3,0-6,0-9,0c-0.1,0-0.2,0-0.3,0c0-0.2-0.1-0.6,0-0.9c0.1,0,0.2,0,0.2,0c0.4,0,0.8,0,1.1,0   c0.2,0,0.4,0,0.7-0.1c0.4-0.1,0.6-0.4,0.7-0.8c0.1-0.2,0.1-0.5,0.1-0.7c0-0.1,0-0.1,0-0.2c0-5.2,0-10.4,0-15.6   C129.4,19,129.4,18.9,129.4,18.8z"/>
	<path class="st0" d="M125.2,36.5c0,0.3,0.1,0.5,0.1,0.8c-0.1,0-0.1,0-0.1,0c-0.1,0-0.1,0-0.2,0c-2.7,0-5.4,0-8.1,0   c-0.1,0-0.2,0-0.3,0c-0.1-0.2-0.1-0.5,0-0.8c0,0,0.1,0,0.1,0c0.2,0,0.4,0,0.7,0c0.2,0,0.4,0,0.7-0.1c0.1,0,0.2-0.1,0.2-0.1   c0.3-0.2,0.5-0.4,0.5-0.8c0-0.4,0-0.8-0.1-1.2c0-0.2-0.1-0.4-0.2-0.6c-0.3-0.8-0.5-1.6-0.8-2.4c0-0.1-0.1-0.1-0.1-0.2   c-2.1,0-4.1,0-6.2,0c0,0.1-0.1,0.1-0.1,0.2c-0.2,0.5-0.3,0.9-0.5,1.4c-0.3,0.7-0.4,1.5-0.5,2.3c0,0.2,0,0.4,0,0.6   c0.1,0.4,0.3,0.7,0.7,0.8c0.3,0.1,0.5,0.1,0.8,0.1c0.2,0,0.3,0,0.5,0c0.1,0.2,0.1,0.5,0,0.8c0,0-0.1,0-0.1,0c0,0-0.1,0-0.1,0   c-1.7,0-3.5,0-5.2,0c-0.1,0-0.2,0-0.3,0c-0.1-0.1,0-0.3,0-0.4c0-0.1,0-0.3,0-0.4c0.1,0,0.1,0,0.2-0.1c0.2,0,0.5-0.1,0.7-0.2   c0.4-0.2,0.7-0.4,1-0.8c0.2-0.3,0.3-0.6,0.4-0.9c0.2-0.5,0.4-1,0.6-1.5c1.8-5.1,3.6-10.3,5.4-15.4c0-0.1,0.1-0.2,0.1-0.3   c0.2,0,1.6,0,1.8,0c0.1,0.1,0.1,0.2,0.1,0.2c0.5,1.4,1,2.9,1.5,4.3c1.5,4.2,3,8.5,4.5,12.7c0.1,0.3,0.2,0.6,0.4,0.9   c0.2,0.4,0.6,0.7,1.1,0.8c0.2,0,0.4,0.1,0.6,0.1C125,36.5,125.1,36.5,125.2,36.5z M117.1,29.9c0,0,0-0.1,0-0.1   c-0.9-2.5-1.7-5.1-2.6-7.6c-0.1,0.1-0.1,0.2-0.1,0.2c-0.5,1.6-1.1,3.1-1.6,4.7c-0.3,0.9-0.6,1.7-0.9,2.6c0,0.1-0.1,0.2-0.1,0.2   c0.2,0,4.2,0,5.2,0C117,29.9,117,29.9,117.1,29.9z"/>
	<path class="st0" d="M188.5,18.8c0-0.3,0-0.7,0-0.9c0,0,0,0,0.1,0c2.9,0,5.8,0,8.7,0c0,0,0.1,0,0.1,0c0,0.3,0,0.6,0,0.8   c-0.1,0-0.1,0-0.2,0c-0.4,0-0.7,0-1.1,0c-0.2,0-0.4,0-0.6,0.1c-0.4,0.1-0.6,0.3-0.7,0.7c0,0.1-0.1,0.3-0.1,0.4c0,0.2,0,0.4,0,0.5   c0,4.7,0,9.4,0,14.1c0,0.3,0,0.6,0.1,0.8c0,0.1,0,0.2,0.1,0.3c0.1,0.3,0.3,0.4,0.5,0.5c0.2,0.1,0.5,0.1,0.7,0.1c0.5,0,0.9,0,1.4,0   c0.5,0,1.1-0.1,1.5-0.4c0.6-0.3,1.1-0.7,1.5-1.2c0.3-0.5,0.6-1,0.8-1.5c0.3-0.7,0.5-1.5,0.7-2.2c0.1-0.6,0.2-1.2,0.3-1.8   c0-0.1,0-0.2,0.1-0.3c0.2,0,0.5-0.1,0.8-0.1c0,0.1,0,0.1,0,0.2c0,0.4,0,0.8-0.1,1.3c0,0.4,0,0.9-0.1,1.3c0,0.8-0.1,1.6-0.1,2.5   c0,1-0.1,1.9-0.1,2.9c0,0.1,0,0.1,0,0.2c0,0-0.1,0-0.1,0c-4.7,0-9.4,0-14.1,0c0,0,0,0-0.1,0c0-0.3,0-0.5,0-0.8c0.1,0,0.1,0,0.2,0   c0.2,0,0.5,0,0.7,0c0.2,0,0.4,0,0.6-0.1c0.4-0.1,0.7-0.4,0.8-0.8c0.1-0.2,0.1-0.5,0.1-0.7c0-0.1,0-0.1,0-0.2c0-4.7,0-9.4,0-14.1   c0-0.3,0-0.6-0.1-0.9c0-0.1,0-0.2-0.1-0.3c-0.1-0.3-0.3-0.4-0.5-0.5c-0.2-0.1-0.4-0.1-0.7-0.1c-0.2,0-0.5,0-0.7,0   C188.7,18.8,188.6,18.8,188.5,18.8z"/>
	<path class="st0" d="M204.4,18.8c0-0.3,0-0.7,0-0.9c0,0,0.1,0,0.1,0c0.8,0,8.3,0,8.5,0c0.1,0.2,0.1,0.6,0,0.8c0,0-0.1,0-0.2,0   c-0.3,0-0.6,0-0.8,0c-0.2,0-0.4,0-0.6,0.1c-0.4,0.1-0.6,0.4-0.7,0.7c-0.1,0.2-0.1,0.4-0.1,0.7c0,0.1,0,0.3,0,0.4   c0,4.6,0,9.3,0,13.9c0,0.3,0,0.5,0,0.8c0,0.1,0,0.2,0.1,0.3c0.1,0.4,0.3,0.6,0.7,0.7c0.2,0.1,0.4,0.1,0.6,0.1c0.2,0,0.5,0,0.7,0   c0.1,0,0.2,0,0.2,0c0,0.2,0.1,0.6,0,0.9c0,0-0.1,0-0.1,0c-0.6,0-8.3,0-8.5,0c-0.1-0.1,0-0.3,0-0.4c0-0.1,0-0.3,0-0.4   c0.1,0,0.1,0,0.2,0c0.3,0,0.5,0,0.8,0c0.2,0,0.4,0,0.7-0.1c0.4-0.1,0.6-0.4,0.7-0.7c0-0.2,0.1-0.3,0.1-0.5c0-0.2,0-0.3,0-0.5   c0-4.7,0-9.3,0-14c0-0.3,0-0.6-0.1-0.8c0-0.1,0-0.1-0.1-0.2c-0.1-0.4-0.3-0.6-0.7-0.7c-0.2-0.1-0.4-0.1-0.6-0.1c-0.3,0-0.5,0-0.8,0   C204.5,18.8,204.5,18.8,204.4,18.8z"/>
</g>
<g>
	<path class="st0" d="M400.5,37.7c0.1-0.4,0.4-0.6,0.8-0.6l3.7-0.8l-0.3-3.3v-0.1c-0.1-0.4-0.4-1.7-2.1-1.9   c-6.6-0.5-8.1-1.5-9.7-2.5v0l-0.1-0.1c-1.7-1.1-3.4-1.1-3.6-1.1c-1.9,0-4.2,0.7-4.4,0.8c-0.6,0.2-1.1,0.3-1.6,0.5   c-2.1,0.7-3.8,1.2-6.8,1.2l-0.6,0l-0.1,0.5c-0.1,0.4-0.9,3.7-0.1,5.8c-0.7,0.6-0.7,1.2-0.7,1.3c0,0.7-0.1,0.9-0.2,1   c-0.3,0.4-1.5,0.4-2.4,0.4h-0.4l-0.2,0.3c-0.6,0.8-1.9,1-2.7,0.8c-0.4-1.1-0.4-1.9,0-2.4c0.4-0.6,1.3-0.7,1.6-0.7h0.2   c0.9,0,1.6-0.7,1.6-1.6v-5.9c0.3-0.4,0.5-0.9,0.7-1.4c1.4-0.2,2.6-1.4,2.6-2.9c0-0.6-0.2-1.1-0.5-1.6c1.3-0.6,2.5-1.9,2.5-3.7   c0-1.7-0.9-2.5-1.7-3c0.2-0.7,0.6-1.8,0.9-3l1.2-4.1c0.5-1.6,1.9-2.7,3.4-2.7h20.3c-0.9,1.2-2.1,1.8-3.8,1.8h-12.3l-0.6,1.4h11   c-0.9,1.4-2.1,2-3.9,2h-8l-0.6,1.4h7.1c-0.9,1.3-2.1,1.9-3.9,1.9h-4.4l-0.6,1.4h4.6c0,0.1,0.2,0.3,0.2,0.8c0,0.9-0.7,1.6-1.7,1.6   c-0.3,0-0.6-0.1-1-0.3c-0.2-0.1-0.4-0.2-0.6-0.3l-1.1,1c0.2,0.1,0.4,0.2,0.6,0.2c0.9,0.4,1.4,0.6,2.1,0.6c0.8,0,1.6-0.4,2.1-0.9   c0.8,0,2,0.2,3.3,0.2c1.5,0.1,2.8,0.2,3.6,0.3c0.4,0,0.7,0,1,0c0.6,0,1.2,0.1,1.7,0.1c2.8,4.5,4.2,5.1,9.5,5.7   c0.4,0.7,0.7,1.4,1.1,2.1v8.8c0,0.4,0,0.5,0,0.6c-0.2,0.2-1,0.6-1.3,0.7l-4.5,1.7C400.5,39.1,400.2,38.3,400.5,37.7z M399.5,40   h-8.9l3.8-4c0.8-0.8,1-1.7,0.7-2.7c-0.2-0.5-0.7-1.6-1.2-2.7c1.5,0.7,3.8,1.3,8.5,1.7c0.6,0,0.7,0.2,0.8,0.8l0.2,2l-2.5,0.6   c-0.8,0.2-1.5,0.7-1.8,1.5C398.9,38,399,39,399.5,40z M383.4,40c-0.2-1-0.2-1.7,0.3-2.3c0.4-0.5,1.1-0.6,1.5-0.6l2.6,0.5l0.1,0h0.4   l1.8-2l0,0c0.3-0.4,1.3-1.5,0.3-2.9l-2.5-4.1c0.4-0.1,0.8-0.1,1.2-0.1h0c0,0,1.2,0,2.6,0.8c0.2,0.4,0.4,0.9,0.7,1.4   c0.5,1,1.2,2.3,1.4,2.9c0.1,0.2,0.2,0.7-0.4,1.3l-4.7,5L383.4,40L383.4,40z M382.6,36.9c-0.5,0.6-1,1.6-0.7,3.1h-8.4   c0.9-0.1,1.6-0.3,2-0.8c0.6-0.6,0.6-1.4,0.6-1.9c0,0,0.1-0.2,0.5-0.4l0.7-0.3l-0.4-0.7c-0.7-1.1-0.4-3.5-0.1-4.8h0.1   c2.9,0,4.7-0.6,6.6-1.2c0.5-0.2,1-0.3,1.6-0.5h0c0,0,0.6-0.2,1.4-0.4l2.8,4.5l0,0c0.3,0.4,0.3,0.6-0.2,1.2l-1.4,1.5l-2.3-0.4h0   C384.4,35.7,383.3,36.1,382.6,36.9z M367.7,36.6c-0.6,0.8-0.7,2-0.2,3.5h-1.4V29c0.5-0.1,1.1-0.2,1.6-0.5c0,0.5-0.1,0.9-0.2,1.4   c0,0.1,0,0.2-0.1,0.4l-0.1,0.8h0.8c1.2,0,2.1-0.2,2.8-0.6v4.6c0,0.1-0.1,0.2-0.2,0.2h-0.2C369.3,35.3,368.3,35.8,367.7,36.6z    M364.7,38.8l-6.5-1.7l-6.5,1.7V27.3l6.5-1.7l6.5,1.7V38.8z M352.5,40l5.7-1.5l5.7,1.5H352.5z M354.8,23c0.3-0.4,0.9-0.8,1.7-0.6   l0.6,0.1l0.2-0.6c0-0.2,0.1-0.3,0.2-0.4c0.2-0.2,0.4-0.2,0.7-0.2c0.8,0,1.9,0.6,2.7,1.5c0.3,0.3,0.6,0.7,0.8,1.1   c0,0.1,0.1,0.2,0.2,0.2c0.1,0.1,0.1,0.2,0.1,0.2c0,0,0.4,0.7,0.4,0.7c0.3-0.4,0.6-0.8,0.9-1.2c0,0,0,0,0-0.1   c-0.1-0.1-0.2-0.4-0.3-0.5c0,0,0-0.1-0.1-0.1c0,0,0-0.1-0.1-0.2c-0.1-0.2-0.2-0.4-0.3-0.5l1.8-2.9c0.4,0.1,0.8,0.1,1,0.1h0   c2.5,0,5.2-1.5,5.2-3.9v-0.1c0-0.7-0.2-1.3-0.3-1.8c-0.1-0.3-0.1-0.6-0.1-0.8c0-0.3,0.4-0.6,0.9-0.6h0.8l-0.4-2.1   c1.2-0.8,1.9-2.2,1.8-3.5c1.2,1,2.1,2.6,2.3,4.3c0,0.5,0,1.2-0.2,2l-0.1,0.3h0c-0.3,1.2-0.7,2.5-1,3.1l-0.2,0.6l0.5,0.3   c0.9,0.5,1.5,0.9,1.5,2.1c0,1.4-1.3,2.5-2.5,2.7l-1.7,0.3l1.4,0.9c0.4,0.3,0.7,0.8,0.7,1.3c0,0.9-0.7,1.6-1.7,1.6h-0.5l-0.2,0.5   c-0.5,1.7-1.1,2.5-2.9,2.7c0.1-0.5,0.1-1,0.1-1.7c0-0.2,0-0.6,0-0.8l-0.1-1.6l-1.1,1.1c-0.4,0.4-1,0.7-1.8,0.8v-1.4l-7.9-2   l-2.8,0.7C354.8,24.3,354.6,23.2,354.8,23z M363.3,18c0-0.1,0.1-0.2,0.2-0.2l1.2,0c1.4,0,2.9-0.6,3.1-2.1c0-1-0.7-2-1.7-2   c-0.6,0-1.2,0.4-1.8,0.8c-0.4,0.3-0.8,0.5-1.1,0.5c-0.2,0-0.3-0.1-0.3-0.2c0,0,0,0,0,0l0.8-1l-0.6-0.4c-0.1-0.1-0.4-0.3-0.4-0.4   c0-0.1,0.1-0.2,0.1-0.2c0.3-0.3,0.6-0.7,0.9-1.2c0.2-0.3,0.3-0.4,0.6-0.4s0.6,0.3,0.6,0.6c0,0.2,0.2,0.4,0.5,0.4   c0.3,0,0.4-0.2,0.6-0.4c0,0,0.7-0.6,0.3-0.9c-0.4-0.3-2,0.4-1.6-1.2l0.1-0.2c0.2-0.2,1-0.8,2.6-0.8c0.3,0,0.6,0,1,0.1l0.2,0   l3.4-2.1c0,0.1,0,0.1,0,0.1v0c0.2,1-0.5,2.3-1.5,2.9l-0.4,0.2l0.3,1.6c-0.9,0.3-1.5,1-1.5,1.8c0,0.3,0.1,0.6,0.2,1.1   c0.1,0.5,0.2,1,0.2,1.6c0,1.6-2.2,2.7-4.1,2.6h0c-0.1,0-1.3-0.1-1.6-0.3C363.3,18.1,363.3,18,363.3,18z M366.1,7.3   c0.2-0.3,0.6-0.6,1-0.9c0.3-0.2,0.8-0.4,1.2-0.5c0.7-0.2,1.4-0.2,2.2,0l-2.4,1.5c-0.3,0-0.6,0-0.9,0c-0.4,0-0.8,0-1.1,0.1   C366.1,7.3,366.1,7.3,366.1,7.3z M403.2,6.9h9.2c-0.9,1.2-2.1,1.8-3.8,1.8h-6.8C402.3,8.2,402.8,7.6,403.2,6.9z M402.7,12.1h-6.8   c0.6-0.5,1.1-1.2,1.5-2h9.2C405.8,11.4,404.5,12.1,402.7,12.1z M397.3,15.4h-6.8c0.6-0.5,1.1-1.2,1.5-1.9h9.2   C400.3,14.8,399.1,15.4,397.3,15.4z M398.9,20.5c2.1,0.4,3.9,1.3,5.2,2.9c0.3,0.3,0.6,0.7,0.8,1.1c-3.6-0.5-4.9-1-6.9-4.1   C398.3,20.5,398.6,20.5,398.9,20.5z M413.2,35.3c0.1,0.2,0.2,0.4,0.4,0.6c0.1,0.2,0.3,0.5,0.4,0.7c-1-0.1-1.8-0.6-2.6-1.7   C412.1,34.7,412.9,34.9,413.2,35.3z M404.7,40l1.4-0.5h0c2-0.8,2.3-1.4,2.2-2.7v-5.4c1.5,3.9,3,6.6,5.9,6.6c0.4,0,0.8,0,1.3-0.2   l1.2-0.3l-0.8-0.9c-0.5-0.6-0.8-1-1-1.5c-0.1-0.2-0.2-0.4-0.4-0.6c-0.7-1.1-2.3-1.5-3.7-0.9c-0.6-1.2-1.2-2.7-1.9-4.7l-0.2-0.4   c-0.1-0.3-0.2-0.6-0.4-0.9v0h0c-0.4-1-0.9-2-1.5-3c-0.5-0.9-1.1-1.6-1.6-2.3c-1.5-1.8-3.6-2.9-6-3.3c-1.7-0.3-2.9-0.3-4.4-0.4   c-0.3,0-0.6,0-1,0c-0.7,0-2.1-0.2-3.5-0.3c-0.9-0.1-1.9-0.2-2.6-0.2c0-0.2,0.1-0.4,0.1-0.7c0-0.3,0-0.6-0.1-0.8h9.8   c2.5,0,4.4-1.1,5.5-3.3c2.5,0,4.4-1.2,5.4-3.4h0.4c2.6,0,4.5-1.2,5.6-3.5l0.4-1h-33.3c-2.2,0-4.1,1.4-4.8,3.6l0,0.1   c-0.6-1.6-1.6-2.9-2.9-3.7c-1.8-1.1-4-1.5-5.6-1c-0.6,0.2-1.1,0.4-1.6,0.7c-0.4,0.3-0.9,0.7-1.3,1.2c-0.4,0.6-0.8,1.2-1.1,1.8   c-0.2,0.2-0.3,0.3-0.4,0.5l-0.4,0.8l0,0c-0.5,1.1-1.1,1.8-1.5,2.3c-0.4,0.5-0.5,1-0.4,1.4c0.1,0.4,0.3,0.6,0.5,0.9v0   c-0.1,0.2-0.2,0.5-0.2,0.8c0,0.9,0.8,1.5,1.7,1.5c0.7,0,1.2-0.3,1.8-0.7c0.2-0.2,0.9-0.6,1.1-0.6c0.3,0,0.5,0.2,0.5,0.5   c0,0.7-0.9,1.1-1.6,1.2l-1.4,0.2c-1,0.1-1.4,0.6-1.4,1.1c0,0.5,0.2,0.7,0.4,0.9l0.1,0.1l0.3,0.3l-1.4,2.3c-1-1-2.2-1.5-3.3-1.6   c-0.7,0-1.3,0.2-1.7,0.6c-0.1,0.1-0.2,0.3-0.3,0.4h0c-1.1,0-2,0.6-2.5,1.3c-0.5,0.8-0.3,2,0.3,3l-3.7,0.9v17.3h66.4v-3.4L404.7,40   L404.7,40z"/>
	<path class="st0" d="M363.2,29.1l-4.3-1.1v1.4l4.3,1.1V29.1z"/>
	<path class="st0" d="M353.2,30.5l4.3-1.1v-1.4l-4.3,1.1V30.5z"/>
	<path class="st0" d="M353.2,33.3l4.3-1.1v-1.4l-4.3,1.1V33.3z"/>
	<path class="st0" d="M363.2,31.9l-4.3-1.1v1.4l4.3,1.1V31.9z"/>
	<path class="st0" d="M363.2,34.7l-4.3-1.1V35l4.3,1.1V34.7z"/>
	<path class="st0" d="M353.2,36.2l4.3-1.1v-1.4l-4.3,1.1V36.2z"/>
	<path class="st0" d="M442.7,34.4v-6.9c4.3,0,5.9-0.2,6.7,5.1h0.5v-5.9h-11.8v0.8h2v15.1h-2.2v0.8H450v-6.2h-0.6   c-0.6,4.7-1.8,5.4-5.1,5.4h-1.6v-7.4h0.9c1.5,0,2.4,0.9,2.7,3.5h0.6v-7.6c0,0-0.5,0-0.5,0c0,0-0.1,3.3-2.7,3.2L442.7,34.4   L442.7,34.4z"/>
	<path class="st0" d="M431.3,34.7v0.8h2.3v5.4c-0.4,1.4-2.4,2-3,2c-4.2,0-4-6.2-4-7.9c0-1.5-0.2-7.9,4-7.9c2.9,0,4.4,2.9,5,5.4h0.5   c0-1.1,0-6.1,0-6.1c0,0-2,1.4-2,1.4c0,0-0.9-1.4-3.5-1.4c-5,0-6.9,5-6.8,8.5c0,3.2,1.5,8.6,6.8,8.6c1.7,0,2.9-0.9,3.5-1.8   c0,0,2.1,1.7,2.1,1.7v-8h1.8v-0.8H431.3z"/>
	<path class="st0" d="M496,37.4l2.4-7.2l2.6,7.2H496z M486.6,34.5h-2.7v-7h3.5c2,0.3,2.1,2.7,2.1,3.4   C489.5,32.7,488.7,34.5,486.6,34.5z M515.7,37.3c-0.6,4.7-1.8,5.4-5.1,5.4h-0.2V27.5h2.1v-0.8h-7v0.8h2.1v15.1h-1.7l-6.2-16.4h-0.9   c0,0-5.2,14.9-5.2,14.9c0,0-0.4,1.3-1.2,1.4c-0.8,0-0.7-0.4-0.7-0.5v-2.9c0-0.8-0.1-2.5-0.8-3.3c-0.9-0.9-2.4-1-2.4-1   c0,0,3.8-0.8,3.8-4.4c0-2.5-1.8-3.8-4.7-3.9h-8.4v0.8h2.2v15.1h-2.2v0.8h6.9v-0.8h-2.2v-7.3h2.9c5,0.4-0.8,8.1,5.7,8.1h4.1v-0.8   c-0.2,0-1.7,0-1.8-1c-0.1-0.8,1-3.5,1-3.5h5.6c0,0,1.7,4.5,1.8,4.5h-2v0.8h15.2v-6.2L515.7,37.3L515.7,37.3z"/>
	<path class="st0" d="M470.9,27.5c4.3,0,5.9-0.2,6.7,5.1h0.5v-5.9h-17.2v0.8h0.4c0.6,0,2,0,2.1,1.3v9.7l-8.1-11.8H451v0.8h0.7   c0.9,0,2.1,0,2.1,1.3v12.4c0,1.2-1.8,1.7-2.6,1.7v0.6h5.9v-0.6c-0.8,0-2.6-0.5-2.6-1.7l0-10.9c3.2,4.5,9.2,13.2,9.3,13.2h0.3V28.8   c0.1-1.3,1.5-1.3,2.1-1.3h2v15.2H466v0.8h12.1v-6.2h-0.6c-0.6,4.7-1.8,5.4-5.1,5.4h-1.6v-7.4h0.9c1.5,0,2.4,0.9,2.7,3.5h0.6v-7.6   c0,0-0.5,0-0.5,0c0,0-0.1,3.3-2.7,3.2h-0.8L470.9,27.5L470.9,27.5z"/>
	<path class="st0" d="M517,26.7v0.8h2.2l0,15.1H517v0.8h6.9v-0.8h-2.2V27.5h2.2v-0.8H517z"/>
	<path class="st0" d="M433.1,21.4c0.3-0.2,0.5-0.6,0.8-1.1c0.2-0.5,0.3-1.2,0.3-2.1c0-0.9-0.1-1.7-0.3-2.2c-0.2-0.5-0.5-0.9-0.8-1.2   c-0.3-0.3-0.7-0.5-1.1-0.5h-3.5V22h3.5C432.5,21.9,432.8,21.7,433.1,21.4z M428.6,6.4v7.3h3.5c0.5,0,0.9-0.2,1.2-0.5   c0.3-0.3,0.5-0.7,0.6-1.1c0.1-0.4,0.2-0.8,0.2-1.2c0-0.4,0-0.7,0-0.8V10c0-0.9-0.1-1.6-0.3-2.1c-0.2-0.5-0.4-0.8-0.7-1.1   c-0.3-0.3-0.6-0.4-1-0.4L428.6,6.4L428.6,6.4z M433.1,14.2c0.7,0,1.4,0.2,2,0.5c0.2,0.1,0.5,0.3,0.7,0.5c0.2,0.2,0.4,0.4,0.6,0.7   c0.2,0.3,0.3,0.6,0.4,1c0.1,0.4,0.2,0.8,0.2,1.4c0,0.9-0.2,1.6-0.6,2.3c-0.2,0.3-0.4,0.6-0.6,0.8c-0.2,0.3-0.5,0.5-0.9,0.7   c-0.4,0.2-0.8,0.4-1.3,0.5c-0.5,0.1-1,0.2-1.6,0.2h-8.4v-0.8h2.2V6.4h-2.2V5.6h8.6c0.2,0,0.6,0,1.1,0.1s1,0.2,1.5,0.5   c0.5,0.3,1,0.7,1.3,1.3c0.4,0.6,0.6,1.4,0.6,2.4v0c0,0.1,0,0.3-0.1,0.6c0,0.4-0.2,0.8-0.4,1.2c-0.2,0.4-0.6,0.9-1.1,1.3   C434.7,13.6,434.1,13.9,433.1,14.2z"/>
	<path class="st0" d="M477.7,20.1c-0.2,0.4-0.4,0.7-0.7,1c-0.3,0.3-0.6,0.6-1,0.9c-0.4,0.3-0.8,0.5-1.3,0.6   c-0.5,0.2-1.1,0.2-1.7,0.2c-0.9,0-1.7-0.1-2.3-0.4c-0.7-0.3-1.2-0.6-1.7-1c-0.5-0.4-0.9-0.9-1.2-1.4c-0.3-0.5-0.6-1.1-0.8-1.6   c-0.5-1.3-0.8-2.7-0.9-4.4c0-1.4,0.2-2.6,0.5-3.6c0.3-1,0.8-1.8,1.2-2.5c0.5-0.6,1-1.2,1.6-1.5c0.6-0.4,1.2-0.6,1.7-0.8   c0.5-0.2,1-0.3,1.3-0.3c0.4,0,0.6,0,0.6,0h0.2c0.2,0,0.4,0,0.6,0c0.3,0,0.6,0.1,0.9,0.2c0.3,0.1,0.7,0.2,1,0.4   c0.3,0.2,0.6,0.4,0.8,0.7l2-1.5v6.2H478c-0.1-1-0.3-1.9-0.7-2.7c-0.2-0.3-0.4-0.7-0.6-1c-0.2-0.3-0.5-0.6-0.9-0.9   c-0.4-0.2-0.8-0.5-1.2-0.6c-0.5-0.2-1-0.2-1.6-0.2h0c-0.1,0-0.2,0-0.4,0c-0.2,0-0.5,0.1-0.8,0.3c-0.3,0.2-0.6,0.4-1,0.8   c-0.3,0.3-0.6,0.8-0.9,1.4c-0.3,0.6-0.5,1.4-0.7,2.3c-0.2,0.9-0.3,2-0.3,3.4c0,1.3,0.1,2.4,0.3,3.3c0.2,0.9,0.4,1.6,0.7,2.2   s0.6,1.1,0.9,1.4c0.3,0.3,0.6,0.6,1,0.8c0.3,0.2,0.6,0.3,0.8,0.3c0.2,0,0.4,0.1,0.5,0.1h0.1c0.8,0,1.5-0.2,2.2-0.6   c0.3-0.2,0.6-0.4,0.8-0.6c0.3-0.2,0.6-0.6,0.8-0.9c0.2-0.4,0.5-0.8,0.7-1.2c0.2-0.5,0.3-1,0.4-1.6h0.7   C478.4,18.3,478.1,19.3,477.7,20.1z"/>
	<path class="st0" d="M482.4,16.8l2.4-7.2l2.6,7.2H482.4z M487.4,22.8h6.8V22h-2l-6.2-16.4h-0.9c0,0-5.2,14.9-5.2,14.9   c0,0-0.4,1.3-1.2,1.4c0,0-0.1,0-0.2,0H478v0.8h4.9V22c-0.2,0-1.7,0-1.8-1c-0.1-0.8,1-3.5,1-3.5h5.6c0,0,1.7,4.5,1.8,4.5h-2V22.8z"/>
	<path class="st0" d="M441.4,16.8l2.4-7.3l2.6,7.2L441.4,16.8L441.4,16.8z M460.8,6v0.8h0.4c0.6,0,2,0,2.1,1.3v9.7l-8-11.8H451v0.8   h0.7c0.9,0,2.1,0,2.1,1.3v12.4c0,0.8-0.7,1.2-1.4,1.5h-1.2L445,5.6h-0.9c0,0-5.2,14.9-5.2,14.9c0,0-0.4,1.3-1.2,1.4   c0,0-0.1,0-0.2,0H437v0.8h4.9V22c-0.2,0-1.7,0-1.8-1c-0.1-0.8,1-3.5,1-3.5h5.6c0,0,1.7,4.5,1.8,4.5h-2v0.8h10.8v-0.6   c-0.8,0-2.6-0.5-2.6-1.7V9.6c3.2,4.5,9.2,13.2,9.3,13.2h0.3V8.1c0.1-1.3,1.5-1.3,2.1-1.3h0.4V6L460.8,6L460.8,6z"/>
</g>
<g>
	<path class="st0" d="M656.6,34.7c-0.3,0.2-0.4,0.4-0.6,0.5c-4.4,3.6-9.4,6.3-14.8,8c-0.4,0.1-0.8,0.1-1.3,0   c-5.4-1.8-10.4-4.4-14.8-8c-0.2-0.1-0.3-0.3-0.5-0.4c0,0,0-0.1-0.1-0.2c0.2-0.1,0.3-0.2,0.5-0.3c0.6-0.2,1.3-0.4,1.9-0.6   c0.5-0.2,1,0,1.5,0.3c2.3,1.4,4.9,2,7.6,2.1c0.7,0,1.1-0.2,1.3-0.8c0.4-1,0.8-1.9,1.1-2.9c0.6-2.2,0.8-4.6,0.9-6.9   c0.1-2.3,0-4.5,0-6.8c0-0.3-0.1-0.5-0.1-0.8c0-0.4-0.2-0.6-0.6-0.9c-1-0.5-1.1-1.5-0.1-2.2c-0.1-0.2-0.3-0.3-0.4-0.5   c-1.1-1.3-1.1-3.2,0.1-4.3c1.2-1.1,3.1-1.1,4.3,0c1.2,1.2,1.3,3,0.1,4.3c-0.1,0.1-0.3,0.2-0.5,0.4c0.6,0.4,1,0.8,0.7,1.5   c-0.2,0.6-0.7,0.9-1.3,1.1c-0.1,0.7-0.1,1.4-0.1,2.1c-0.1,3.5-0.1,6.9,0.4,10.3c0.2,1.6,0.5,3.1,1.1,4.6c0.7,1.7,1,1.9,2.8,1.7   c2.4-0.2,4.7-0.9,6.8-2.2c0.3-0.2,0.6-0.3,1-0.2C654.7,33.9,655.7,34.1,656.6,34.7z M642,12.4c0-0.8-0.7-1.4-1.4-1.4   c-0.8,0-1.4,0.6-1.4,1.4c0,0.8,0.7,1.4,1.4,1.4C641.4,13.8,642,13.2,642,12.4z"/>
	<path class="st0" d="M642.3,4.7c0.4,0.1,0.7,0.2,0.9,0.3c5.3,1.9,10,4.8,14.2,8.5c0.4,0.3,0.6,0.7,0.7,1.1   c1.2,5.6,1.3,11.2,0.3,16.8c0,0.1,0,0.2-0.1,0.4c0,0-0.1,0.1-0.2,0.2c-0.3-0.3-0.7-0.5-1-0.8c-0.2-0.1-0.3-0.3-0.5-0.5   c-0.7-0.6-1-1.3-0.9-2.2c0.1-2.5-0.7-4.9-1.9-7.1c-0.3-0.6-0.7-0.8-1.3-0.8c-0.8,0.1-1.5,0.1-2.3,0.3c-2.4,0.6-4.7,1.6-7,2.7   c-0.1,0-0.2,0.1-0.4,0.3c1.4,0.8,2.6,1.4,4,2c0.5-0.4,0.9-0.7,1.6-0.5c0.6,0.1,0.9,0.5,0.9,1.3c1.2-0.4,2.3-0.3,3.3,0.4   c0.6,0.5,1,1.1,1.1,1.8c0.3,1.6-0.7,3.2-2.3,3.6c-1.8,0.5-3.2-0.4-4-2.6c-0.4,0-0.7,0.1-1.1,0.1c-0.4-0.1-0.6-0.4-0.7-0.8   c-0.1-0.3-0.1-0.7-0.1-1.3c-0.6-0.4-1.2-0.9-2-1.2c-0.6-0.3-0.8-0.7-0.8-1.4c0-1.1,0-2.2-0.1-3.3c0-0.5,0.2-0.9,0.6-1.2   c1.4-1.1,2.9-2.2,4.3-3.4c0.7-0.7,1.3-1.5,1.9-2.3c0.3-0.4,0.3-0.8,0-1.3c-1.5-2.3-3.3-4.2-5.8-5.5c-0.5-0.3-0.8-0.6-0.9-1.1   C642.5,6.5,642.1,5.7,642.3,4.7z M652,29.4c0-0.8-0.6-1.4-1.4-1.4c-0.8,0-1.4,0.6-1.4,1.3c0,0.8,0.6,1.4,1.4,1.4   C651.4,30.8,652,30.2,652,29.4z"/>
	<path class="st0" d="M635.6,27.9c0.2,1.5-0.7,2.5-1.9,1.8c-0.1,0.2-0.1,0.4-0.2,0.6c-0.5,1.5-2,2.4-3.6,2.1   c-1.5-0.3-2.5-1.6-2.5-3.1c0-1.5,1.2-2.8,2.8-2.9c0.5,0,1.1,0.1,1.6,0.1c0-0.5,0.2-1.1,0.9-1.2c0.6-0.1,1.1,0.2,1.6,0.6   c1.3-0.7,2.6-1.3,4-2c-0.1-0.1-0.2-0.2-0.2-0.2c-2.4-1.2-4.9-2.3-7.6-2.9c-0.6-0.1-1.2-0.2-1.9-0.2c-0.6-0.1-1,0.2-1.3,0.7   c-1.3,2.3-2,4.8-1.9,7.4c0,0.7-0.2,1.3-0.7,1.7c-0.5,0.5-1.1,1-1.7,1.6c-0.1-0.4-0.2-0.6-0.3-0.8c-0.2-1.7-0.5-3.4-0.6-5   c-0.2-3.8,0.1-7.6,0.9-11.4c0.1-0.6,0.4-1,0.8-1.4c4.2-3.7,9-6.6,14.4-8.5c0.2-0.1,0.4-0.1,0.7-0.2c0,0.2,0,0.4,0,0.5   c-0.1,0.7-0.3,1.3-0.4,2c-0.1,0.6-0.5,1-1.1,1.3c-2.4,1.3-4.2,3.1-5.7,5.4c-0.3,0.5-0.3,0.9,0,1.4c0.6,1,1.3,1.8,2.2,2.5   c1.3,1.1,2.6,2.1,4,3.1c0.5,0.3,0.7,0.7,0.6,1.2c-0.1,1.2-0.1,2.4-0.1,3.6c0,0.4-0.2,0.6-0.5,0.8C637.2,26.9,636.4,27.4,635.6,27.9   z M629.1,29.4c0,0.8,0.6,1.4,1.4,1.4c0.8,0,1.5-0.6,1.5-1.4c0-0.7-0.6-1.4-1.4-1.5C629.8,28,629.1,28.6,629.1,29.4z"/>
	<path class="st0" d="M728.3,31.4c-1.1,0-2.1,0-3.2,0c0-0.3-0.1-0.6-0.1-0.9c0-2.6,0-5.2,0-7.8c0-0.2,0-0.5,0-0.7   c-0.1,0-0.1,0-0.2-0.1c-0.7,1-1.4,2-2,3c-0.7,1-1.4,2-2.1,3.1c-0.6-0.6-1-1.3-1.4-2c-0.5-0.7-0.9-1.4-1.4-2.1   c-0.4-0.7-0.9-1.3-1.3-2c-0.1,0-0.1,0-0.2,0c0,0.3,0,0.5,0,0.8c0,2.5,0,5.1,0,7.6c0,0.3,0,0.6,0,1c-1.1,0.1-2.2,0.1-3.2,0   c-0.2-0.6-0.2-14.1,0-15c0.3,0,0.7,0,1,0c0.6,0,1.3,0,1.9,0c0.5,0,0.7,0.1,1,0.5c1,1.7,2.1,3.3,3.2,5c0.1,0.2,0.3,0.4,0.5,0.7   c0.2-0.3,0.4-0.5,0.5-0.8c1-1.6,2.1-3.2,3-4.8c0.3-0.5,0.7-0.8,1.3-0.7c0.9,0,1.8,0,2.6,0C728.4,16.9,728.5,30.1,728.3,31.4z"/>
	<path class="st0" d="M769.9,16.4c1.2,0,2.2,0,3.3,0c0,0.3,0.1,0.6,0.1,0.8c0,2.6,0,5.1,0,7.7c0,0.8-0.1,1.5-0.3,2.3   c-0.6,2.3-2.1,3.7-4.4,4.2c-1.5,0.3-3,0.3-4.5-0.1c-1.9-0.5-3.1-1.7-3.7-3.5c-0.2-0.7-0.4-1.5-0.4-2.3c0-2.8,0-5.7,0-8.5   c0-0.2,0-0.4,0.1-0.6c1.1,0,2.1,0,3.3,0c0,0.3,0.1,0.6,0.1,0.9c0,2.5,0,4.9,0,7.4c0,0.7,0.1,1.3,0.3,2c0.3,1,1.1,1.6,2.1,1.8   c0.4,0.1,0.8,0.1,1.1,0.1c1.7-0.1,2.7-1.1,2.9-2.8c0-0.3,0-0.7,0-1c0-2.5,0-4.9,0-7.4C769.9,17,769.9,16.7,769.9,16.4z"/>
	<path class="st0" d="M789.4,31.4c-0.8,0-1.5,0-2.2,0c-1.5,0-1.2,0.2-1.8-1.2c-0.2-0.6-0.5-1.1-0.7-1.7c-0.1-0.4-0.3-0.5-0.7-0.5   c-1.8,0-3.5,0-5.3,0c-0.5,0-0.7,0.2-0.8,0.6c-0.3,0.7-0.6,1.4-0.9,2.1c-0.2,0.5-0.4,0.7-1,0.7c-0.9,0-1.7,0-2.7,0   c0.1-0.3,0.1-0.5,0.2-0.7c2-4.6,4-9.3,6-13.9c0.2-0.4,0.4-0.6,0.9-0.6c0.6,0,1.3,0,1.9,0c0.5,0,0.7,0.2,0.8,0.6   c0.7,1.7,1.4,3.3,2.1,4.9c1.3,2.9,2.5,5.9,3.8,8.8C789.1,30.7,789.2,31,789.4,31.4z M783.2,25c-0.6-1.6-1.2-3-1.8-4.5   c-0.1,0-0.1,0-0.2,0c-0.6,1.5-1.2,2.9-1.9,4.5C780.6,25,781.8,25,783.2,25z"/>
	<path class="st0" d="M743.8,16.4c0,0.3,0,0.5,0,0.8c0,2.5,0,5,0,7.5c0,0.9-0.1,1.8-0.3,2.6c-0.7,2.5-2.4,3.9-5,4.2   c-1,0.1-2.1,0.1-3.2-0.1c-2.6-0.4-4.2-2.1-4.7-4.6c-0.1-0.5-0.2-1-0.2-1.6c0-2.7,0-5.5,0-8.2c0-0.2,0-0.4,0-0.6   c0.6-0.2,2.4-0.2,3.3,0c0,0.3,0.1,0.6,0.1,0.8c0,2.4,0,4.8,0,7.2c0,0.6,0.1,1.3,0.2,1.9c0.4,1.5,1.6,2.3,3.3,2.2   c1.6-0.1,2.7-1,3-2.5c0.1-0.5,0.1-0.9,0.1-1.4c0-2.4,0-4.9,0-7.3c0-0.3,0-0.6,0-0.9C741.1,16.3,742.8,16.3,743.8,16.4z"/>
	<path class="st0" d="M745.5,19.3c0-1,0-1.9,0-3c1.4-0.1,2.8,0,4.2-0.1c1.4,0,2.8,0,4.3,0c1.4,0,2.8,0,4.2,0c0,1.1,0,2,0,3.1   c-1.5,0-3,0-4.6,0.1c-0.1,1.4,0,2.7,0,4c0,1.3,0,2.6,0,3.9c0,1.3,0,2.6,0,3.9c-0.6,0.2-2.5,0.2-3.3,0c0-0.3,0-0.6,0-0.9   c0-3.3,0-6.6,0-9.8c0-0.2,0-0.4,0-0.6c0-0.5-0.1-0.6-0.6-0.6c-1,0-2.1,0-3.1,0C746.1,19.4,745.8,19.4,745.5,19.3z"/>
	<path class="st0" d="M794.4,28.3c2.5,0,5,0,7.5,0c0.1,1,0.1,2,0,3.1c-3.7,0-7.3,0-10.9,0c-0.2-0.7-0.2-14.3,0-15c1,0,2.1,0,3.2,0   c0,0.3,0.1,0.6,0.1,1c0,3.3,0,6.6,0,9.9C794.3,27.5,794.3,27.9,794.4,28.3z"/>
	<path class="st0" d="M667.5,23.4c0.1-2.7,1.4-5.2,4.5-6.6c3-1.3,5.9-1.1,8.4,1c2.5,2.1,3.3,4.9,2.5,8c-0.8,3.1-2.8,5.1-6,5.7   C671.7,32.5,667.5,28.8,667.5,23.4z M669.4,23.8c0,0.2,0,0.5,0,0.7c0,0.3,0.1,0.5,0.1,0.8c0.6,2.3,2,3.9,4.4,4.5   c2.3,0.6,4.4,0,6-1.9c1.4-1.6,1.7-3.5,1.3-5.5c-0.5-2.4-2.5-4.3-4.9-4.7c-2.5-0.4-4.9,0.7-6.1,2.9   C669.6,21.6,669.3,22.7,669.4,23.8z"/>
	<path class="st0" d="M697.6,16.4c0.2,0,0.4,0,0.6,0c1.6,0,3.2,0,4.9,0c1.4,0,2.7,0.3,3.9,1c2.8,1.5,4.2,4.3,3.9,7.7   c-0.3,2.9-2.6,5.4-5.7,6.1c-0.7,0.2-1.4,0.3-2.1,0.3c-1.7,0-3.3,0-5,0c-0.2,0-0.3,0-0.5-0.1C697.4,30.7,697.4,17.2,697.6,16.4z    M699.3,29.8c1.7,0,3.2,0,4.7-0.1c0.8-0.1,1.6-0.4,2.3-0.8c2.2-1.2,3.3-3.8,2.7-6.4c-0.6-2.5-2.6-4.3-5.2-4.5c-1.3-0.1-2.7,0-4-0.1   c-0.1,0-0.3,0.1-0.5,0.1C699.3,21.9,699.3,25.8,699.3,29.8z"/>
	<path class="st0" d="M695.4,29.8c0,0.6,0,1,0,1.6c-3.4,0-6.8,0-10.2,0c-0.2-0.6-0.2-14.3,0-15c0.5,0,1,0,1.6,0c0,0.3,0.1,0.6,0.1,1   c0,3.8,0,7.6,0,11.4c0,0.3,0,0.6,0,1C689.7,29.8,692.6,29.8,695.4,29.8z"/>
</g>
</svg>