<svg width="50" height="50" viewBox="0 0 50 50" fill="none" xmlns="http://www.w3.org/2000/svg">
<path fill-rule="evenodd" clip-rule="evenodd" d="M10.4231 17.9769C10.7905 16.9115 11.9531 16.344 13.0195 16.7117L13.0394 16.7185C14.4933 17.2538 15.7794 18.1592 16.7722 19.3403C18.195 18.9916 19.6557 18.816 21.1208 18.816C29.6246 18.816 36.8417 24.595 36.8417 32.0868V32.1092C36.7628 35.7003 35.1289 39.0661 32.3907 41.3512L33.5699 44.589C33.5917 44.6448 33.6099 44.6968 33.622 44.7313L33.6276 44.7473C34.2403 46.5624 33.2691 48.532 31.4529 49.148C29.6423 49.7592 27.6766 48.7949 27.0554 46.9873L26.1938 44.6467C23.1443 45.522 19.9172 45.5892 16.8332 44.8395L16.0424 46.9849C16.0292 47.0226 16.009 47.0799 15.985 47.1401C15.276 48.92 13.2548 49.7873 11.4759 49.0765C9.70036 48.3692 8.83296 46.3561 9.53435 44.5803L10.5525 41.8154C9.00051 40.5115 7.77122 38.8665 6.95869 37.0093H5.60417C4.47688 37.0093 3.5625 36.0949 3.5625 34.9676V28.8426C3.5625 27.7153 4.47688 26.8009 5.60417 26.8009H6.97205C7.74219 25.1334 8.88491 23.6628 10.3123 22.504V18.6343C10.3123 18.3995 10.3554 18.18 10.4198 17.9868L10.4231 17.9769ZM12.3539 18.6421V23.0034C12.3539 23.3265 12.201 23.6306 11.9415 23.8231C10.4392 24.9383 9.27957 26.4536 8.59607 28.1948C8.44267 28.5856 8.06565 28.8426 7.64583 28.8426H5.60417V34.9676H7.64583C8.07155 34.9676 8.45258 35.2318 8.60185 35.6305C9.352 37.634 10.6612 39.3787 12.3757 40.6557C12.7385 40.9259 12.8802 41.4027 12.7239 41.8271L11.436 45.3245C11.1432 46.0565 11.5006 46.8886 12.2315 47.1798C12.9635 47.4727 13.7971 47.1155 14.0883 46.3845C14.095 46.3678 14.1026 46.3467 14.1181 46.3026L14.1236 46.2867L15.2405 43.2569C15.427 42.751 15.9749 42.4773 16.4914 42.6321C19.7605 43.6117 23.2566 43.5349 26.48 42.415C27.0057 42.2323 27.5808 42.5044 27.773 43.0266L28.9846 46.3179C29.2383 47.0658 30.0488 47.4668 30.7979 47.2143C31.5439 46.9608 31.9443 46.1528 31.6947 45.4051C31.6807 45.3652 31.674 45.3464 31.6676 45.3305L31.6562 45.3007L30.2189 41.3542C30.0636 40.9279 30.2083 40.4503 30.574 40.1819C33.1639 38.2808 34.726 35.2859 34.8 32.0756C34.7926 26.0482 28.8558 20.8576 21.1208 20.8576C19.6125 20.8576 18.1105 21.0671 16.6609 21.4818C16.2448 21.6009 15.7988 21.4446 15.5481 21.0918C14.7527 19.9731 13.639 19.1197 12.3539 18.6421Z" fill="#1B73EE"/>
<path fill-rule="evenodd" clip-rule="evenodd" d="M40.7208 26.9827C41.2846 26.9827 41.7417 27.4397 41.7417 28.0035C41.7417 29.4658 41.2458 30.7891 40.1681 31.7322C39.1081 32.6596 37.6131 33.1077 35.8208 33.1077C35.257 33.1077 34.8 32.6506 34.8 32.0868C34.8 31.523 35.257 31.066 35.8208 31.066C37.2952 31.066 38.2502 30.6974 38.8236 30.1956C39.3792 29.7095 39.7 28.9911 39.7 28.0035C39.7 27.4397 40.157 26.9827 40.7208 26.9827Z" fill="#1B73EE"/>
<path fill-rule="evenodd" clip-rule="evenodd" d="M14.2894 29.8634C14.5715 29.8634 14.7998 29.6351 14.7998 29.353C14.7998 29.071 14.5715 28.8426 14.2894 28.8426C14.0074 28.8426 13.779 29.071 13.779 29.353C13.779 29.6351 14.0074 29.8634 14.2894 29.8634ZM12.7582 29.353C12.7582 28.5075 13.4439 27.8218 14.2894 27.8218C15.135 27.8218 15.8207 28.5075 15.8207 29.353C15.8207 30.1986 15.135 30.8843 14.2894 30.8843C13.4439 30.8843 12.7582 30.1986 12.7582 29.353Z" fill="#1B73EE"/>
<path fill-rule="evenodd" clip-rule="evenodd" d="M44.3388 11.6405C43.695 5.87394 38.4978 1.72221 32.7307 2.36609C26.9642 3.00993 22.8124 8.20714 23.4563 13.9742C23.5189 14.5345 23.1154 15.0395 22.5551 15.102C21.9948 15.1646 21.4898 14.7611 21.4273 14.2008C20.6583 7.31357 25.6165 1.10604 32.5042 0.337036C39.3913 -0.431906 45.5988 4.52621 46.3679 11.4138C46.819 15.4496 45.2901 19.4546 42.2629 22.1617C41.8426 22.5375 41.1973 22.5015 40.8215 22.0812C40.4457 21.661 40.4817 21.0156 40.9019 20.6398C43.4363 18.3734 44.7166 15.02 44.3388 11.6405Z" fill="#1B73EE"/>
<path fill-rule="evenodd" clip-rule="evenodd" d="M33.9405 6.38428C34.5043 6.38428 34.9613 6.84132 34.9613 7.40511V9.44678C34.9613 10.0106 34.5043 10.4676 33.9405 10.4676C33.3767 10.4676 32.9196 10.0106 32.9196 9.44678V7.40511C32.9196 6.84132 33.3767 6.38428 33.9405 6.38428Z" fill="#1B73EE"/>
<path fill-rule="evenodd" clip-rule="evenodd" d="M31.8906 10.4656C31.3274 10.4656 30.8698 10.9232 30.8698 11.4864C30.8698 12.0496 31.3274 12.5072 31.8906 12.5072H35.974C37.6648 12.5072 39.0365 13.8789 39.0365 15.5697C39.0365 17.2605 37.6648 18.6322 35.974 18.6322H29.849C29.2852 18.6322 28.8281 18.1752 28.8281 17.6114C28.8281 17.0476 29.2852 16.5906 29.849 16.5906H35.974C36.5372 16.5906 36.9948 16.1329 36.9948 15.5697C36.9948 15.0065 36.5372 14.5489 35.974 14.5489H31.8906C30.1998 14.5489 28.8281 13.1772 28.8281 11.4864C28.8281 9.79561 30.1998 8.4239 31.8906 8.4239H38.0156C38.5794 8.4239 39.0365 8.88095 39.0365 9.44474C39.0365 10.0085 38.5794 10.4656 38.0156 10.4656H31.8906Z" fill="#1B73EE"/>
</svg>
