<svg width="40" height="40" viewBox="0 0 40 40" fill="none" xmlns="http://www.w3.org/2000/svg">
<rect width="40" height="40" rx="6" fill="white"/>
<path d="M29.4334 15.3667C29.4927 15.3174 29.5372 15.2526 29.5619 15.1796C29.5865 15.1065 29.5905 15.0281 29.5732 14.9529C29.5559 14.8778 29.5181 14.8089 29.464 14.7539C29.4099 14.699 29.3417 14.6601 29.2668 14.6417L28.6084 14.475C28.5486 14.46 28.4928 14.4319 28.4451 14.3928C28.3974 14.3536 28.3591 14.3043 28.3328 14.2485C28.3064 14.1927 28.2929 14.1317 28.293 14.07C28.2931 14.0083 28.3069 13.9474 28.3334 13.8917L28.7001 13.15C28.7348 13.0782 28.748 12.9979 28.7384 12.9187C28.7287 12.8395 28.6965 12.7647 28.6456 12.7033C28.5947 12.6419 28.5272 12.5963 28.4512 12.5721C28.3752 12.5479 28.2938 12.546 28.2168 12.5667L26.5501 13.0334C26.488 13.0515 26.4226 13.0549 26.3589 13.0433C26.2953 13.0317 26.2352 13.0055 26.1834 12.9667C25.4622 12.4258 24.585 12.1334 23.6834 12.1334C22.5784 12.1334 21.5186 12.5723 20.7372 13.3538C19.9558 14.1352 19.5168 15.195 19.5168 16.3V16.6C19.5172 16.6512 19.4987 16.7007 19.4649 16.7392C19.431 16.7776 19.3843 16.8022 19.3334 16.8084C16.9918 17.0834 14.7501 15.8917 12.3334 13.1084C12.281 13.0505 12.2135 13.0082 12.1385 12.9861C12.0635 12.9641 11.9839 12.9631 11.9084 12.9834C11.8404 13.0146 11.7821 13.0636 11.7396 13.1252C11.6971 13.1868 11.6719 13.2587 11.6668 13.3334C11.333 14.7045 11.4679 16.1479 12.0501 17.4334C12.0673 17.4675 12.0749 17.5056 12.0719 17.5437C12.0688 17.5818 12.0554 17.6183 12.0331 17.6493C12.0107 17.6803 11.9802 17.7045 11.945 17.7193C11.9098 17.7341 11.8712 17.739 11.8334 17.7334L10.9001 17.55C10.8338 17.5394 10.766 17.5449 10.7023 17.5661C10.6386 17.5873 10.581 17.6236 10.5343 17.6719C10.4877 17.7202 10.4534 17.779 10.4344 17.8434C10.4154 17.9078 10.4122 17.9758 10.4251 18.0417C10.4971 18.6812 10.7119 19.2964 11.0538 19.8417C11.3957 20.3869 11.8558 20.8483 12.4001 21.1917C12.4353 21.2088 12.465 21.2354 12.4858 21.2686C12.5066 21.3017 12.5176 21.3401 12.5176 21.3792C12.5176 21.4183 12.5066 21.4567 12.4858 21.4898C12.465 21.523 12.4353 21.5496 12.4001 21.5667L11.9584 21.7417C11.9048 21.7632 11.8562 21.7956 11.8158 21.8369C11.7754 21.8782 11.744 21.9274 11.7236 21.9815C11.7032 22.0356 11.6943 22.0933 11.6974 22.151C11.7006 22.2087 11.7157 22.2651 11.7418 22.3167C11.986 22.8511 12.3562 23.3184 12.8207 23.6783C13.2851 24.0383 13.83 24.2802 14.4084 24.3834C14.4487 24.398 14.4834 24.4246 14.508 24.4596C14.5325 24.4947 14.5457 24.5364 14.5457 24.5792C14.5457 24.622 14.5325 24.6637 14.508 24.6988C14.4834 24.7338 14.4487 24.7604 14.4084 24.775C13.2754 25.2436 12.0595 25.4789 10.8334 25.4667C10.7229 25.4446 10.6082 25.4673 10.5144 25.5298C10.4206 25.5923 10.3556 25.6895 10.3334 25.8C10.3113 25.9105 10.334 26.0253 10.3966 26.1191C10.4591 26.2128 10.5563 26.2779 10.6668 26.3C12.7897 27.3069 15.1011 27.8549 17.4501 27.9084C19.5163 27.9399 21.5458 27.36 23.2834 26.2417C24.7128 25.2876 25.8839 23.9946 26.6923 22.4781C27.5007 20.9616 27.9214 19.2686 27.9168 17.55V16.825C27.9173 16.7645 27.931 16.7048 27.9569 16.6502C27.9828 16.5955 28.0203 16.5471 28.0668 16.5084L29.4334 15.3667Z" fill="#313131"/>
</svg>
